<svg width="600" height="58" viewBox="0 0 600 58" fill="none" xmlns="http://www.w3.org/2000/svg">
<rect width="600" height="58" rx="16" fill="#99C08E"/>
<path d="M253.38 33.451C253.344 33.631 253.29 34.099 253.218 34.837C253.146 35.575 253.11 36.007 253.092 36.115C253.038 36.385 252.876 36.547 252.624 36.583C252.354 36.637 251.742 36.673 250.77 36.691C250.626 36.691 250.536 36.655 250.464 36.583C250.392 36.511 250.338 36.403 250.338 36.259C250.32 35.953 250.32 35.665 250.338 35.395C250.338 35.143 250.338 34.909 250.338 34.693C250.32 34.477 250.302 34.297 250.266 34.135C250.23 33.991 250.176 33.865 250.086 33.757C249.978 33.667 249.852 33.613 249.69 33.577C249.474 33.541 248.592 33.505 247.044 33.451C245.496 33.415 244.56 33.379 244.236 33.379C244.02 33.379 243.858 33.253 243.75 32.983C243.516 32.479 243.498 31.867 243.696 31.129C243.714 31.003 243.876 30.913 244.182 30.841C244.218 30.823 244.578 30.823 245.262 30.823C245.946 30.823 246.306 30.823 246.342 30.823C246.72 30.805 247.836 30.769 249.672 30.733C251.508 30.697 252.57 30.661 252.894 30.643C253.254 30.643 254.262 30.625 255.9 30.607C257.538 30.607 258.456 30.589 258.654 30.589C258.906 30.589 259.122 30.751 259.284 31.111C259.536 31.651 259.59 32.173 259.446 32.677C259.392 32.857 259.248 33.001 259.014 33.091C258.744 33.199 257.808 33.289 256.206 33.325C254.586 33.361 253.758 33.397 253.686 33.397L253.38 33.451ZM249.744 22.039C251.202 21.949 252.012 21.895 252.192 21.877C252.498 21.877 252.84 21.985 253.2 22.165C253.272 22.201 253.344 22.291 253.416 22.399C253.47 22.507 253.506 22.615 253.506 22.687C253.488 23.443 253.596 24.091 253.812 24.667C253.902 24.955 254.1 25.135 254.388 25.207C255.216 25.405 256.278 25.675 257.538 26.035C257.754 26.107 257.898 26.179 257.988 26.269C258.06 26.377 258.06 26.521 257.97 26.719C257.898 26.863 257.844 27.043 257.808 27.295C257.754 27.547 257.718 27.709 257.7 27.781C257.592 28.159 257.376 28.429 257.088 28.591C256.782 28.753 256.386 28.861 255.918 28.915C255.846 28.933 255.612 28.969 255.252 29.041C254.892 29.113 254.604 29.131 254.424 29.131C254.136 29.131 253.866 29.041 253.578 28.825C253.236 28.573 252.93 28.267 252.66 27.907C252.246 27.403 251.742 27.043 251.13 26.791C250.878 26.683 250.608 26.701 250.284 26.827C249.672 27.079 248.916 27.421 248.052 27.853C248.016 27.871 247.962 27.889 247.908 27.907C247.656 28.051 247.458 28.141 247.314 28.195C247.17 28.267 246.972 28.321 246.738 28.375C246.486 28.429 246.27 28.447 246.054 28.429C245.784 28.411 245.604 28.357 245.514 28.285C245.406 28.213 245.352 28.069 245.316 27.835C245.28 27.619 245.226 27.421 245.154 27.205C244.866 26.413 245.136 25.819 245.982 25.441C248.07 24.505 249.15 24.001 249.24 23.965C249.456 23.875 249.618 23.749 249.69 23.587C249.762 23.425 249.816 23.227 249.834 22.975C249.834 22.939 249.798 22.633 249.744 22.039ZM277.464 27.385C277.446 28.141 277.266 28.663 276.924 28.951C276.78 29.059 276.6 29.149 276.384 29.185C276.168 29.221 275.97 29.239 275.808 29.221H275.574L275.178 29.113C274.926 29.059 274.818 28.897 274.818 28.645C274.818 26.629 274.818 25.243 274.782 24.523C274.728 23.731 274.71 22.759 274.71 21.607C274.71 21.373 274.782 21.175 274.962 21.013C275.124 20.869 275.34 20.779 275.592 20.779L276.87 20.905L277.05 21.049C277.122 21.103 277.212 21.211 277.356 21.373C277.482 21.535 277.554 21.697 277.554 21.841V23.623C277.536 23.623 277.518 23.839 277.518 24.253C277.518 24.685 277.5 25.243 277.5 25.927C277.482 26.611 277.464 27.097 277.464 27.385ZM273.504 23.785C273.846 23.857 274.08 23.947 274.206 24.055C274.332 24.163 274.404 24.379 274.44 24.667C274.44 24.811 274.458 25.027 274.458 25.315V25.801C274.458 26.107 274.26 26.323 273.846 26.467C273.558 26.575 273.216 26.647 272.82 26.701C272.352 26.773 272.082 26.611 272.01 26.215C271.83 25.459 271.938 24.703 272.37 23.947C272.406 23.911 272.46 23.875 272.532 23.839C272.604 23.821 272.73 23.803 272.892 23.785C273.036 23.767 273.144 23.749 273.18 23.731C273.18 23.731 273.288 23.749 273.504 23.785ZM266.574 23.389C265.926 23.245 265.116 23.263 264.144 23.443C263.172 23.623 262.488 23.713 262.128 23.695C262.254 22.615 262.344 21.841 262.416 21.373C263.37 21.247 263.874 21.175 263.946 21.175C265.566 21.085 266.61 21.049 267.114 21.067C267.366 21.085 267.618 21.121 267.87 21.157C268.122 21.211 268.446 21.283 268.842 21.373C269.22 21.481 269.472 21.535 269.616 21.553C270.048 21.661 270.21 21.967 270.066 22.453C269.922 22.939 269.814 23.281 269.742 23.497C269.67 23.713 269.526 23.983 269.346 24.343C269.166 24.703 268.95 24.991 268.698 25.225C268.626 25.297 268.536 25.387 268.428 25.495C268.302 25.603 268.212 25.693 268.176 25.729C268.14 25.765 268.086 25.819 268.05 25.891C268.014 25.963 267.996 26.035 268.014 26.071C268.032 26.125 268.068 26.179 268.14 26.251C268.194 26.323 268.284 26.395 268.41 26.467C268.482 26.521 268.59 26.629 268.77 26.773C268.932 26.917 269.04 27.025 269.076 27.079C269.238 27.313 269.454 27.547 269.706 27.799C269.958 28.051 270.156 28.285 270.318 28.519C270.606 28.951 270.552 29.275 270.12 29.491C269.976 29.581 269.778 29.707 269.526 29.887C269.274 30.067 269.094 30.175 269.004 30.229C268.914 30.301 268.842 30.337 268.77 30.355C268.698 30.373 268.608 30.373 268.518 30.337C268.428 30.301 268.374 30.283 268.338 30.265C268.302 30.265 268.23 30.211 268.104 30.121C267.978 30.049 267.906 29.995 267.888 29.977C267.798 29.941 267.744 29.905 267.726 29.869C267.69 29.833 267.672 29.815 267.672 29.797C267.672 29.779 267.636 29.725 267.582 29.653C267.51 29.581 267.42 29.473 267.294 29.347C267.24 29.311 267.15 29.203 267.006 29.005C266.862 28.825 266.718 28.663 266.61 28.555C266.25 28.195 265.854 28.033 265.422 28.033C264.99 28.033 264.468 28.249 263.82 28.681C263.46 28.915 263.082 29.221 262.686 29.599C262.326 29.923 262.11 29.851 262.002 29.401C261.768 28.465 261.642 27.889 261.606 27.655C261.534 27.259 261.588 26.899 261.768 26.593C261.948 26.305 262.254 26.089 262.668 25.945C263.28 25.765 263.856 25.513 264.378 25.153C264.882 24.793 265.476 24.325 266.16 23.731C266.16 23.731 266.304 23.623 266.574 23.389ZM271.65 35.233C271.938 35.233 272.19 35.125 272.406 34.873C272.622 34.639 272.73 34.351 272.73 33.991C272.73 33.487 272.442 33.181 271.902 33.055C271.308 32.947 270.138 32.875 268.392 32.875H268.374C268.194 32.875 268.05 32.911 267.924 32.965C267.798 33.037 267.69 33.127 267.618 33.253C267.546 33.379 267.492 33.487 267.456 33.577C267.42 33.685 267.384 33.811 267.348 33.991C267.312 34.081 267.312 34.153 267.312 34.225C267.312 34.423 267.366 34.585 267.51 34.693C267.654 34.819 267.816 34.891 268.032 34.927C268.23 34.981 268.5 35.017 268.86 35.053C269.202 35.089 269.508 35.125 269.778 35.125C270.03 35.143 270.372 35.161 270.786 35.179C271.2 35.215 271.47 35.233 271.596 35.233H271.65ZM269.004 31.039C269.688 31.039 270.516 31.111 271.452 31.219C272.388 31.327 273.18 31.471 273.828 31.651C274.926 31.975 275.538 32.551 275.664 33.379C275.7 33.595 275.718 33.793 275.718 33.973C275.718 34.783 275.394 35.431 274.764 35.899C274.332 36.223 273.972 36.493 273.684 36.673C273.396 36.853 273.054 37.033 272.622 37.195C272.19 37.375 271.758 37.465 271.326 37.465C271.146 37.465 270.714 37.501 270.012 37.537C269.31 37.573 268.842 37.591 268.608 37.591C268.266 37.591 267.96 37.573 267.708 37.519C267.636 37.519 267.564 37.519 267.456 37.483C266.952 37.411 266.556 37.339 266.304 37.285C266.034 37.231 265.71 37.123 265.332 36.943C264.954 36.781 264.63 36.565 264.378 36.295C263.892 35.827 263.658 35.395 263.658 34.981C263.658 34.153 263.766 33.523 264.018 33.109C264.684 31.993 266.07 31.309 268.158 31.093C268.428 31.057 268.716 31.039 269.004 31.039ZM292.224 36.619C291.648 36.619 291.252 36.529 291.036 36.313C290.82 36.097 290.712 35.701 290.676 35.107C290.586 33.433 290.55 32.281 290.55 31.651C290.55 30.769 290.604 27.979 290.73 23.299C290.73 23.173 290.748 23.029 290.784 22.885C290.802 22.741 290.82 22.615 290.856 22.507C290.874 22.399 290.91 22.273 290.964 22.093C291 21.913 291.036 21.787 291.072 21.679C291.108 21.535 291.18 21.427 291.306 21.391C291.342 21.391 291.468 21.355 291.666 21.301C291.864 21.247 292.008 21.211 292.08 21.193C292.152 21.175 292.26 21.157 292.44 21.121C292.602 21.085 292.728 21.085 292.836 21.085C292.944 21.085 293.07 21.103 293.214 21.139C293.358 21.175 293.484 21.211 293.628 21.265C293.97 21.445 294.168 21.769 294.204 22.237C294.204 22.453 294.222 23.173 294.24 24.415C294.24 25.657 294.276 26.431 294.312 26.737C294.348 26.953 294.474 27.187 294.69 27.421C294.798 27.547 294.906 27.673 295.032 27.799C295.158 27.943 295.302 28.087 295.464 28.231C295.608 28.393 295.734 28.519 295.842 28.591C295.986 28.735 296.076 28.897 296.148 29.059C296.22 29.239 296.238 29.437 296.22 29.653C296.202 29.869 296.184 30.031 296.166 30.139C296.13 30.247 296.094 30.445 296.022 30.697C295.914 31.129 295.536 31.363 294.888 31.363C294.546 31.363 294.33 31.417 294.258 31.507C294.168 31.615 294.132 31.849 294.15 32.245C294.15 32.515 294.15 33.001 294.168 33.685C294.186 34.369 294.204 34.837 294.204 35.071C294.204 35.557 294.078 35.881 293.79 36.043C293.07 36.439 292.548 36.637 292.224 36.619ZM281.676 29.527C281.532 29.509 281.334 29.473 281.118 29.437C280.902 29.401 280.704 29.365 280.542 29.329C280.362 29.293 280.218 29.275 280.074 29.239C279.75 29.203 279.588 29.059 279.57 28.807C279.498 28.159 279.408 27.385 279.3 26.449C279.444 26.449 279.642 26.413 279.894 26.377C280.146 26.341 280.344 26.323 280.506 26.287C280.668 26.269 280.848 26.251 281.064 26.251C281.28 26.251 281.478 26.269 281.658 26.305C281.838 26.341 281.964 26.341 282.072 26.341C282.162 26.341 282.306 26.341 282.486 26.305C282.666 26.287 282.81 26.269 282.918 26.269C283.026 26.269 283.224 26.269 283.494 26.269C283.764 26.269 283.98 26.251 284.124 26.251C284.268 26.251 284.754 26.215 285.6 26.161C286.446 26.125 287.094 26.089 287.562 26.071C288.102 26.071 288.426 26.125 288.552 26.251C288.66 26.395 288.696 26.719 288.642 27.259C288.57 27.871 288.48 28.375 288.354 28.789C288.318 28.843 288.282 28.897 288.228 28.933C288.156 28.987 288.084 29.041 287.976 29.095C287.868 29.149 287.796 29.185 287.76 29.203C287.814 29.419 287.922 29.761 288.102 30.211C288.264 30.661 288.39 31.057 288.48 31.417C288.552 31.777 288.588 32.137 288.552 32.497C288.444 33.847 287.886 34.855 286.914 35.521C286.518 35.809 286.032 35.899 285.42 35.827C284.664 35.755 283.476 35.539 281.892 35.197C280.884 34.999 280.326 34.351 280.2 33.271C280.02 31.885 280.38 30.769 281.298 29.941C281.298 29.941 281.424 29.797 281.676 29.527ZM284.34 33.559C285.312 33.559 285.942 33.181 286.212 32.425C286.284 32.191 286.266 31.921 286.158 31.597C286.05 31.291 285.888 31.129 285.708 31.111C284.934 31.021 284.358 30.985 283.962 31.021C283.512 31.057 283.17 31.219 282.954 31.471C282.738 31.723 282.63 32.083 282.666 32.515C282.666 32.857 282.756 33.055 282.9 33.109C283.044 33.181 283.512 33.325 284.34 33.559ZM286.104 25.009C284.988 25.477 283.908 25.585 282.9 25.351C282.288 25.207 281.784 24.991 281.352 24.703C281.28 24.667 281.244 24.595 281.208 24.487C281.172 24.397 281.136 24.271 281.118 24.109C281.082 23.947 281.064 23.839 281.064 23.767C280.992 23.515 280.938 23.353 280.938 23.245C280.884 23.137 280.866 23.047 280.902 22.975C280.938 22.903 281.028 22.867 281.208 22.867C281.352 22.867 281.55 22.813 281.838 22.741C282.108 22.669 282.306 22.633 282.414 22.615C283.746 22.471 284.718 22.399 285.33 22.381C285.438 22.381 285.546 22.417 285.618 22.489C285.69 22.561 285.744 22.633 285.762 22.687C285.78 22.759 285.798 22.867 285.834 23.011C285.87 23.155 285.888 23.245 285.888 23.263C285.924 23.443 285.942 23.605 285.978 23.785C285.996 23.965 286.014 24.199 286.032 24.451C286.05 24.703 286.068 24.901 286.104 25.009ZM313.23 21.841C313.23 21.859 313.23 21.877 313.266 21.877C313.302 21.913 313.374 21.931 313.482 21.967C313.59 22.003 313.68 22.021 313.752 22.057C313.824 22.093 313.86 22.129 313.878 22.165C313.968 22.507 314.004 22.903 313.986 23.335C313.968 23.479 313.878 24.433 313.734 26.197C313.608 27.529 313.5 28.861 313.392 30.193C313.266 31.489 313.194 32.263 313.194 32.515C313.158 32.731 313.14 33.019 313.122 33.397C313.104 33.775 313.086 34.117 313.068 34.423C313.032 34.729 313.014 35.017 312.978 35.287C312.942 35.539 312.762 35.899 312.474 36.385C312.402 36.511 312.24 36.565 311.988 36.565C311.934 36.583 311.412 36.583 310.404 36.583C310.224 36.583 310.08 36.547 309.972 36.439C309.864 36.331 309.792 36.205 309.792 36.025L309.666 34.135C309.666 34.099 309.648 33.973 309.63 33.757C309.594 33.541 309.594 33.379 309.612 33.271C309.648 32.749 309.72 32.227 309.828 31.705C309.882 31.363 309.864 31.129 309.756 31.021C309.648 30.913 309.432 30.895 309.108 30.967C308.604 31.075 308.19 30.949 307.866 30.625C307.524 30.301 307.398 29.905 307.488 29.401C307.56 28.933 307.758 28.555 308.082 28.267C308.388 27.997 308.784 27.835 309.288 27.799C309.522 27.799 309.738 27.709 309.918 27.547C310.098 27.385 310.206 27.187 310.224 26.971C310.242 26.611 310.278 26.053 310.35 25.261C310.404 24.487 310.44 23.893 310.476 23.479C310.494 23.299 310.548 22.975 310.656 22.543C310.746 22.147 310.998 21.967 311.412 21.967C311.88 21.985 312.33 21.985 312.744 21.985C312.744 21.985 312.906 21.949 313.23 21.841ZM301.746 30.697C301.746 30.733 301.728 30.877 301.728 31.129C301.728 31.381 301.71 31.561 301.71 31.651C302.862 31.525 304.176 31.561 305.634 31.777C305.814 31.813 305.958 31.903 306.048 32.029C306.12 32.173 306.156 32.335 306.138 32.551C306.12 32.767 306.084 32.965 306.048 33.127C306.012 33.307 305.94 33.523 305.868 33.775C305.778 34.027 305.724 34.207 305.724 34.279C305.616 34.621 305.346 34.837 304.95 34.945C304.842 34.981 304.572 35.053 304.122 35.179C303.672 35.305 303.366 35.377 303.222 35.413C303.078 35.449 302.808 35.485 302.43 35.557C302.034 35.629 301.728 35.683 301.512 35.683C301.296 35.683 301.026 35.683 300.72 35.647C300.396 35.611 300.108 35.557 299.838 35.467C299.694 35.431 299.442 35.323 299.046 35.179C298.65 35.035 298.362 34.927 298.146 34.819C297.786 34.675 297.606 34.333 297.642 33.811C297.642 33.307 297.714 32.641 297.84 31.813C297.948 30.985 298.02 30.319 298.038 29.797C298.002 28.645 298.326 28.051 299.028 28.051C299.334 28.051 299.766 28.069 300.306 28.123C300.846 28.177 301.332 28.195 301.782 28.177C302.214 28.159 302.628 28.069 303.024 27.907C303.024 27.907 303.024 27.763 302.988 27.493C302.952 27.241 302.916 26.971 302.88 26.683C302.844 26.395 302.826 26.251 302.826 26.233C302.826 26.215 302.808 26.179 302.772 26.143C302.736 26.107 302.7 26.071 302.682 26.071C301.782 25.891 301.206 25.801 300.99 25.783C300.846 25.783 300.63 25.783 300.378 25.819C300.126 25.855 299.946 25.873 299.838 25.873C299.316 25.873 298.65 25.855 297.84 25.819C297.768 25.819 297.696 25.801 297.66 25.765C297.606 25.729 297.57 25.693 297.534 25.621C297.498 25.549 297.48 25.495 297.48 25.441C297.48 25.405 297.462 25.333 297.462 25.243C297.444 25.153 297.444 25.081 297.444 25.045C297.408 24.919 297.39 24.793 297.39 24.685C297.39 24.577 297.39 24.451 297.426 24.343C297.444 24.235 297.462 24.163 297.48 24.091C297.48 24.019 297.516 23.929 297.57 23.803C297.606 23.695 297.642 23.605 297.678 23.551C297.696 23.515 297.75 23.407 297.84 23.263C297.912 23.119 297.966 23.029 298.002 22.957C298.038 22.903 298.2 22.849 298.506 22.795C299.802 22.579 300.594 22.471 300.882 22.435C301.08 22.435 301.368 22.453 301.746 22.507C302.106 22.561 302.358 22.579 302.502 22.579C302.682 22.597 302.934 22.597 303.294 22.579C303.654 22.561 303.924 22.561 304.104 22.561C304.482 22.579 304.86 22.669 305.256 22.813C305.634 22.957 305.976 23.191 306.264 23.515C306.552 23.839 306.678 24.199 306.678 24.613C306.66 24.973 306.678 25.639 306.732 26.575C306.768 27.511 306.786 28.177 306.786 28.537C306.786 28.699 306.768 28.843 306.732 28.951C306.696 29.077 306.678 29.167 306.66 29.221C306.624 29.275 306.588 29.365 306.516 29.491C306.444 29.635 306.372 29.743 306.336 29.815C306.264 29.959 306.12 30.085 305.922 30.157C304.842 30.589 303.96 30.733 303.276 30.589C303.042 30.571 302.88 30.571 302.772 30.571C302.664 30.571 302.502 30.607 302.268 30.643C302.016 30.679 301.854 30.697 301.746 30.697ZM335.431 36.619C334.855 36.619 334.459 36.529 334.243 36.313C334.027 36.097 333.919 35.701 333.883 35.107C333.793 33.433 333.757 32.281 333.757 31.651C333.757 30.769 333.811 27.979 333.937 23.299C333.937 23.173 333.955 23.029 333.991 22.885C334.009 22.741 334.027 22.615 334.063 22.507C334.081 22.399 334.117 22.273 334.171 22.093C334.207 21.913 334.243 21.787 334.279 21.679C334.315 21.535 334.387 21.427 334.513 21.391C334.549 21.391 334.675 21.355 334.873 21.301C335.071 21.247 335.215 21.211 335.287 21.193C335.359 21.175 335.467 21.157 335.647 21.121C335.809 21.085 335.935 21.085 336.043 21.085C336.151 21.085 336.277 21.103 336.421 21.139C336.565 21.175 336.691 21.211 336.835 21.265C337.177 21.445 337.375 21.769 337.411 22.237C337.411 22.453 337.429 23.173 337.447 24.415C337.447 25.657 337.483 26.431 337.519 26.737C337.555 26.953 337.681 27.187 337.897 27.421C338.005 27.547 338.113 27.673 338.239 27.799C338.365 27.943 338.509 28.087 338.671 28.231C338.815 28.393 338.941 28.519 339.049 28.591C339.193 28.735 339.283 28.897 339.355 29.059C339.427 29.239 339.445 29.437 339.427 29.653C339.409 29.869 339.391 30.031 339.373 30.139C339.337 30.247 339.301 30.445 339.229 30.697C339.121 31.129 338.743 31.363 338.095 31.363C337.753 31.363 337.537 31.417 337.465 31.507C337.375 31.615 337.339 31.849 337.357 32.245C337.357 32.515 337.357 33.001 337.375 33.685C337.393 34.369 337.411 34.837 337.411 35.071C337.411 35.557 337.285 35.881 336.997 36.043C336.277 36.439 335.755 36.637 335.431 36.619ZM322.813 23.911C322.939 23.695 323.137 23.551 323.389 23.497C324.865 23.227 325.999 23.029 326.791 22.921C327.979 22.759 329.077 22.741 330.103 22.885C330.121 22.885 330.175 22.903 330.283 22.903C330.373 22.921 330.445 22.939 330.481 22.939C330.517 22.939 330.589 22.957 330.661 22.975C330.733 22.993 330.787 23.011 330.841 23.047C330.895 23.083 330.949 23.137 331.003 23.173C331.093 23.263 331.183 23.443 331.291 23.713C331.741 25.009 331.939 26.449 331.867 28.069C331.831 28.663 331.741 29.527 331.597 30.679C331.561 30.931 331.525 31.471 331.471 32.335C331.417 33.199 331.327 33.847 331.219 34.297C331.093 34.801 330.931 35.125 330.751 35.305C330.607 35.449 330.175 35.557 329.491 35.593C328.807 35.647 328.177 35.647 327.637 35.611C327.349 35.611 327.205 35.521 327.169 35.341C327.133 35.269 327.133 35.197 327.169 35.089C327.187 34.981 327.223 34.873 327.259 34.747C327.295 34.639 327.313 34.549 327.313 34.495C327.367 34.171 327.421 33.847 327.457 33.505C327.529 32.911 327.565 32.263 327.601 31.561C327.619 30.697 327.601 29.419 327.547 27.709C327.529 27.457 327.493 27.277 327.439 27.169C327.277 26.881 326.899 26.809 326.323 26.935C325.657 27.097 324.469 27.151 322.759 27.079C322.669 27.079 322.615 27.061 322.579 27.025C322.525 26.989 322.507 26.881 322.525 26.737C322.633 25.009 322.723 24.055 322.813 23.911ZM352.243 21.139C352.927 21.103 353.305 21.085 353.341 21.085C353.737 21.103 354.115 21.139 354.511 21.193C354.907 21.247 355.249 21.283 355.555 21.301C355.897 21.337 356.077 21.535 356.095 21.877C356.095 22.309 356.131 22.975 356.185 23.857C356.239 24.757 356.275 25.423 356.293 25.873C356.311 26.215 356.311 26.827 356.311 27.691C356.311 28.573 356.311 29.185 356.311 29.509C356.311 29.995 356.311 30.985 356.311 32.497C356.311 34.009 356.311 35.017 356.311 35.503V35.539C356.311 35.791 356.275 36.043 356.203 36.259C356.041 36.709 355.753 36.925 355.339 36.907C355.141 36.907 354.907 36.925 354.655 36.925C354.403 36.925 354.187 36.925 354.007 36.889C353.863 36.889 353.701 36.835 353.557 36.745C353.395 36.673 353.287 36.565 353.251 36.457C352.891 35.593 352.711 34.927 352.693 34.459C352.639 33.415 352.603 31.633 352.585 29.149C352.567 26.665 352.549 24.973 352.513 24.055C352.513 23.767 352.495 23.479 352.459 23.155C352.423 22.831 352.387 22.471 352.351 22.057L352.243 21.139ZM340.813 23.911C340.939 23.695 341.137 23.551 341.389 23.497C342.865 23.227 343.999 23.029 344.791 22.921C345.979 22.759 347.077 22.741 348.103 22.885C348.121 22.885 348.175 22.903 348.283 22.903C348.373 22.921 348.445 22.939 348.481 22.939C348.517 22.939 348.589 22.957 348.661 22.975C348.733 22.993 348.787 23.011 348.841 23.047C348.895 23.083 348.949 23.137 349.003 23.173C349.093 23.263 349.183 23.443 349.291 23.713C349.741 25.009 349.939 26.449 349.867 28.069C349.831 28.663 349.741 29.527 349.597 30.679C349.561 30.931 349.525 31.471 349.471 32.335C349.417 33.199 349.327 33.847 349.219 34.297C349.093 34.801 348.931 35.125 348.751 35.305C348.607 35.449 348.175 35.557 347.491 35.593C346.807 35.647 346.177 35.647 345.637 35.611C345.349 35.611 345.205 35.521 345.169 35.341C345.133 35.269 345.133 35.197 345.169 35.089C345.187 34.981 345.223 34.873 345.259 34.747C345.295 34.639 345.313 34.549 345.313 34.495C345.367 34.171 345.421 33.847 345.457 33.505C345.529 32.911 345.565 32.263 345.601 31.561C345.619 30.697 345.601 29.419 345.547 27.709C345.529 27.457 345.493 27.277 345.439 27.169C345.277 26.881 344.899 26.809 344.323 26.935C343.657 27.097 342.469 27.151 340.759 27.079C340.669 27.079 340.615 27.061 340.579 27.025C340.525 26.989 340.507 26.881 340.525 26.737C340.633 25.009 340.723 24.055 340.813 23.911Z" fill="#578246"/>
<path d="M253.232 35.2416C253.196 35.4216 253.142 35.8896 253.07 36.6276C252.998 37.3656 252.962 37.7976 252.944 37.9056C252.89 38.1756 252.728 38.3376 252.476 38.3736C252.206 38.4276 251.594 38.4636 250.622 38.4816C250.478 38.4816 250.388 38.4456 250.316 38.3736C250.244 38.3016 250.19 38.1936 250.19 38.0496C250.172 37.7436 250.172 37.4556 250.19 37.1856C250.19 36.9336 250.19 36.6996 250.19 36.4836C250.172 36.2676 250.154 36.0876 250.118 35.9256C250.082 35.7816 250.028 35.6556 249.938 35.5476C249.83 35.4576 249.704 35.4036 249.542 35.3676C249.326 35.3316 248.444 35.2956 246.896 35.2416C245.348 35.2056 244.412 35.1696 244.088 35.1696C243.872 35.1696 243.71 35.0436 243.602 34.7736C243.368 34.2696 243.35 33.6576 243.548 32.9196C243.566 32.7936 243.728 32.7036 244.034 32.6316C244.07 32.6136 244.43 32.6136 245.114 32.6136C245.798 32.6136 246.158 32.6136 246.194 32.6136C246.572 32.5956 247.688 32.5596 249.524 32.5236C251.36 32.4876 252.422 32.4516 252.746 32.4336C253.106 32.4336 254.114 32.4156 255.752 32.3976C257.39 32.3976 258.308 32.3796 258.506 32.3796C258.758 32.3796 258.974 32.5416 259.136 32.9016C259.388 33.4416 259.442 33.9636 259.298 34.4676C259.244 34.6476 259.1 34.7916 258.866 34.8816C258.596 34.9896 257.66 35.0796 256.058 35.1156C254.438 35.1516 253.61 35.1876 253.538 35.1876L253.232 35.2416ZM249.596 23.8296C251.054 23.7396 251.864 23.6856 252.044 23.6676C252.35 23.6676 252.692 23.7756 253.052 23.9556C253.124 23.9916 253.196 24.0816 253.268 24.1896C253.322 24.2976 253.358 24.4056 253.358 24.4776C253.34 25.2336 253.448 25.8816 253.664 26.4576C253.754 26.7456 253.952 26.9256 254.24 26.9976C255.068 27.1956 256.13 27.4656 257.39 27.8256C257.606 27.8976 257.75 27.9696 257.84 28.0596C257.912 28.1676 257.912 28.3116 257.822 28.5096C257.75 28.6536 257.696 28.8336 257.66 29.0856C257.606 29.3376 257.57 29.4996 257.552 29.5716C257.444 29.9496 257.228 30.2196 256.94 30.3816C256.634 30.5436 256.238 30.6516 255.77 30.7056C255.698 30.7236 255.464 30.7596 255.104 30.8316C254.744 30.9036 254.456 30.9216 254.276 30.9216C253.988 30.9216 253.718 30.8316 253.43 30.6156C253.088 30.3636 252.782 30.0576 252.512 29.6976C252.098 29.1936 251.594 28.8336 250.982 28.5816C250.73 28.4736 250.46 28.4916 250.136 28.6176C249.524 28.8696 248.768 29.2116 247.904 29.6436C247.868 29.6616 247.814 29.6796 247.76 29.6976C247.508 29.8416 247.31 29.9316 247.166 29.9856C247.022 30.0576 246.824 30.1116 246.59 30.1656C246.338 30.2196 246.122 30.2376 245.906 30.2196C245.636 30.2016 245.456 30.1476 245.366 30.0756C245.258 30.0036 245.204 29.8596 245.168 29.6256C245.132 29.4096 245.078 29.2116 245.006 28.9956C244.718 28.2036 244.988 27.6096 245.834 27.2316C247.922 26.2956 249.002 25.7916 249.092 25.7556C249.308 25.6656 249.47 25.5396 249.542 25.3776C249.614 25.2156 249.668 25.0176 249.686 24.7656C249.686 24.7296 249.65 24.4236 249.596 23.8296ZM277.316 29.1756C277.298 29.9316 277.118 30.4536 276.776 30.7416C276.632 30.8496 276.452 30.9396 276.236 30.9756C276.02 31.0116 275.822 31.0296 275.66 31.0116H275.426L275.03 30.9036C274.778 30.8496 274.67 30.6876 274.67 30.4356C274.67 28.4196 274.67 27.0336 274.634 26.3136C274.58 25.5216 274.562 24.5496 274.562 23.3976C274.562 23.1636 274.634 22.9656 274.814 22.8036C274.976 22.6596 275.192 22.5696 275.444 22.5696L276.722 22.6956L276.902 22.8396C276.974 22.8936 277.064 23.0016 277.208 23.1636C277.334 23.3256 277.406 23.4876 277.406 23.6316V25.4136C277.388 25.4136 277.37 25.6296 277.37 26.0436C277.37 26.4756 277.352 27.0336 277.352 27.7176C277.334 28.4016 277.316 28.8876 277.316 29.1756ZM273.356 25.5756C273.698 25.6476 273.932 25.7376 274.058 25.8456C274.184 25.9536 274.256 26.1696 274.292 26.4576C274.292 26.6016 274.31 26.8176 274.31 27.1056V27.5916C274.31 27.8976 274.112 28.1136 273.698 28.2576C273.41 28.3656 273.068 28.4376 272.672 28.4916C272.204 28.5636 271.934 28.4016 271.862 28.0056C271.682 27.2496 271.79 26.4936 272.222 25.7376C272.258 25.7016 272.312 25.6656 272.384 25.6296C272.456 25.6116 272.582 25.5936 272.744 25.5756C272.888 25.5576 272.996 25.5396 273.032 25.5216C273.032 25.5216 273.14 25.5396 273.356 25.5756ZM266.426 25.1796C265.778 25.0356 264.968 25.0536 263.996 25.2336C263.024 25.4136 262.34 25.5036 261.98 25.4856C262.106 24.4056 262.196 23.6316 262.268 23.1636C263.222 23.0376 263.726 22.9656 263.798 22.9656C265.418 22.8756 266.462 22.8396 266.966 22.8576C267.218 22.8756 267.47 22.9116 267.722 22.9476C267.974 23.0016 268.298 23.0736 268.694 23.1636C269.072 23.2716 269.324 23.3256 269.468 23.3436C269.9 23.4516 270.062 23.7576 269.918 24.2436C269.774 24.7296 269.666 25.0716 269.594 25.2876C269.522 25.5036 269.378 25.7736 269.198 26.1336C269.018 26.4936 268.802 26.7816 268.55 27.0156C268.478 27.0876 268.388 27.1776 268.28 27.2856C268.154 27.3936 268.064 27.4836 268.028 27.5196C267.992 27.5556 267.938 27.6096 267.902 27.6816C267.866 27.7536 267.848 27.8256 267.866 27.8616C267.884 27.9156 267.92 27.9696 267.992 28.0416C268.046 28.1136 268.136 28.1856 268.262 28.2576C268.334 28.3116 268.442 28.4196 268.622 28.5636C268.784 28.7076 268.892 28.8156 268.928 28.8696C269.09 29.1036 269.306 29.3376 269.558 29.5896C269.81 29.8416 270.008 30.0756 270.17 30.3096C270.458 30.7416 270.404 31.0656 269.972 31.2816C269.828 31.3716 269.63 31.4976 269.378 31.6776C269.126 31.8576 268.946 31.9656 268.856 32.0196C268.766 32.0916 268.694 32.1276 268.622 32.1456C268.55 32.1636 268.46 32.1636 268.37 32.1276C268.28 32.0916 268.226 32.0736 268.19 32.0556C268.154 32.0556 268.082 32.0016 267.956 31.9116C267.83 31.8396 267.758 31.7856 267.74 31.7676C267.65 31.7316 267.596 31.6956 267.578 31.6596C267.542 31.6236 267.524 31.6056 267.524 31.5876C267.524 31.5696 267.488 31.5156 267.434 31.4436C267.362 31.3716 267.272 31.2636 267.146 31.1376C267.092 31.1016 267.002 30.9936 266.858 30.7956C266.714 30.6156 266.57 30.4536 266.462 30.3456C266.102 29.9856 265.706 29.8236 265.274 29.8236C264.842 29.8236 264.32 30.0396 263.672 30.4716C263.312 30.7056 262.934 31.0116 262.538 31.3896C262.178 31.7136 261.962 31.6416 261.854 31.1916C261.62 30.2556 261.494 29.6796 261.458 29.4456C261.386 29.0496 261.44 28.6896 261.62 28.3836C261.8 28.0956 262.106 27.8796 262.52 27.7356C263.132 27.5556 263.708 27.3036 264.23 26.9436C264.734 26.5836 265.328 26.1156 266.012 25.5216C266.012 25.5216 266.156 25.4136 266.426 25.1796ZM271.502 37.0236C271.79 37.0236 272.042 36.9156 272.258 36.6636C272.474 36.4296 272.582 36.1416 272.582 35.7816C272.582 35.2776 272.294 34.9716 271.754 34.8456C271.16 34.7376 269.99 34.6656 268.244 34.6656H268.226C268.046 34.6656 267.902 34.7016 267.776 34.7556C267.65 34.8276 267.542 34.9176 267.47 35.0436C267.398 35.1696 267.344 35.2776 267.308 35.3676C267.272 35.4756 267.236 35.6016 267.2 35.7816C267.164 35.8716 267.164 35.9436 267.164 36.0156C267.164 36.2136 267.218 36.3756 267.362 36.4836C267.506 36.6096 267.668 36.6816 267.884 36.7176C268.082 36.7716 268.352 36.8076 268.712 36.8436C269.054 36.8796 269.36 36.9156 269.63 36.9156C269.882 36.9336 270.224 36.9516 270.638 36.9696C271.052 37.0056 271.322 37.0236 271.448 37.0236H271.502ZM268.856 32.8296C269.54 32.8296 270.368 32.9016 271.304 33.0096C272.24 33.1176 273.032 33.2616 273.68 33.4416C274.778 33.7656 275.39 34.3416 275.516 35.1696C275.552 35.3856 275.57 35.5836 275.57 35.7636C275.57 36.5736 275.246 37.2216 274.616 37.6896C274.184 38.0136 273.824 38.2836 273.536 38.4636C273.248 38.6436 272.906 38.8236 272.474 38.9856C272.042 39.1656 271.61 39.2556 271.178 39.2556C270.998 39.2556 270.566 39.2916 269.864 39.3276C269.162 39.3636 268.694 39.3816 268.46 39.3816C268.118 39.3816 267.812 39.3636 267.56 39.3096C267.488 39.3096 267.416 39.3096 267.308 39.2736C266.804 39.2016 266.408 39.1296 266.156 39.0756C265.886 39.0216 265.562 38.9136 265.184 38.7336C264.806 38.5716 264.482 38.3556 264.23 38.0856C263.744 37.6176 263.51 37.1856 263.51 36.7716C263.51 35.9436 263.618 35.3136 263.87 34.8996C264.536 33.7836 265.922 33.0996 268.01 32.8836C268.28 32.8476 268.568 32.8296 268.856 32.8296ZM292.076 38.4096C291.5 38.4096 291.104 38.3196 290.888 38.1036C290.672 37.8876 290.564 37.4916 290.528 36.8976C290.438 35.2236 290.402 34.0716 290.402 33.4416C290.402 32.5596 290.456 29.7696 290.582 25.0896C290.582 24.9636 290.6 24.8196 290.636 24.6756C290.654 24.5316 290.672 24.4056 290.708 24.2976C290.726 24.1896 290.762 24.0636 290.816 23.8836C290.852 23.7036 290.888 23.5776 290.924 23.4696C290.96 23.3256 291.032 23.2176 291.158 23.1816C291.194 23.1816 291.32 23.1456 291.518 23.0916C291.716 23.0376 291.86 23.0016 291.932 22.9836C292.004 22.9656 292.112 22.9476 292.292 22.9116C292.454 22.8756 292.58 22.8756 292.688 22.8756C292.796 22.8756 292.922 22.8936 293.066 22.9296C293.21 22.9656 293.336 23.0016 293.48 23.0556C293.822 23.2356 294.02 23.5596 294.056 24.0276C294.056 24.2436 294.074 24.9636 294.092 26.2056C294.092 27.4476 294.128 28.2216 294.164 28.5276C294.2 28.7436 294.326 28.9776 294.542 29.2116C294.65 29.3376 294.758 29.4636 294.884 29.5896C295.01 29.7336 295.154 29.8776 295.316 30.0216C295.46 30.1836 295.586 30.3096 295.694 30.3816C295.838 30.5256 295.928 30.6876 296 30.8496C296.072 31.0296 296.09 31.2276 296.072 31.4436C296.054 31.6596 296.036 31.8216 296.018 31.9296C295.982 32.0376 295.946 32.2356 295.874 32.4876C295.766 32.9196 295.388 33.1536 294.74 33.1536C294.398 33.1536 294.182 33.2076 294.11 33.2976C294.02 33.4056 293.984 33.6396 294.002 34.0356C294.002 34.3056 294.002 34.7916 294.02 35.4756C294.038 36.1596 294.056 36.6276 294.056 36.8616C294.056 37.3476 293.93 37.6716 293.642 37.8336C292.922 38.2296 292.4 38.4276 292.076 38.4096ZM281.528 31.3176C281.384 31.2996 281.186 31.2636 280.97 31.2276C280.754 31.1916 280.556 31.1556 280.394 31.1196C280.214 31.0836 280.07 31.0656 279.926 31.0296C279.602 30.9936 279.44 30.8496 279.422 30.5976C279.35 29.9496 279.26 29.1756 279.152 28.2396C279.296 28.2396 279.494 28.2036 279.746 28.1676C279.998 28.1316 280.196 28.1136 280.358 28.0776C280.52 28.0596 280.7 28.0416 280.916 28.0416C281.132 28.0416 281.33 28.0596 281.51 28.0956C281.69 28.1316 281.816 28.1316 281.924 28.1316C282.014 28.1316 282.158 28.1316 282.338 28.0956C282.518 28.0776 282.662 28.0596 282.77 28.0596C282.878 28.0596 283.076 28.0596 283.346 28.0596C283.616 28.0596 283.832 28.0416 283.976 28.0416C284.12 28.0416 284.606 28.0056 285.452 27.9516C286.298 27.9156 286.946 27.8796 287.414 27.8616C287.954 27.8616 288.278 27.9156 288.404 28.0416C288.512 28.1856 288.548 28.5096 288.494 29.0496C288.422 29.6616 288.332 30.1656 288.206 30.5796C288.17 30.6336 288.134 30.6876 288.08 30.7236C288.008 30.7776 287.936 30.8316 287.828 30.8856C287.72 30.9396 287.648 30.9756 287.612 30.9936C287.666 31.2096 287.774 31.5516 287.954 32.0016C288.116 32.4516 288.242 32.8476 288.332 33.2076C288.404 33.5676 288.44 33.9276 288.404 34.2876C288.296 35.6376 287.738 36.6456 286.766 37.3116C286.37 37.5996 285.884 37.6896 285.272 37.6176C284.516 37.5456 283.328 37.3296 281.744 36.9876C280.736 36.7896 280.178 36.1416 280.052 35.0616C279.872 33.6756 280.232 32.5596 281.15 31.7316C281.15 31.7316 281.276 31.5876 281.528 31.3176ZM284.192 35.3496C285.164 35.3496 285.794 34.9716 286.064 34.2156C286.136 33.9816 286.118 33.7116 286.01 33.3876C285.902 33.0816 285.74 32.9196 285.56 32.9016C284.786 32.8116 284.21 32.7756 283.814 32.8116C283.364 32.8476 283.022 33.0096 282.806 33.2616C282.59 33.5136 282.482 33.8736 282.518 34.3056C282.518 34.6476 282.608 34.8456 282.752 34.8996C282.896 34.9716 283.364 35.1156 284.192 35.3496ZM285.956 26.7996C284.84 27.2676 283.76 27.3756 282.752 27.1416C282.14 26.9976 281.636 26.7816 281.204 26.4936C281.132 26.4576 281.096 26.3856 281.06 26.2776C281.024 26.1876 280.988 26.0616 280.97 25.8996C280.934 25.7376 280.916 25.6296 280.916 25.5576C280.844 25.3056 280.79 25.1436 280.79 25.0356C280.736 24.9276 280.718 24.8376 280.754 24.7656C280.79 24.6936 280.88 24.6576 281.06 24.6576C281.204 24.6576 281.402 24.6036 281.69 24.5316C281.96 24.4596 282.158 24.4236 282.266 24.4056C283.598 24.2616 284.57 24.1896 285.182 24.1716C285.29 24.1716 285.398 24.2076 285.47 24.2796C285.542 24.3516 285.596 24.4236 285.614 24.4776C285.632 24.5496 285.65 24.6576 285.686 24.8016C285.722 24.9456 285.74 25.0356 285.74 25.0536C285.776 25.2336 285.794 25.3956 285.83 25.5756C285.848 25.7556 285.866 25.9896 285.884 26.2416C285.902 26.4936 285.92 26.6916 285.956 26.7996ZM313.082 23.6316C313.082 23.6496 313.082 23.6676 313.118 23.6676C313.154 23.7036 313.226 23.7216 313.334 23.7576C313.442 23.7936 313.532 23.8116 313.604 23.8476C313.676 23.8836 313.712 23.9196 313.73 23.9556C313.82 24.2976 313.856 24.6936 313.838 25.1256C313.82 25.2696 313.73 26.2236 313.586 27.9876C313.46 29.3196 313.352 30.6516 313.244 31.9836C313.118 33.2796 313.046 34.0536 313.046 34.3056C313.01 34.5216 312.992 34.8096 312.974 35.1876C312.956 35.5656 312.938 35.9076 312.92 36.2136C312.884 36.5196 312.866 36.8076 312.83 37.0776C312.794 37.3296 312.614 37.6896 312.326 38.1756C312.254 38.3016 312.092 38.3556 311.84 38.3556C311.786 38.3736 311.264 38.3736 310.256 38.3736C310.076 38.3736 309.932 38.3376 309.824 38.2296C309.716 38.1216 309.644 37.9956 309.644 37.8156L309.518 35.9256C309.518 35.8896 309.5 35.7636 309.482 35.5476C309.446 35.3316 309.446 35.1696 309.464 35.0616C309.5 34.5396 309.572 34.0176 309.68 33.4956C309.734 33.1536 309.716 32.9196 309.608 32.8116C309.5 32.7036 309.284 32.6856 308.96 32.7576C308.456 32.8656 308.042 32.7396 307.718 32.4156C307.376 32.0916 307.25 31.6956 307.34 31.1916C307.412 30.7236 307.61 30.3456 307.934 30.0576C308.24 29.7876 308.636 29.6256 309.14 29.5896C309.374 29.5896 309.59 29.4996 309.77 29.3376C309.95 29.1756 310.058 28.9776 310.076 28.7616C310.094 28.4016 310.13 27.8436 310.202 27.0516C310.256 26.2776 310.292 25.6836 310.328 25.2696C310.346 25.0896 310.4 24.7656 310.508 24.3336C310.598 23.9376 310.85 23.7576 311.264 23.7576C311.732 23.7756 312.182 23.7756 312.596 23.7756C312.596 23.7756 312.758 23.7396 313.082 23.6316ZM301.598 32.4876C301.598 32.5236 301.58 32.6676 301.58 32.9196C301.58 33.1716 301.562 33.3516 301.562 33.4416C302.714 33.3156 304.028 33.3516 305.486 33.5676C305.666 33.6036 305.81 33.6936 305.9 33.8196C305.972 33.9636 306.008 34.1256 305.99 34.3416C305.972 34.5576 305.936 34.7556 305.9 34.9176C305.864 35.0976 305.792 35.3136 305.72 35.5656C305.63 35.8176 305.576 35.9976 305.576 36.0696C305.468 36.4116 305.198 36.6276 304.802 36.7356C304.694 36.7716 304.424 36.8436 303.974 36.9696C303.524 37.0956 303.218 37.1676 303.074 37.2036C302.93 37.2396 302.66 37.2756 302.282 37.3476C301.886 37.4196 301.58 37.4736 301.364 37.4736C301.148 37.4736 300.878 37.4736 300.572 37.4376C300.248 37.4016 299.96 37.3476 299.69 37.2576C299.546 37.2216 299.294 37.1136 298.898 36.9696C298.502 36.8256 298.214 36.7176 297.998 36.6096C297.638 36.4656 297.458 36.1236 297.494 35.6016C297.494 35.0976 297.566 34.4316 297.692 33.6036C297.8 32.7756 297.872 32.1096 297.89 31.5876C297.854 30.4356 298.178 29.8416 298.88 29.8416C299.186 29.8416 299.618 29.8596 300.158 29.9136C300.698 29.9676 301.184 29.9856 301.634 29.9676C302.066 29.9496 302.48 29.8596 302.876 29.6976C302.876 29.6976 302.876 29.5536 302.84 29.2836C302.804 29.0316 302.768 28.7616 302.732 28.4736C302.696 28.1856 302.678 28.0416 302.678 28.0236C302.678 28.0056 302.66 27.9696 302.624 27.9336C302.588 27.8976 302.552 27.8616 302.534 27.8616C301.634 27.6816 301.058 27.5916 300.842 27.5736C300.698 27.5736 300.482 27.5736 300.23 27.6096C299.978 27.6456 299.798 27.6636 299.69 27.6636C299.168 27.6636 298.502 27.6456 297.692 27.6096C297.62 27.6096 297.548 27.5916 297.512 27.5556C297.458 27.5196 297.422 27.4836 297.386 27.4116C297.35 27.3396 297.332 27.2856 297.332 27.2316C297.332 27.1956 297.314 27.1236 297.314 27.0336C297.296 26.9436 297.296 26.8716 297.296 26.8356C297.26 26.7096 297.242 26.5836 297.242 26.4756C297.242 26.3676 297.242 26.2416 297.278 26.1336C297.296 26.0256 297.314 25.9536 297.332 25.8816C297.332 25.8096 297.368 25.7196 297.422 25.5936C297.458 25.4856 297.494 25.3956 297.53 25.3416C297.548 25.3056 297.602 25.1976 297.692 25.0536C297.764 24.9096 297.818 24.8196 297.854 24.7476C297.89 24.6936 298.052 24.6396 298.358 24.5856C299.654 24.3696 300.446 24.2616 300.734 24.2256C300.932 24.2256 301.22 24.2436 301.598 24.2976C301.958 24.3516 302.21 24.3696 302.354 24.3696C302.534 24.3876 302.786 24.3876 303.146 24.3696C303.506 24.3516 303.776 24.3516 303.956 24.3516C304.334 24.3696 304.712 24.4596 305.108 24.6036C305.486 24.7476 305.828 24.9816 306.116 25.3056C306.404 25.6296 306.53 25.9896 306.53 26.4036C306.512 26.7636 306.53 27.4296 306.584 28.3656C306.62 29.3016 306.638 29.9676 306.638 30.3276C306.638 30.4896 306.62 30.6336 306.584 30.7416C306.548 30.8676 306.53 30.9576 306.512 31.0116C306.476 31.0656 306.44 31.1556 306.368 31.2816C306.296 31.4256 306.224 31.5336 306.188 31.6056C306.116 31.7496 305.972 31.8756 305.774 31.9476C304.694 32.3796 303.812 32.5236 303.128 32.3796C302.894 32.3616 302.732 32.3616 302.624 32.3616C302.516 32.3616 302.354 32.3976 302.12 32.4336C301.868 32.4696 301.706 32.4876 301.598 32.4876ZM335.284 38.4096C334.708 38.4096 334.312 38.3196 334.096 38.1036C333.88 37.8876 333.772 37.4916 333.736 36.8976C333.646 35.2236 333.61 34.0716 333.61 33.4416C333.61 32.5596 333.664 29.7696 333.79 25.0896C333.79 24.9636 333.808 24.8196 333.844 24.6756C333.862 24.5316 333.88 24.4056 333.916 24.2976C333.934 24.1896 333.97 24.0636 334.024 23.8836C334.06 23.7036 334.096 23.5776 334.132 23.4696C334.168 23.3256 334.24 23.2176 334.366 23.1816C334.402 23.1816 334.528 23.1456 334.726 23.0916C334.924 23.0376 335.068 23.0016 335.14 22.9836C335.212 22.9656 335.32 22.9476 335.5 22.9116C335.662 22.8756 335.788 22.8756 335.896 22.8756C336.004 22.8756 336.13 22.8936 336.274 22.9296C336.418 22.9656 336.544 23.0016 336.688 23.0556C337.03 23.2356 337.228 23.5596 337.264 24.0276C337.264 24.2436 337.282 24.9636 337.3 26.2056C337.3 27.4476 337.336 28.2216 337.372 28.5276C337.408 28.7436 337.534 28.9776 337.75 29.2116C337.858 29.3376 337.966 29.4636 338.092 29.5896C338.218 29.7336 338.362 29.8776 338.524 30.0216C338.668 30.1836 338.794 30.3096 338.902 30.3816C339.046 30.5256 339.136 30.6876 339.208 30.8496C339.28 31.0296 339.298 31.2276 339.28 31.4436C339.262 31.6596 339.244 31.8216 339.226 31.9296C339.19 32.0376 339.154 32.2356 339.082 32.4876C338.974 32.9196 338.596 33.1536 337.948 33.1536C337.606 33.1536 337.39 33.2076 337.318 33.2976C337.228 33.4056 337.192 33.6396 337.21 34.0356C337.21 34.3056 337.21 34.7916 337.228 35.4756C337.246 36.1596 337.264 36.6276 337.264 36.8616C337.264 37.3476 337.138 37.6716 336.85 37.8336C336.13 38.2296 335.608 38.4276 335.284 38.4096ZM322.666 25.7016C322.792 25.4856 322.99 25.3416 323.242 25.2876C324.718 25.0176 325.852 24.8196 326.644 24.7116C327.832 24.5496 328.93 24.5316 329.956 24.6756C329.974 24.6756 330.028 24.6936 330.136 24.6936C330.226 24.7116 330.298 24.7296 330.334 24.7296C330.37 24.7296 330.442 24.7476 330.514 24.7656C330.586 24.7836 330.64 24.8016 330.694 24.8376C330.748 24.8736 330.802 24.9276 330.856 24.9636C330.946 25.0536 331.036 25.2336 331.144 25.5036C331.594 26.7996 331.792 28.2396 331.72 29.8596C331.684 30.4536 331.594 31.3176 331.45 32.4696C331.414 32.7216 331.378 33.2616 331.324 34.1256C331.27 34.9896 331.18 35.6376 331.072 36.0876C330.946 36.5916 330.784 36.9156 330.604 37.0956C330.46 37.2396 330.028 37.3476 329.344 37.3836C328.66 37.4376 328.03 37.4376 327.49 37.4016C327.202 37.4016 327.058 37.3116 327.022 37.1316C326.986 37.0596 326.986 36.9876 327.022 36.8796C327.04 36.7716 327.076 36.6636 327.112 36.5376C327.148 36.4296 327.166 36.3396 327.166 36.2856C327.22 35.9616 327.274 35.6376 327.31 35.2956C327.382 34.7016 327.418 34.0536 327.454 33.3516C327.472 32.4876 327.454 31.2096 327.4 29.4996C327.382 29.2476 327.346 29.0676 327.292 28.9596C327.13 28.6716 326.752 28.5996 326.176 28.7256C325.51 28.8876 324.322 28.9416 322.612 28.8696C322.522 28.8696 322.468 28.8516 322.432 28.8156C322.378 28.7796 322.36 28.6716 322.378 28.5276C322.486 26.7996 322.576 25.8456 322.666 25.7016ZM352.096 22.9296C352.78 22.8936 353.158 22.8756 353.194 22.8756C353.59 22.8936 353.968 22.9296 354.364 22.9836C354.76 23.0376 355.102 23.0736 355.408 23.0916C355.75 23.1276 355.93 23.3256 355.948 23.6676C355.948 24.0996 355.984 24.7656 356.038 25.6476C356.092 26.5476 356.128 27.2136 356.146 27.6636C356.164 28.0056 356.164 28.6176 356.164 29.4816C356.164 30.3636 356.164 30.9756 356.164 31.2996C356.164 31.7856 356.164 32.7756 356.164 34.2876C356.164 35.7996 356.164 36.8076 356.164 37.2936V37.3296C356.164 37.5816 356.128 37.8336 356.056 38.0496C355.894 38.4996 355.606 38.7156 355.192 38.6976C354.994 38.6976 354.76 38.7156 354.508 38.7156C354.256 38.7156 354.04 38.7156 353.86 38.6796C353.716 38.6796 353.554 38.6256 353.41 38.5356C353.248 38.4636 353.14 38.3556 353.104 38.2476C352.744 37.3836 352.564 36.7176 352.546 36.2496C352.492 35.2056 352.456 33.4236 352.438 30.9396C352.42 28.4556 352.402 26.7636 352.366 25.8456C352.366 25.5576 352.348 25.2696 352.312 24.9456C352.276 24.6216 352.24 24.2616 352.204 23.8476L352.096 22.9296ZM340.666 25.7016C340.792 25.4856 340.99 25.3416 341.242 25.2876C342.718 25.0176 343.852 24.8196 344.644 24.7116C345.832 24.5496 346.93 24.5316 347.956 24.6756C347.974 24.6756 348.028 24.6936 348.136 24.6936C348.226 24.7116 348.298 24.7296 348.334 24.7296C348.37 24.7296 348.442 24.7476 348.514 24.7656C348.586 24.7836 348.64 24.8016 348.694 24.8376C348.748 24.8736 348.802 24.9276 348.856 24.9636C348.946 25.0536 349.036 25.2336 349.144 25.5036C349.594 26.7996 349.792 28.2396 349.72 29.8596C349.684 30.4536 349.594 31.3176 349.45 32.4696C349.414 32.7216 349.378 33.2616 349.324 34.1256C349.27 34.9896 349.18 35.6376 349.072 36.0876C348.946 36.5916 348.784 36.9156 348.604 37.0956C348.46 37.2396 348.028 37.3476 347.344 37.3836C346.66 37.4376 346.03 37.4376 345.49 37.4016C345.202 37.4016 345.058 37.3116 345.022 37.1316C344.986 37.0596 344.986 36.9876 345.022 36.8796C345.04 36.7716 345.076 36.6636 345.112 36.5376C345.148 36.4296 345.166 36.3396 345.166 36.2856C345.22 35.9616 345.274 35.6376 345.31 35.2956C345.382 34.7016 345.418 34.0536 345.454 33.3516C345.472 32.4876 345.454 31.2096 345.4 29.4996C345.382 29.2476 345.346 29.0676 345.292 28.9596C345.13 28.6716 344.752 28.5996 344.176 28.7256C343.51 28.8876 342.322 28.9416 340.612 28.8696C340.522 28.8696 340.468 28.8516 340.432 28.8156C340.378 28.7796 340.36 28.6716 340.378 28.5276C340.486 26.7996 340.576 25.8456 340.666 25.7016Z" fill="white"/>
</svg>
