<svg width="312" height="58" viewBox="0 0 312 58" fill="none" xmlns="http://www.w3.org/2000/svg">
<rect width="312" height="58" rx="16" fill="#99C08E"/>
<path d="M84.749 34.302C84.731 34.446 84.731 34.644 84.767 34.86C84.803 35.094 84.803 35.31 84.803 35.508C84.803 35.706 84.749 35.886 84.677 36.048C84.533 36.318 84.389 36.48 84.209 36.516C83.993 36.57 83.741 36.624 83.417 36.66C83.093 36.714 82.805 36.75 82.571 36.768C82.337 36.786 82.229 36.786 82.229 36.768H72.725C72.401 36.786 71.915 36.804 71.267 36.822C70.619 36.84 70.133 36.84 69.809 36.84C69.449 36.858 69.107 36.786 68.783 36.624L68.549 35.238L68.783 34.554C68.855 34.338 68.999 34.23 69.215 34.212L70.655 34.068C72.095 34.068 73.643 34.032 75.281 33.996C75.137 33.852 75.065 33.69 75.065 33.546C75.029 33.33 75.011 33.024 75.011 32.628C74.993 32.232 74.975 31.944 74.975 31.8C74.975 31.656 74.993 31.548 75.047 31.476C75.083 31.404 75.191 31.368 75.353 31.368C75.533 31.386 75.875 31.386 76.343 31.386C76.811 31.386 77.135 31.368 77.333 31.368C77.711 31.386 77.963 31.476 78.107 31.656C78.251 31.836 78.359 32.178 78.449 32.682C78.503 33.06 78.413 33.474 78.179 33.942C80.123 33.906 81.401 33.87 81.977 33.834C82.679 33.816 83.237 33.816 83.633 33.852C83.741 33.852 84.065 33.96 84.605 34.14C84.623 34.158 84.659 34.176 84.695 34.212C84.731 34.248 84.749 34.284 84.749 34.302ZM76.559 21.234C77.927 21.324 78.665 21.378 78.755 21.378C80.807 21.594 82.409 22.512 83.543 24.096C83.687 24.312 83.795 24.654 83.849 25.086C83.939 25.878 83.813 26.814 83.453 27.876C83.057 29.028 82.265 29.73 81.113 30C80.267 30.198 79.367 30.288 78.395 30.288C78.125 30.288 77.621 30.306 76.883 30.342C76.145 30.378 75.587 30.396 75.191 30.36C73.697 30.288 72.419 29.982 71.375 29.478C70.763 29.19 70.313 28.794 70.043 28.272C69.755 27.768 69.647 27.174 69.719 26.49C69.827 25.338 70.349 24.24 71.303 23.178C71.735 22.692 72.257 22.314 72.833 22.044C73.409 21.774 74.093 21.558 74.885 21.378C75.047 21.342 75.227 21.324 75.425 21.306C75.605 21.288 75.821 21.27 76.055 21.27C76.289 21.27 76.451 21.252 76.559 21.234ZM76.649 27.948C77.639 27.876 78.179 27.822 78.251 27.804C78.557 27.768 78.863 27.624 79.187 27.372C79.493 27.12 79.655 26.868 79.691 26.616C79.763 26.04 79.691 25.554 79.493 25.176C79.295 24.798 78.917 24.528 78.341 24.366C77.117 24.042 76.019 24.006 75.047 24.294C75.011 24.312 74.957 24.33 74.885 24.348C74.813 24.366 74.759 24.384 74.723 24.384C74.687 24.402 74.633 24.42 74.561 24.438C74.489 24.474 74.453 24.492 74.417 24.51C74.381 24.546 74.327 24.564 74.291 24.6C74.255 24.636 74.219 24.654 74.201 24.69C73.931 25.068 73.643 25.608 73.337 26.31C73.103 26.85 73.265 27.21 73.841 27.408C74.255 27.552 74.561 27.66 74.777 27.732C74.975 27.804 75.263 27.858 75.623 27.912C75.983 27.984 76.325 27.984 76.649 27.948ZM95.243 29.55C93.767 29.622 92.975 29.64 92.831 29.64C89.915 29.64 88.277 29.604 87.881 29.496C87.521 29.406 87.323 29.226 87.269 28.974C87.215 28.722 87.251 28.344 87.395 27.84C87.449 27.768 87.485 27.678 87.503 27.552C87.521 27.426 87.575 27.318 87.665 27.246C87.701 27.21 87.791 27.174 87.917 27.174H90.941H93.965C94.055 27.174 94.289 27.192 94.685 27.228C95.081 27.264 95.297 27.3 95.351 27.3C95.459 27.3 96.449 27.318 98.285 27.354C100.121 27.39 101.183 27.408 101.471 27.444C101.525 27.444 101.597 27.498 101.669 27.57C101.741 27.642 101.795 27.714 101.813 27.786C101.885 28.254 101.885 28.614 101.813 28.848C101.705 29.244 101.363 29.46 100.787 29.496C100.607 29.514 99.671 29.532 97.997 29.55C96.305 29.568 95.387 29.568 95.243 29.568V29.55ZM92.381 21.396C92.381 21.126 92.291 20.928 92.111 20.802C91.913 20.694 91.589 20.64 91.157 20.64C91.013 20.64 90.833 20.658 90.581 20.694C90.329 20.73 90.167 20.766 90.059 20.766C89.699 20.784 89.465 20.838 89.375 20.91C89.267 20.982 89.231 21.162 89.249 21.414C89.249 21.846 89.285 22.314 89.321 22.782C89.357 23.268 89.393 23.646 89.429 23.934C89.429 24.186 89.501 24.51 89.609 24.906C89.609 24.942 89.645 24.978 89.717 25.014C89.771 25.05 89.825 25.086 89.879 25.086C90.005 25.104 90.275 25.14 90.707 25.176C91.139 25.212 91.463 25.266 91.697 25.302C92.111 25.374 92.615 25.428 93.209 25.464C93.803 25.5 94.469 25.536 95.189 25.554C95.909 25.572 96.431 25.59 96.737 25.608C97.061 25.626 97.529 25.608 98.141 25.572C98.753 25.536 99.149 25.5 99.365 25.5C99.545 25.5 99.689 25.464 99.779 25.392C99.869 25.338 99.923 25.23 99.959 25.086C100.067 24.564 100.157 24.132 100.247 23.772C100.355 23.322 100.157 23.088 99.653 23.052C98.735 23.016 97.421 22.962 95.693 22.908H92.381C92.399 22.908 92.399 22.71 92.399 22.278C92.381 21.846 92.381 21.558 92.381 21.396ZM90.023 33.078C89.987 33.078 89.897 33.096 89.753 33.096C89.609 33.114 89.501 33.114 89.447 33.114C89.375 33.114 89.303 33.114 89.195 33.096C89.087 33.078 88.997 33.042 88.961 33.006C88.907 32.97 88.853 32.898 88.799 32.826C88.745 32.754 88.709 32.646 88.709 32.52C88.691 32.448 88.673 32.34 88.637 32.16C88.601 31.98 88.583 31.836 88.583 31.71C88.583 31.548 88.601 31.386 88.655 31.206C88.655 31.134 88.709 31.062 88.817 30.99C88.925 30.918 89.033 30.864 89.159 30.864C94.019 30.864 97.403 30.9 99.347 31.008C99.743 31.044 100.049 31.08 100.283 31.152C100.553 31.242 100.715 31.368 100.769 31.512C100.823 31.728 100.859 31.962 100.859 32.196C100.859 32.466 100.805 32.79 100.733 33.168C100.589 33.798 100.229 34.248 99.635 34.5C99.311 34.644 98.717 34.752 97.871 34.824C97.565 34.86 97.133 34.878 96.557 34.878C95.981 34.896 95.585 34.914 95.351 34.914C95.315 34.914 94.667 34.932 93.425 34.95C92.165 34.968 91.481 34.986 91.355 35.022L91.373 35.454C91.589 35.454 92.399 35.454 93.803 35.436C95.207 35.418 96.035 35.4 96.251 35.4C96.737 35.4 97.169 35.4 97.547 35.382C97.799 35.382 98.195 35.364 98.717 35.328C99.221 35.292 99.599 35.274 99.851 35.274H99.887C100.211 35.274 100.391 35.382 100.391 35.598V35.688C100.283 36.192 100.193 36.588 100.121 36.84C100.031 37.092 99.887 37.272 99.689 37.38C99.491 37.488 99.167 37.524 98.699 37.524H98.483C98.015 37.524 97.349 37.488 96.503 37.434C95.657 37.38 95.063 37.344 94.721 37.326C94.181 37.308 93.713 37.308 93.299 37.326C92.885 37.344 92.417 37.344 91.913 37.326C91.409 37.308 90.959 37.254 90.563 37.182C90.023 37.074 89.645 36.894 89.429 36.642C89.213 36.39 89.087 36.066 89.015 35.634C88.997 35.562 88.997 35.364 88.997 35.058C88.997 35.04 88.997 34.914 89.015 34.68C89.015 34.338 89.123 34.104 89.303 33.96C89.483 33.834 89.789 33.762 90.257 33.744C91.985 33.708 94.271 33.636 97.133 33.528C97.493 33.528 97.673 33.402 97.673 33.186L97.655 33.096C97.655 33.042 97.655 32.988 97.655 32.934V32.826C97.655 32.808 97.565 32.79 97.385 32.79C97.205 32.79 96.881 32.79 96.413 32.808C95.945 32.826 95.459 32.844 94.937 32.862C94.415 32.898 93.677 32.934 92.741 32.97C91.805 33.006 90.887 33.042 90.023 33.078ZM116.627 34.374C114.791 34.626 113.801 34.752 113.675 34.77C112.955 34.878 111.605 34.968 109.625 35.022C107.645 35.094 106.295 35.058 105.557 34.95C105.485 34.95 105.395 34.896 105.323 34.824C105.251 34.752 105.215 34.698 105.215 34.626C105.161 33.942 105.161 33.366 105.215 32.934C105.233 32.646 105.359 32.286 105.593 31.872C106.367 31.656 106.907 31.548 107.213 31.512C107.429 31.476 108.455 31.494 110.291 31.566C112.127 31.638 113.153 31.656 113.333 31.656C113.549 31.656 113.891 31.638 114.359 31.638C114.809 31.638 115.151 31.62 115.385 31.602L116.681 31.476C116.753 29.442 116.807 28.308 116.825 28.092L117.113 21.378C117.149 21.342 117.203 21.288 117.293 21.216C117.365 21.162 117.563 21.072 117.851 20.964C118.139 20.856 118.427 20.802 118.751 20.766C118.895 20.766 119.093 20.766 119.345 20.802C119.579 20.838 119.777 20.874 119.957 20.91L120.209 20.964C120.245 21.018 120.317 21.072 120.389 21.144C120.461 21.216 120.551 21.342 120.659 21.54C120.767 21.738 120.785 21.918 120.749 22.08C120.569 22.584 120.443 24.276 120.371 27.138C120.281 30 120.227 31.512 120.209 31.692C120.191 31.836 120.191 32.124 120.191 32.556C120.191 32.988 120.173 33.258 120.137 33.384C120.101 33.528 120.083 33.96 120.101 34.644C120.119 35.346 120.101 35.76 120.065 35.868C119.957 36.21 119.795 36.444 119.615 36.552C119.417 36.678 119.129 36.732 118.769 36.732C118.157 36.732 117.689 36.696 117.401 36.642C116.969 36.57 116.789 36.318 116.843 35.922C116.843 35.832 116.807 35.598 116.735 35.202C116.663 34.806 116.627 34.536 116.627 34.374ZM108.761 21.558C108.869 21.576 109.031 21.594 109.265 21.63C109.481 21.666 109.697 21.702 109.877 21.738C110.057 21.774 110.219 21.81 110.381 21.846C110.417 21.882 110.597 21.936 110.903 22.026C111.209 22.134 111.425 22.188 111.533 22.224C111.641 22.26 111.803 22.332 112.037 22.404C112.271 22.494 112.469 22.584 112.649 22.656C112.811 22.728 112.973 22.818 113.153 22.89C113.765 23.25 114.179 23.718 114.359 24.294C114.539 24.888 114.521 25.518 114.305 26.166C113.999 27.156 113.639 28.074 113.225 28.902C113.117 29.118 112.955 29.298 112.757 29.478C112.559 29.658 112.361 29.784 112.163 29.856C110.705 30.36 109.607 30.648 108.869 30.702C107.717 30.81 106.781 30.522 106.079 29.856C105.647 29.46 105.359 28.83 105.197 27.948C104.783 25.788 105.305 23.952 106.763 22.44C107.303 21.882 107.969 21.594 108.761 21.558ZM111.119 26.166C111.119 25.644 111.011 25.266 110.813 25.032C110.597 24.816 110.273 24.69 109.823 24.69C109.283 24.69 108.815 24.906 108.419 25.32C108.005 25.734 107.789 26.202 107.789 26.742C107.789 27.048 107.969 27.372 108.347 27.696C108.707 28.02 109.067 28.164 109.409 28.128C109.841 28.092 110.237 27.876 110.597 27.516C110.939 27.156 111.119 26.706 111.119 26.166ZM145.29 20.892C145.344 21.936 145.38 22.458 145.398 22.494C145.506 23.394 145.47 24.69 145.326 26.382C145.29 26.67 145.254 27.084 145.182 27.606C145.11 28.128 145.074 28.47 145.074 28.65C145.038 28.938 144.876 29.082 144.588 29.082C144.444 29.082 144.048 29.064 143.364 29.064C142.68 29.064 142.23 29.064 142.032 29.064C141.816 29.064 141.69 28.902 141.636 28.578C141.6 28.506 141.582 28.416 141.582 28.308C141.564 28.218 141.546 28.128 141.546 28.056C141.546 27.984 141.528 27.894 141.528 27.786C141.528 27.678 141.528 27.588 141.528 27.516C141.528 27.462 141.528 27.372 141.528 27.246C141.528 27.12 141.546 27.03 141.546 26.994C141.546 26.958 141.546 26.85 141.564 26.706C141.564 26.562 141.582 26.49 141.582 26.454C141.582 26.436 141.6 26.346 141.618 26.184C141.618 26.022 141.636 25.932 141.636 25.914C141.672 25.554 141.69 24.762 141.726 23.538V22.584V21.612C141.726 21.432 141.834 21.288 142.05 21.18C142.518 20.982 143.544 20.874 145.146 20.838C145.146 20.838 145.2 20.856 145.29 20.892ZM135.03 23.502C134.382 23.358 133.572 23.376 132.6 23.556C131.628 23.736 130.944 23.826 130.584 23.808C130.71 22.728 130.8 21.954 130.872 21.486C131.826 21.36 132.33 21.288 132.402 21.288C134.022 21.198 135.066 21.162 135.57 21.18C135.822 21.198 136.074 21.234 136.326 21.27C136.578 21.324 136.902 21.396 137.298 21.486C137.676 21.594 137.928 21.648 138.072 21.666C138.504 21.774 138.666 22.08 138.522 22.566C138.378 23.052 138.27 23.394 138.198 23.61C138.126 23.826 137.982 24.096 137.802 24.456C137.622 24.816 137.406 25.104 137.154 25.338C137.082 25.41 136.992 25.5 136.884 25.608C136.758 25.716 136.668 25.806 136.632 25.842C136.596 25.878 136.542 25.932 136.506 26.004C136.47 26.076 136.452 26.148 136.47 26.184C136.488 26.238 136.524 26.292 136.596 26.364C136.65 26.436 136.74 26.508 136.866 26.58C136.938 26.634 137.046 26.742 137.226 26.886C137.388 27.03 137.496 27.138 137.532 27.192C137.694 27.426 137.91 27.66 138.162 27.912C138.414 28.164 138.612 28.398 138.774 28.632C139.062 29.064 139.008 29.388 138.576 29.604C138.432 29.694 138.234 29.82 137.982 30C137.73 30.18 137.55 30.288 137.46 30.342C137.37 30.414 137.298 30.45 137.226 30.468C137.154 30.486 137.064 30.486 136.974 30.45C136.884 30.414 136.83 30.396 136.794 30.378C136.758 30.378 136.686 30.324 136.56 30.234C136.434 30.162 136.362 30.108 136.344 30.09C136.254 30.054 136.2 30.018 136.182 29.982C136.146 29.946 136.128 29.928 136.128 29.91C136.128 29.892 136.092 29.838 136.038 29.766C135.966 29.694 135.876 29.586 135.75 29.46C135.696 29.424 135.606 29.316 135.462 29.118C135.318 28.938 135.174 28.776 135.066 28.668C134.706 28.308 134.31 28.146 133.878 28.146C133.446 28.146 132.924 28.362 132.276 28.794C131.916 29.028 131.538 29.334 131.142 29.712C130.782 30.036 130.566 29.964 130.458 29.514C130.224 28.578 130.098 28.002 130.062 27.768C129.99 27.372 130.044 27.012 130.224 26.706C130.404 26.418 130.71 26.202 131.124 26.058C131.736 25.878 132.312 25.626 132.834 25.266C133.338 24.906 133.932 24.438 134.616 23.844C134.616 23.844 134.76 23.736 135.03 23.502ZM138.018 34.698C137.73 34.698 137.478 34.716 137.226 34.716C136.812 34.716 136.398 34.752 136.002 34.824C135.93 34.842 135.84 34.878 135.768 34.95C135.696 35.022 135.66 35.058 135.66 35.094C135.696 35.292 135.786 35.436 135.948 35.508C136.038 35.562 136.182 35.58 136.362 35.58C136.506 35.58 136.686 35.58 136.902 35.544C137.082 35.526 137.226 35.508 137.334 35.508C137.424 35.508 137.514 35.526 137.604 35.526C137.82 35.58 138.054 35.598 138.306 35.598C138.63 35.598 139.08 35.544 139.656 35.418C139.944 35.364 140.106 35.202 140.106 34.95C140.106 34.914 140.088 34.842 140.088 34.77L139.98 34.716H139.35C139.098 34.716 138.846 34.716 138.63 34.716C138.414 34.716 138.198 34.698 138.018 34.698ZM134.886 31.98V32.556V33.114H135.84H136.794C137.28 33.114 137.712 33.114 138.09 33.096C138.306 33.096 138.648 33.096 139.08 33.06C139.512 33.024 139.764 33.006 139.872 33.006C140.304 32.988 140.52 32.772 140.52 32.34V32.232V32.142C140.52 31.872 140.538 31.656 140.574 31.476C140.61 31.296 140.628 31.17 140.646 31.116C140.664 31.08 140.7 31.008 140.754 30.918C140.79 30.846 140.862 30.792 140.952 30.774C141.024 30.756 141.15 30.738 141.312 30.738C141.348 30.738 141.51 30.72 141.834 30.666C142.158 30.63 142.338 30.612 142.392 30.612C142.968 30.774 143.31 30.918 143.436 31.044C143.562 31.188 143.634 31.494 143.634 31.998C143.634 32.862 143.598 33.924 143.526 35.184C143.49 35.67 143.274 36.084 142.878 36.426C142.482 36.786 141.996 36.984 141.438 37.02C141.168 37.056 140.682 37.11 139.998 37.218C139.314 37.326 138.774 37.38 138.396 37.398C138.18 37.416 137.946 37.416 137.694 37.416C137.352 37.416 136.632 37.398 135.516 37.326C135.174 37.308 134.706 37.236 134.094 37.128C133.302 36.984 132.798 36.498 132.564 35.688C132.366 35.076 132.276 34.41 132.276 33.708C132.276 33.006 132.384 32.106 132.6 31.026C132.618 30.936 132.654 30.864 132.726 30.792C132.78 30.738 132.87 30.702 132.996 30.684C133.122 30.666 133.23 30.648 133.338 30.648C133.428 30.648 133.554 30.63 133.734 30.63H133.896C134.04 30.63 134.148 30.648 134.22 30.648C134.292 30.648 134.364 30.666 134.472 30.684C134.58 30.702 134.652 30.738 134.706 30.774C134.742 30.81 134.796 30.882 134.832 30.954C134.868 31.044 134.886 31.152 134.886 31.26V31.98ZM151.788 28.164C151.896 28.164 152.202 28.146 152.688 28.146H154.038H154.938C157.134 28.11 158.412 28.11 158.754 28.11C159.078 28.11 159.816 28.146 160.95 28.2C162.066 28.254 162.66 28.29 162.732 28.29C162.786 28.29 162.894 28.308 163.056 28.344C163.308 28.416 163.47 28.506 163.56 28.614C163.65 28.722 163.686 28.902 163.65 29.154C163.632 29.262 163.614 29.334 163.614 29.406C163.596 29.478 163.578 29.55 163.578 29.604C163.56 29.676 163.542 29.73 163.506 29.766C163.47 29.802 163.434 29.838 163.434 29.874C163.416 29.91 163.38 29.946 163.326 29.982C163.254 30.018 163.218 30.036 163.182 30.054C163.146 30.072 163.092 30.09 163.002 30.108C162.912 30.144 162.84 30.162 162.804 30.162C162.768 30.18 162.678 30.198 162.552 30.234C162.408 30.27 162.318 30.288 162.246 30.306C162.102 30.342 161.346 30.378 159.942 30.414C158.538 30.468 157.764 30.522 157.62 30.558C157.548 30.594 157.53 30.756 157.53 31.062C158.646 31.188 159.564 31.35 160.284 31.548C161.382 31.872 161.994 32.448 162.12 33.276C162.156 33.492 162.174 33.69 162.174 33.87C162.174 34.68 161.85 35.328 161.22 35.796C160.788 36.12 160.428 36.39 160.14 36.57C159.852 36.75 159.51 36.93 159.078 37.092C158.646 37.272 158.214 37.362 157.782 37.362C157.602 37.362 157.17 37.398 156.468 37.434C155.766 37.47 155.298 37.488 155.064 37.488C154.722 37.488 154.416 37.47 154.164 37.416C154.092 37.416 154.02 37.416 153.912 37.38C153.408 37.308 153.012 37.236 152.76 37.182C152.49 37.128 152.166 37.02 151.788 36.84C151.41 36.678 151.086 36.462 150.834 36.192C150.348 35.724 150.114 35.292 150.114 34.878C150.114 34.05 150.222 33.42 150.474 33.006C151.14 31.89 152.526 31.206 154.614 30.99L154.902 30.954C154.866 30.756 154.758 30.648 154.614 30.612C154.434 30.594 153.696 30.576 152.4 30.54C151.104 30.504 150.348 30.504 150.132 30.504C149.844 30.576 149.61 30.594 149.412 30.558C149.214 30.54 149.07 30.414 148.98 30.18C148.8 29.784 148.746 29.334 148.818 28.848C148.836 28.74 148.944 28.614 149.124 28.488C149.304 28.38 149.718 28.272 150.384 28.2C151.032 28.128 151.5 28.128 151.788 28.164ZM157.062 23.268H153.93C153.732 23.268 153.408 23.25 152.958 23.25C152.508 23.25 152.094 23.232 151.734 23.232C151.356 23.232 151.14 23.232 151.068 23.214C150.744 23.196 150.564 23.034 150.564 22.746C150.546 22.602 150.546 22.332 150.564 21.954C150.582 21.576 150.6 21.324 150.6 21.198C150.672 21.198 150.816 21.162 151.014 21.126C151.194 21.09 151.374 21.072 151.518 21.054C151.662 21.036 151.806 21.018 151.95 21.018C152.706 21.018 153.732 21.036 155.046 21.072C155.28 21.09 155.622 21.108 156.072 21.144C156.522 21.18 156.846 21.18 157.062 21.18C157.242 21.198 157.584 21.216 158.124 21.216C158.646 21.234 159.06 21.252 159.348 21.252C159.654 21.288 160.122 21.36 160.752 21.504C160.95 21.54 161.076 21.63 161.13 21.738C161.166 21.864 161.184 22.008 161.166 22.188C161.076 22.764 160.986 23.16 160.914 23.376C160.806 23.628 160.626 23.862 160.356 24.078C160.266 24.15 160.158 24.222 160.05 24.294C159.924 24.366 159.78 24.438 159.636 24.51C159.474 24.6 159.366 24.654 159.294 24.69C160.554 25.5 161.274 25.968 161.472 26.076C161.58 26.148 161.652 26.22 161.67 26.274C161.67 26.328 161.652 26.4 161.58 26.49C161.508 26.598 161.4 26.742 161.274 26.94C161.148 27.156 161.058 27.3 161.004 27.39C160.86 27.57 160.626 27.696 160.302 27.768C159.978 27.84 159.672 27.84 159.384 27.768C159.204 27.732 159.006 27.678 158.808 27.588C158.61 27.516 158.448 27.444 158.322 27.372C158.196 27.3 158.034 27.21 157.818 27.084C157.602 26.958 157.44 26.868 157.35 26.796C157.062 26.652 156.756 26.508 156.432 26.4C156.144 26.31 155.784 26.364 155.352 26.562C154.74 26.85 154.002 27.228 153.174 27.678C153.066 27.732 152.976 27.768 152.886 27.786C152.796 27.822 152.688 27.822 152.58 27.822C152.472 27.822 152.382 27.804 152.328 27.804C152.274 27.804 152.184 27.786 152.04 27.75C151.896 27.732 151.806 27.714 151.77 27.696C151.518 27.66 151.302 27.588 151.122 27.444C150.942 27.3 150.816 27.156 150.744 26.976C150.672 26.814 150.618 26.652 150.582 26.49C150.546 26.346 150.546 26.202 150.546 26.094V25.932C151.41 25.662 152.004 25.464 152.328 25.356C152.544 25.284 152.904 25.176 153.372 25.032C153.84 24.888 154.2 24.78 154.434 24.69C154.686 24.618 155.028 24.492 155.478 24.312C155.928 24.132 156.198 24.042 156.27 24.006C156.558 23.898 156.81 23.664 157.062 23.268ZM158.106 35.13C158.394 35.13 158.646 35.022 158.862 34.77C159.078 34.536 159.186 34.248 159.186 33.888C159.186 33.384 158.898 33.078 158.358 32.952C157.764 32.844 156.594 32.772 154.848 32.772H154.83C154.65 32.772 154.506 32.808 154.38 32.862C154.254 32.934 154.146 33.024 154.074 33.15C154.002 33.276 153.948 33.384 153.912 33.474C153.876 33.582 153.84 33.708 153.804 33.888C153.768 33.978 153.768 34.05 153.768 34.122C153.768 34.32 153.822 34.482 153.966 34.59C154.11 34.716 154.272 34.788 154.488 34.824C154.686 34.878 154.956 34.914 155.316 34.95C155.658 34.986 155.964 35.022 156.234 35.022C156.486 35.04 156.828 35.058 157.242 35.076C157.656 35.112 157.926 35.13 158.052 35.13H158.106ZM173.91 36.3C173.604 36.264 172.578 36.21 170.832 36.138C169.068 36.066 168.024 35.994 167.682 35.958C167.574 35.958 167.394 35.958 167.178 35.976C166.944 35.994 166.764 35.994 166.656 35.976C166.566 35.976 166.476 35.94 166.368 35.868C166.26 35.814 166.206 35.76 166.206 35.688C166.098 35.13 166.026 34.446 165.972 33.618C165.954 33.582 165.972 33.528 166.044 33.456C166.116 33.384 166.17 33.348 166.224 33.33C166.62 33.258 167.322 33.15 168.33 33.042C169.32 32.934 170.382 32.844 171.498 32.736C172.614 32.646 173.316 32.574 173.604 32.538C174.18 32.484 175.332 32.43 177.06 32.394C178.788 32.358 179.706 32.34 179.85 32.34C179.958 32.34 180.138 32.322 180.372 32.304C180.606 32.286 180.786 32.268 180.894 32.268C181.002 32.268 181.182 32.268 181.416 32.268C181.992 32.322 182.208 32.628 182.064 33.204C181.866 33.888 181.65 34.608 181.398 35.364C181.344 35.526 181.218 35.652 181.002 35.724C180.714 35.832 180.408 35.904 180.102 35.922C179.634 35.976 178.608 36.048 177.042 36.12C175.458 36.192 174.414 36.264 173.91 36.3ZM173.766 21.234C175.134 21.324 175.872 21.378 175.962 21.378C178.014 21.594 179.616 22.512 180.75 24.096C180.894 24.312 181.002 24.654 181.056 25.086C181.146 25.878 181.02 26.814 180.66 27.876C180.264 29.028 179.472 29.73 178.32 30C177.474 30.198 176.574 30.288 175.602 30.288C175.332 30.288 174.828 30.306 174.09 30.342C173.352 30.378 172.794 30.396 172.398 30.36C170.904 30.288 169.626 29.982 168.582 29.478C167.97 29.19 167.52 28.794 167.25 28.272C166.962 27.768 166.854 27.174 166.926 26.49C167.034 25.338 167.556 24.24 168.51 23.178C168.942 22.692 169.464 22.314 170.04 22.044C170.616 21.774 171.3 21.558 172.092 21.378C172.254 21.342 172.434 21.324 172.632 21.306C172.812 21.288 173.028 21.27 173.262 21.27C173.496 21.27 173.658 21.252 173.766 21.234ZM173.856 27.948C174.846 27.876 175.386 27.822 175.458 27.804C175.764 27.768 176.07 27.624 176.394 27.372C176.7 27.12 176.862 26.868 176.898 26.616C176.97 26.04 176.898 25.554 176.7 25.176C176.502 24.798 176.124 24.528 175.548 24.366C174.324 24.042 173.226 24.006 172.254 24.294C172.218 24.312 172.164 24.33 172.092 24.348C172.02 24.366 171.966 24.384 171.93 24.384C171.894 24.402 171.84 24.42 171.768 24.438C171.696 24.474 171.66 24.492 171.624 24.51C171.588 24.546 171.534 24.564 171.498 24.6C171.462 24.636 171.426 24.654 171.408 24.69C171.138 25.068 170.85 25.608 170.544 26.31C170.31 26.85 170.472 27.21 171.048 27.408C171.462 27.552 171.768 27.66 171.984 27.732C172.182 27.804 172.47 27.858 172.83 27.912C173.19 27.984 173.532 27.984 173.856 27.948ZM199.956 34.302C199.938 34.446 199.938 34.644 199.974 34.86C200.01 35.094 200.01 35.31 200.01 35.508C200.01 35.706 199.956 35.886 199.884 36.048C199.74 36.318 199.596 36.48 199.416 36.516C199.2 36.57 198.948 36.624 198.624 36.66C198.3 36.714 198.012 36.75 197.778 36.768C197.544 36.786 197.436 36.786 197.436 36.768H187.932C187.608 36.786 187.122 36.804 186.474 36.822C185.826 36.84 185.34 36.84 185.016 36.84C184.656 36.858 184.314 36.786 183.99 36.624L183.756 35.238L183.99 34.554C184.062 34.338 184.206 34.23 184.422 34.212L185.862 34.068C187.302 34.068 188.85 34.032 190.488 33.996C190.344 33.852 190.272 33.69 190.272 33.546C190.236 33.33 190.218 33.024 190.218 32.628C190.2 32.232 190.182 31.944 190.182 31.8C190.182 31.656 190.2 31.548 190.254 31.476C190.29 31.404 190.398 31.368 190.56 31.368C190.74 31.386 191.082 31.386 191.55 31.386C192.018 31.386 192.342 31.368 192.54 31.368C192.918 31.386 193.17 31.476 193.314 31.656C193.458 31.836 193.566 32.178 193.656 32.682C193.71 33.06 193.62 33.474 193.386 33.942C195.33 33.906 196.608 33.87 197.184 33.834C197.886 33.816 198.444 33.816 198.84 33.852C198.948 33.852 199.272 33.96 199.812 34.14C199.83 34.158 199.866 34.176 199.902 34.212C199.938 34.248 199.956 34.284 199.956 34.302ZM189.372 28.11C189.3 28.524 189.318 28.776 189.408 28.866C189.498 28.956 189.75 28.956 190.146 28.884C190.524 28.812 191.154 28.758 192.054 28.722C192.468 28.722 193.062 28.704 193.818 28.668C194.574 28.65 195.132 28.632 195.456 28.614C195.456 28.614 195.96 28.578 196.968 28.506C197.166 28.506 197.31 28.542 197.4 28.632C197.49 28.722 197.526 28.866 197.526 29.082C197.526 29.37 197.508 29.604 197.49 29.784C197.454 29.964 197.418 30.162 197.346 30.378C197.274 30.594 197.148 30.774 197.004 30.918C196.842 31.062 196.644 31.17 196.392 31.242C196.248 31.278 196.086 31.314 195.906 31.314C195.726 31.314 195.528 31.314 195.276 31.278C195.024 31.26 194.844 31.242 194.772 31.242C194.25 31.224 193.584 31.188 192.792 31.134C191.136 31.044 189.498 30.936 187.86 30.81C187.788 30.81 187.716 30.792 187.608 30.738C187.212 30.576 186.834 30.198 186.474 29.604C186.096 29.028 185.934 28.542 185.97 28.146C186.024 27.57 186.15 27.012 186.348 26.508C186.456 26.184 186.6 25.986 186.78 25.914C186.942 25.842 187.212 25.824 187.572 25.896C187.662 25.914 187.752 25.932 187.86 25.932C187.968 25.932 188.076 25.932 188.22 25.914C188.364 25.914 188.472 25.896 188.544 25.896C188.562 25.896 188.724 25.896 189.048 25.896C189.354 25.896 189.516 25.896 189.552 25.896C189.624 25.896 189.912 25.914 190.416 25.95C190.92 25.986 191.316 25.986 191.586 25.968C192.414 25.95 193.152 25.878 193.8 25.752C193.962 25.716 194.07 25.644 194.142 25.536C194.196 25.428 194.232 25.266 194.25 25.068C194.25 24.888 194.286 24.744 194.322 24.672C194.322 24.672 194.286 24.636 194.25 24.6C194.196 24.564 194.142 24.528 194.07 24.492C193.998 24.456 193.926 24.42 193.89 24.402C193.638 24.348 193.368 24.312 193.08 24.312C192.756 24.312 192.198 24.312 191.406 24.312C190.614 24.312 190.074 24.312 189.768 24.294C189.588 24.294 189.282 24.294 188.85 24.258C188.4 24.222 188.058 24.204 187.842 24.204C187.302 24.24 186.726 24.312 186.096 24.456C185.952 24.492 185.826 24.492 185.754 24.456C185.682 24.42 185.646 24.33 185.646 24.186C185.664 22.98 185.7 22.188 185.754 21.792C185.79 21.45 185.916 21.198 186.096 21.054C186.276 20.91 186.546 20.838 186.906 20.838C188.67 20.802 190.146 20.928 191.352 21.234C191.46 21.27 191.604 21.288 191.748 21.306C191.892 21.324 192.036 21.342 192.144 21.342C192.252 21.342 192.396 21.342 192.576 21.342C192.756 21.342 192.882 21.36 192.972 21.36C193.098 21.36 193.44 21.378 193.98 21.396C194.52 21.414 194.916 21.432 195.168 21.45C195.402 21.468 195.726 21.504 196.14 21.558C196.536 21.612 196.914 21.684 197.238 21.792C197.526 21.9 197.76 22.062 197.922 22.296C198.3 22.926 198.408 23.79 198.246 24.906C198.21 25.14 198.12 25.482 198.012 25.932C197.886 26.382 197.814 26.724 197.778 26.958C197.706 27.354 197.544 27.642 197.292 27.822C197.04 28.002 196.698 28.11 196.302 28.164C195.366 28.308 194.43 28.38 193.494 28.38H193.188C192.828 28.38 192.45 28.362 192.054 28.326C191.658 28.29 191.19 28.254 190.686 28.2C190.182 28.164 189.804 28.128 189.57 28.092C189.552 28.092 189.48 28.11 189.372 28.11ZM221.887 36.516C221.311 36.516 220.915 36.426 220.699 36.21C220.483 35.994 220.375 35.598 220.339 35.004C220.249 33.33 220.213 32.178 220.213 31.548C220.213 30.666 220.267 27.876 220.393 23.196C220.393 23.07 220.411 22.926 220.447 22.782C220.465 22.638 220.483 22.512 220.519 22.404C220.537 22.296 220.573 22.17 220.627 21.99C220.663 21.81 220.699 21.684 220.735 21.576C220.771 21.432 220.843 21.324 220.969 21.288C221.005 21.288 221.131 21.252 221.329 21.198C221.527 21.144 221.671 21.108 221.743 21.09C221.815 21.072 221.923 21.054 222.103 21.018C222.265 20.982 222.391 20.982 222.499 20.982C222.607 20.982 222.733 21 222.877 21.036C223.021 21.072 223.147 21.108 223.291 21.162C223.633 21.342 223.831 21.666 223.867 22.134C223.867 22.35 223.885 23.07 223.903 24.312C223.903 25.554 223.939 26.328 223.975 26.634C224.011 26.85 224.137 27.084 224.353 27.318C224.461 27.444 224.569 27.57 224.695 27.696C224.821 27.84 224.965 27.984 225.127 28.128C225.271 28.29 225.397 28.416 225.505 28.488C225.649 28.632 225.739 28.794 225.811 28.956C225.883 29.136 225.901 29.334 225.883 29.55C225.865 29.766 225.847 29.928 225.829 30.036C225.793 30.144 225.757 30.342 225.685 30.594C225.577 31.026 225.199 31.26 224.551 31.26C224.209 31.26 223.993 31.314 223.921 31.404C223.831 31.512 223.795 31.746 223.813 32.142C223.813 32.412 223.813 32.898 223.831 33.582C223.849 34.266 223.867 34.734 223.867 34.968C223.867 35.454 223.741 35.778 223.453 35.94C222.733 36.336 222.211 36.534 221.887 36.516ZM209.269 23.808C209.395 23.592 209.593 23.448 209.845 23.394C211.321 23.124 212.455 22.926 213.247 22.818C214.435 22.656 215.533 22.638 216.559 22.782C216.577 22.782 216.631 22.8 216.739 22.8C216.829 22.818 216.901 22.836 216.937 22.836C216.973 22.836 217.045 22.854 217.117 22.872C217.189 22.89 217.243 22.908 217.297 22.944C217.351 22.98 217.405 23.034 217.459 23.07C217.549 23.16 217.639 23.34 217.747 23.61C218.197 24.906 218.395 26.346 218.323 27.966C218.287 28.56 218.197 29.424 218.053 30.576C218.017 30.828 217.981 31.368 217.927 32.232C217.873 33.096 217.783 33.744 217.675 34.194C217.549 34.698 217.387 35.022 217.207 35.202C217.063 35.346 216.631 35.454 215.947 35.49C215.263 35.544 214.633 35.544 214.093 35.508C213.805 35.508 213.661 35.418 213.625 35.238C213.589 35.166 213.589 35.094 213.625 34.986C213.643 34.878 213.679 34.77 213.715 34.644C213.751 34.536 213.769 34.446 213.769 34.392C213.823 34.068 213.877 33.744 213.913 33.402C213.985 32.808 214.021 32.16 214.057 31.458C214.075 30.594 214.057 29.316 214.003 27.606C213.985 27.354 213.949 27.174 213.895 27.066C213.733 26.778 213.355 26.706 212.779 26.832C212.113 26.994 210.925 27.048 209.215 26.976C209.125 26.976 209.071 26.958 209.035 26.922C208.981 26.886 208.963 26.778 208.981 26.634C209.089 24.906 209.179 23.952 209.269 23.808ZM238.699 21.036C239.383 21 239.761 20.982 239.797 20.982C240.193 21 240.571 21.036 240.967 21.09C241.363 21.144 241.705 21.18 242.011 21.198C242.353 21.234 242.533 21.432 242.551 21.774C242.551 22.206 242.587 22.872 242.641 23.754C242.695 24.654 242.731 25.32 242.749 25.77C242.767 26.112 242.767 26.724 242.767 27.588C242.767 28.47 242.767 29.082 242.767 29.406C242.767 29.892 242.767 30.882 242.767 32.394C242.767 33.906 242.767 34.914 242.767 35.4V35.436C242.767 35.688 242.731 35.94 242.659 36.156C242.497 36.606 242.209 36.822 241.795 36.804C241.597 36.804 241.363 36.822 241.111 36.822C240.859 36.822 240.643 36.822 240.463 36.786C240.319 36.786 240.157 36.732 240.013 36.642C239.851 36.57 239.743 36.462 239.707 36.354C239.347 35.49 239.167 34.824 239.149 34.356C239.095 33.312 239.059 31.53 239.041 29.046C239.023 26.562 239.005 24.87 238.969 23.952C238.969 23.664 238.951 23.376 238.915 23.052C238.879 22.728 238.843 22.368 238.807 21.954L238.699 21.036ZM227.269 23.808C227.395 23.592 227.593 23.448 227.845 23.394C229.321 23.124 230.455 22.926 231.247 22.818C232.435 22.656 233.533 22.638 234.559 22.782C234.577 22.782 234.631 22.8 234.739 22.8C234.829 22.818 234.901 22.836 234.937 22.836C234.973 22.836 235.045 22.854 235.117 22.872C235.189 22.89 235.243 22.908 235.297 22.944C235.351 22.98 235.405 23.034 235.459 23.07C235.549 23.16 235.639 23.34 235.747 23.61C236.197 24.906 236.395 26.346 236.323 27.966C236.287 28.56 236.197 29.424 236.053 30.576C236.017 30.828 235.981 31.368 235.927 32.232C235.873 33.096 235.783 33.744 235.675 34.194C235.549 34.698 235.387 35.022 235.207 35.202C235.063 35.346 234.631 35.454 233.947 35.49C233.263 35.544 232.633 35.544 232.093 35.508C231.805 35.508 231.661 35.418 231.625 35.238C231.589 35.166 231.589 35.094 231.625 34.986C231.643 34.878 231.679 34.77 231.715 34.644C231.751 34.536 231.769 34.446 231.769 34.392C231.823 34.068 231.877 33.744 231.913 33.402C231.985 32.808 232.021 32.16 232.057 31.458C232.075 30.594 232.057 29.316 232.003 27.606C231.985 27.354 231.949 27.174 231.895 27.066C231.733 26.778 231.355 26.706 230.779 26.832C230.113 26.994 228.925 27.048 227.215 26.976C227.125 26.976 227.071 26.958 227.035 26.922C226.981 26.886 226.963 26.778 226.981 26.634C227.089 24.906 227.179 23.952 227.269 23.808Z" fill="#578246"/>
<path d="M84.749 36.302C84.731 36.446 84.731 36.644 84.767 36.86C84.803 37.094 84.803 37.31 84.803 37.508C84.803 37.706 84.749 37.886 84.677 38.048C84.533 38.318 84.389 38.48 84.209 38.516C83.993 38.57 83.741 38.624 83.417 38.66C83.093 38.714 82.805 38.75 82.571 38.768C82.337 38.786 82.229 38.786 82.229 38.768H72.725C72.401 38.786 71.915 38.804 71.267 38.822C70.619 38.84 70.133 38.84 69.809 38.84C69.449 38.858 69.107 38.786 68.783 38.624L68.549 37.238L68.783 36.554C68.855 36.338 68.999 36.23 69.215 36.212L70.655 36.068C72.095 36.068 73.643 36.032 75.281 35.996C75.137 35.852 75.065 35.69 75.065 35.546C75.029 35.33 75.011 35.024 75.011 34.628C74.993 34.232 74.975 33.944 74.975 33.8C74.975 33.656 74.993 33.548 75.047 33.476C75.083 33.404 75.191 33.368 75.353 33.368C75.533 33.386 75.875 33.386 76.343 33.386C76.811 33.386 77.135 33.368 77.333 33.368C77.711 33.386 77.963 33.476 78.107 33.656C78.251 33.836 78.359 34.178 78.449 34.682C78.503 35.06 78.413 35.474 78.179 35.942C80.123 35.906 81.401 35.87 81.977 35.834C82.679 35.816 83.237 35.816 83.633 35.852C83.741 35.852 84.065 35.96 84.605 36.14C84.623 36.158 84.659 36.176 84.695 36.212C84.731 36.248 84.749 36.284 84.749 36.302ZM76.559 23.234C77.927 23.324 78.665 23.378 78.755 23.378C80.807 23.594 82.409 24.512 83.543 26.096C83.687 26.312 83.795 26.654 83.849 27.086C83.939 27.878 83.813 28.814 83.453 29.876C83.057 31.028 82.265 31.73 81.113 32C80.267 32.198 79.367 32.288 78.395 32.288C78.125 32.288 77.621 32.306 76.883 32.342C76.145 32.378 75.587 32.396 75.191 32.36C73.697 32.288 72.419 31.982 71.375 31.478C70.763 31.19 70.313 30.794 70.043 30.272C69.755 29.768 69.647 29.174 69.719 28.49C69.827 27.338 70.349 26.24 71.303 25.178C71.735 24.692 72.257 24.314 72.833 24.044C73.409 23.774 74.093 23.558 74.885 23.378C75.047 23.342 75.227 23.324 75.425 23.306C75.605 23.288 75.821 23.27 76.055 23.27C76.289 23.27 76.451 23.252 76.559 23.234ZM76.649 29.948C77.639 29.876 78.179 29.822 78.251 29.804C78.557 29.768 78.863 29.624 79.187 29.372C79.493 29.12 79.655 28.868 79.691 28.616C79.763 28.04 79.691 27.554 79.493 27.176C79.295 26.798 78.917 26.528 78.341 26.366C77.117 26.042 76.019 26.006 75.047 26.294C75.011 26.312 74.957 26.33 74.885 26.348C74.813 26.366 74.759 26.384 74.723 26.384C74.687 26.402 74.633 26.42 74.561 26.438C74.489 26.474 74.453 26.492 74.417 26.51C74.381 26.546 74.327 26.564 74.291 26.6C74.255 26.636 74.219 26.654 74.201 26.69C73.931 27.068 73.643 27.608 73.337 28.31C73.103 28.85 73.265 29.21 73.841 29.408C74.255 29.552 74.561 29.66 74.777 29.732C74.975 29.804 75.263 29.858 75.623 29.912C75.983 29.984 76.325 29.984 76.649 29.948ZM95.243 31.55C93.767 31.622 92.975 31.64 92.831 31.64C89.915 31.64 88.277 31.604 87.881 31.496C87.521 31.406 87.323 31.226 87.269 30.974C87.215 30.722 87.251 30.344 87.395 29.84C87.449 29.768 87.485 29.678 87.503 29.552C87.521 29.426 87.575 29.318 87.665 29.246C87.701 29.21 87.791 29.174 87.917 29.174H90.941H93.965C94.055 29.174 94.289 29.192 94.685 29.228C95.081 29.264 95.297 29.3 95.351 29.3C95.459 29.3 96.449 29.318 98.285 29.354C100.121 29.39 101.183 29.408 101.471 29.444C101.525 29.444 101.597 29.498 101.669 29.57C101.741 29.642 101.795 29.714 101.813 29.786C101.885 30.254 101.885 30.614 101.813 30.848C101.705 31.244 101.363 31.46 100.787 31.496C100.607 31.514 99.671 31.532 97.997 31.55C96.305 31.568 95.387 31.568 95.243 31.568V31.55ZM92.381 23.396C92.381 23.126 92.291 22.928 92.111 22.802C91.913 22.694 91.589 22.64 91.157 22.64C91.013 22.64 90.833 22.658 90.581 22.694C90.329 22.73 90.167 22.766 90.059 22.766C89.699 22.784 89.465 22.838 89.375 22.91C89.267 22.982 89.231 23.162 89.249 23.414C89.249 23.846 89.285 24.314 89.321 24.782C89.357 25.268 89.393 25.646 89.429 25.934C89.429 26.186 89.501 26.51 89.609 26.906C89.609 26.942 89.645 26.978 89.717 27.014C89.771 27.05 89.825 27.086 89.879 27.086C90.005 27.104 90.275 27.14 90.707 27.176C91.139 27.212 91.463 27.266 91.697 27.302C92.111 27.374 92.615 27.428 93.209 27.464C93.803 27.5 94.469 27.536 95.189 27.554C95.909 27.572 96.431 27.59 96.737 27.608C97.061 27.626 97.529 27.608 98.141 27.572C98.753 27.536 99.149 27.5 99.365 27.5C99.545 27.5 99.689 27.464 99.779 27.392C99.869 27.338 99.923 27.23 99.959 27.086C100.067 26.564 100.157 26.132 100.247 25.772C100.355 25.322 100.157 25.088 99.653 25.052C98.735 25.016 97.421 24.962 95.693 24.908H92.381C92.399 24.908 92.399 24.71 92.399 24.278C92.381 23.846 92.381 23.558 92.381 23.396ZM90.023 35.078C89.987 35.078 89.897 35.096 89.753 35.096C89.609 35.114 89.501 35.114 89.447 35.114C89.375 35.114 89.303 35.114 89.195 35.096C89.087 35.078 88.997 35.042 88.961 35.006C88.907 34.97 88.853 34.898 88.799 34.826C88.745 34.754 88.709 34.646 88.709 34.52C88.691 34.448 88.673 34.34 88.637 34.16C88.601 33.98 88.583 33.836 88.583 33.71C88.583 33.548 88.601 33.386 88.655 33.206C88.655 33.134 88.709 33.062 88.817 32.99C88.925 32.918 89.033 32.864 89.159 32.864C94.019 32.864 97.403 32.9 99.347 33.008C99.743 33.044 100.049 33.08 100.283 33.152C100.553 33.242 100.715 33.368 100.769 33.512C100.823 33.728 100.859 33.962 100.859 34.196C100.859 34.466 100.805 34.79 100.733 35.168C100.589 35.798 100.229 36.248 99.635 36.5C99.311 36.644 98.717 36.752 97.871 36.824C97.565 36.86 97.133 36.878 96.557 36.878C95.981 36.896 95.585 36.914 95.351 36.914C95.315 36.914 94.667 36.932 93.425 36.95C92.165 36.968 91.481 36.986 91.355 37.022L91.373 37.454C91.589 37.454 92.399 37.454 93.803 37.436C95.207 37.418 96.035 37.4 96.251 37.4C96.737 37.4 97.169 37.4 97.547 37.382C97.799 37.382 98.195 37.364 98.717 37.328C99.221 37.292 99.599 37.274 99.851 37.274H99.887C100.211 37.274 100.391 37.382 100.391 37.598V37.688C100.283 38.192 100.193 38.588 100.121 38.84C100.031 39.092 99.887 39.272 99.689 39.38C99.491 39.488 99.167 39.524 98.699 39.524H98.483C98.015 39.524 97.349 39.488 96.503 39.434C95.657 39.38 95.063 39.344 94.721 39.326C94.181 39.308 93.713 39.308 93.299 39.326C92.885 39.344 92.417 39.344 91.913 39.326C91.409 39.308 90.959 39.254 90.563 39.182C90.023 39.074 89.645 38.894 89.429 38.642C89.213 38.39 89.087 38.066 89.015 37.634C88.997 37.562 88.997 37.364 88.997 37.058C88.997 37.04 88.997 36.914 89.015 36.68C89.015 36.338 89.123 36.104 89.303 35.96C89.483 35.834 89.789 35.762 90.257 35.744C91.985 35.708 94.271 35.636 97.133 35.528C97.493 35.528 97.673 35.402 97.673 35.186L97.655 35.096C97.655 35.042 97.655 34.988 97.655 34.934V34.826C97.655 34.808 97.565 34.79 97.385 34.79C97.205 34.79 96.881 34.79 96.413 34.808C95.945 34.826 95.459 34.844 94.937 34.862C94.415 34.898 93.677 34.934 92.741 34.97C91.805 35.006 90.887 35.042 90.023 35.078ZM116.627 36.374C114.791 36.626 113.801 36.752 113.675 36.77C112.955 36.878 111.605 36.968 109.625 37.022C107.645 37.094 106.295 37.058 105.557 36.95C105.485 36.95 105.395 36.896 105.323 36.824C105.251 36.752 105.215 36.698 105.215 36.626C105.161 35.942 105.161 35.366 105.215 34.934C105.233 34.646 105.359 34.286 105.593 33.872C106.367 33.656 106.907 33.548 107.213 33.512C107.429 33.476 108.455 33.494 110.291 33.566C112.127 33.638 113.153 33.656 113.333 33.656C113.549 33.656 113.891 33.638 114.359 33.638C114.809 33.638 115.151 33.62 115.385 33.602L116.681 33.476C116.753 31.442 116.807 30.308 116.825 30.092L117.113 23.378C117.149 23.342 117.203 23.288 117.293 23.216C117.365 23.162 117.563 23.072 117.851 22.964C118.139 22.856 118.427 22.802 118.751 22.766C118.895 22.766 119.093 22.766 119.345 22.802C119.579 22.838 119.777 22.874 119.957 22.91L120.209 22.964C120.245 23.018 120.317 23.072 120.389 23.144C120.461 23.216 120.551 23.342 120.659 23.54C120.767 23.738 120.785 23.918 120.749 24.08C120.569 24.584 120.443 26.276 120.371 29.138C120.281 32 120.227 33.512 120.209 33.692C120.191 33.836 120.191 34.124 120.191 34.556C120.191 34.988 120.173 35.258 120.137 35.384C120.101 35.528 120.083 35.96 120.101 36.644C120.119 37.346 120.101 37.76 120.065 37.868C119.957 38.21 119.795 38.444 119.615 38.552C119.417 38.678 119.129 38.732 118.769 38.732C118.157 38.732 117.689 38.696 117.401 38.642C116.969 38.57 116.789 38.318 116.843 37.922C116.843 37.832 116.807 37.598 116.735 37.202C116.663 36.806 116.627 36.536 116.627 36.374ZM108.761 23.558C108.869 23.576 109.031 23.594 109.265 23.63C109.481 23.666 109.697 23.702 109.877 23.738C110.057 23.774 110.219 23.81 110.381 23.846C110.417 23.882 110.597 23.936 110.903 24.026C111.209 24.134 111.425 24.188 111.533 24.224C111.641 24.26 111.803 24.332 112.037 24.404C112.271 24.494 112.469 24.584 112.649 24.656C112.811 24.728 112.973 24.818 113.153 24.89C113.765 25.25 114.179 25.718 114.359 26.294C114.539 26.888 114.521 27.518 114.305 28.166C113.999 29.156 113.639 30.074 113.225 30.902C113.117 31.118 112.955 31.298 112.757 31.478C112.559 31.658 112.361 31.784 112.163 31.856C110.705 32.36 109.607 32.648 108.869 32.702C107.717 32.81 106.781 32.522 106.079 31.856C105.647 31.46 105.359 30.83 105.197 29.948C104.783 27.788 105.305 25.952 106.763 24.44C107.303 23.882 107.969 23.594 108.761 23.558ZM111.119 28.166C111.119 27.644 111.011 27.266 110.813 27.032C110.597 26.816 110.273 26.69 109.823 26.69C109.283 26.69 108.815 26.906 108.419 27.32C108.005 27.734 107.789 28.202 107.789 28.742C107.789 29.048 107.969 29.372 108.347 29.696C108.707 30.02 109.067 30.164 109.409 30.128C109.841 30.092 110.237 29.876 110.597 29.516C110.939 29.156 111.119 28.706 111.119 28.166ZM145.29 22.892C145.344 23.936 145.38 24.458 145.398 24.494C145.506 25.394 145.47 26.69 145.326 28.382C145.29 28.67 145.254 29.084 145.182 29.606C145.11 30.128 145.074 30.47 145.074 30.65C145.038 30.938 144.876 31.082 144.588 31.082C144.444 31.082 144.048 31.064 143.364 31.064C142.68 31.064 142.23 31.064 142.032 31.064C141.816 31.064 141.69 30.902 141.636 30.578C141.6 30.506 141.582 30.416 141.582 30.308C141.564 30.218 141.546 30.128 141.546 30.056C141.546 29.984 141.528 29.894 141.528 29.786C141.528 29.678 141.528 29.588 141.528 29.516C141.528 29.462 141.528 29.372 141.528 29.246C141.528 29.12 141.546 29.03 141.546 28.994C141.546 28.958 141.546 28.85 141.564 28.706C141.564 28.562 141.582 28.49 141.582 28.454C141.582 28.436 141.6 28.346 141.618 28.184C141.618 28.022 141.636 27.932 141.636 27.914C141.672 27.554 141.69 26.762 141.726 25.538V24.584V23.612C141.726 23.432 141.834 23.288 142.05 23.18C142.518 22.982 143.544 22.874 145.146 22.838C145.146 22.838 145.2 22.856 145.29 22.892ZM135.03 25.502C134.382 25.358 133.572 25.376 132.6 25.556C131.628 25.736 130.944 25.826 130.584 25.808C130.71 24.728 130.8 23.954 130.872 23.486C131.826 23.36 132.33 23.288 132.402 23.288C134.022 23.198 135.066 23.162 135.57 23.18C135.822 23.198 136.074 23.234 136.326 23.27C136.578 23.324 136.902 23.396 137.298 23.486C137.676 23.594 137.928 23.648 138.072 23.666C138.504 23.774 138.666 24.08 138.522 24.566C138.378 25.052 138.27 25.394 138.198 25.61C138.126 25.826 137.982 26.096 137.802 26.456C137.622 26.816 137.406 27.104 137.154 27.338C137.082 27.41 136.992 27.5 136.884 27.608C136.758 27.716 136.668 27.806 136.632 27.842C136.596 27.878 136.542 27.932 136.506 28.004C136.47 28.076 136.452 28.148 136.47 28.184C136.488 28.238 136.524 28.292 136.596 28.364C136.65 28.436 136.74 28.508 136.866 28.58C136.938 28.634 137.046 28.742 137.226 28.886C137.388 29.03 137.496 29.138 137.532 29.192C137.694 29.426 137.91 29.66 138.162 29.912C138.414 30.164 138.612 30.398 138.774 30.632C139.062 31.064 139.008 31.388 138.576 31.604C138.432 31.694 138.234 31.82 137.982 32C137.73 32.18 137.55 32.288 137.46 32.342C137.37 32.414 137.298 32.45 137.226 32.468C137.154 32.486 137.064 32.486 136.974 32.45C136.884 32.414 136.83 32.396 136.794 32.378C136.758 32.378 136.686 32.324 136.56 32.234C136.434 32.162 136.362 32.108 136.344 32.09C136.254 32.054 136.2 32.018 136.182 31.982C136.146 31.946 136.128 31.928 136.128 31.91C136.128 31.892 136.092 31.838 136.038 31.766C135.966 31.694 135.876 31.586 135.75 31.46C135.696 31.424 135.606 31.316 135.462 31.118C135.318 30.938 135.174 30.776 135.066 30.668C134.706 30.308 134.31 30.146 133.878 30.146C133.446 30.146 132.924 30.362 132.276 30.794C131.916 31.028 131.538 31.334 131.142 31.712C130.782 32.036 130.566 31.964 130.458 31.514C130.224 30.578 130.098 30.002 130.062 29.768C129.99 29.372 130.044 29.012 130.224 28.706C130.404 28.418 130.71 28.202 131.124 28.058C131.736 27.878 132.312 27.626 132.834 27.266C133.338 26.906 133.932 26.438 134.616 25.844C134.616 25.844 134.76 25.736 135.03 25.502ZM138.018 36.698C137.73 36.698 137.478 36.716 137.226 36.716C136.812 36.716 136.398 36.752 136.002 36.824C135.93 36.842 135.84 36.878 135.768 36.95C135.696 37.022 135.66 37.058 135.66 37.094C135.696 37.292 135.786 37.436 135.948 37.508C136.038 37.562 136.182 37.58 136.362 37.58C136.506 37.58 136.686 37.58 136.902 37.544C137.082 37.526 137.226 37.508 137.334 37.508C137.424 37.508 137.514 37.526 137.604 37.526C137.82 37.58 138.054 37.598 138.306 37.598C138.63 37.598 139.08 37.544 139.656 37.418C139.944 37.364 140.106 37.202 140.106 36.95C140.106 36.914 140.088 36.842 140.088 36.77L139.98 36.716H139.35C139.098 36.716 138.846 36.716 138.63 36.716C138.414 36.716 138.198 36.698 138.018 36.698ZM134.886 33.98V34.556V35.114H135.84H136.794C137.28 35.114 137.712 35.114 138.09 35.096C138.306 35.096 138.648 35.096 139.08 35.06C139.512 35.024 139.764 35.006 139.872 35.006C140.304 34.988 140.52 34.772 140.52 34.34V34.232V34.142C140.52 33.872 140.538 33.656 140.574 33.476C140.61 33.296 140.628 33.17 140.646 33.116C140.664 33.08 140.7 33.008 140.754 32.918C140.79 32.846 140.862 32.792 140.952 32.774C141.024 32.756 141.15 32.738 141.312 32.738C141.348 32.738 141.51 32.72 141.834 32.666C142.158 32.63 142.338 32.612 142.392 32.612C142.968 32.774 143.31 32.918 143.436 33.044C143.562 33.188 143.634 33.494 143.634 33.998C143.634 34.862 143.598 35.924 143.526 37.184C143.49 37.67 143.274 38.084 142.878 38.426C142.482 38.786 141.996 38.984 141.438 39.02C141.168 39.056 140.682 39.11 139.998 39.218C139.314 39.326 138.774 39.38 138.396 39.398C138.18 39.416 137.946 39.416 137.694 39.416C137.352 39.416 136.632 39.398 135.516 39.326C135.174 39.308 134.706 39.236 134.094 39.128C133.302 38.984 132.798 38.498 132.564 37.688C132.366 37.076 132.276 36.41 132.276 35.708C132.276 35.006 132.384 34.106 132.6 33.026C132.618 32.936 132.654 32.864 132.726 32.792C132.78 32.738 132.87 32.702 132.996 32.684C133.122 32.666 133.23 32.648 133.338 32.648C133.428 32.648 133.554 32.63 133.734 32.63H133.896C134.04 32.63 134.148 32.648 134.22 32.648C134.292 32.648 134.364 32.666 134.472 32.684C134.58 32.702 134.652 32.738 134.706 32.774C134.742 32.81 134.796 32.882 134.832 32.954C134.868 33.044 134.886 33.152 134.886 33.26V33.98ZM151.788 30.164C151.896 30.164 152.202 30.146 152.688 30.146H154.038H154.938C157.134 30.11 158.412 30.11 158.754 30.11C159.078 30.11 159.816 30.146 160.95 30.2C162.066 30.254 162.66 30.29 162.732 30.29C162.786 30.29 162.894 30.308 163.056 30.344C163.308 30.416 163.47 30.506 163.56 30.614C163.65 30.722 163.686 30.902 163.65 31.154C163.632 31.262 163.614 31.334 163.614 31.406C163.596 31.478 163.578 31.55 163.578 31.604C163.56 31.676 163.542 31.73 163.506 31.766C163.47 31.802 163.434 31.838 163.434 31.874C163.416 31.91 163.38 31.946 163.326 31.982C163.254 32.018 163.218 32.036 163.182 32.054C163.146 32.072 163.092 32.09 163.002 32.108C162.912 32.144 162.84 32.162 162.804 32.162C162.768 32.18 162.678 32.198 162.552 32.234C162.408 32.27 162.318 32.288 162.246 32.306C162.102 32.342 161.346 32.378 159.942 32.414C158.538 32.468 157.764 32.522 157.62 32.558C157.548 32.594 157.53 32.756 157.53 33.062C158.646 33.188 159.564 33.35 160.284 33.548C161.382 33.872 161.994 34.448 162.12 35.276C162.156 35.492 162.174 35.69 162.174 35.87C162.174 36.68 161.85 37.328 161.22 37.796C160.788 38.12 160.428 38.39 160.14 38.57C159.852 38.75 159.51 38.93 159.078 39.092C158.646 39.272 158.214 39.362 157.782 39.362C157.602 39.362 157.17 39.398 156.468 39.434C155.766 39.47 155.298 39.488 155.064 39.488C154.722 39.488 154.416 39.47 154.164 39.416C154.092 39.416 154.02 39.416 153.912 39.38C153.408 39.308 153.012 39.236 152.76 39.182C152.49 39.128 152.166 39.02 151.788 38.84C151.41 38.678 151.086 38.462 150.834 38.192C150.348 37.724 150.114 37.292 150.114 36.878C150.114 36.05 150.222 35.42 150.474 35.006C151.14 33.89 152.526 33.206 154.614 32.99L154.902 32.954C154.866 32.756 154.758 32.648 154.614 32.612C154.434 32.594 153.696 32.576 152.4 32.54C151.104 32.504 150.348 32.504 150.132 32.504C149.844 32.576 149.61 32.594 149.412 32.558C149.214 32.54 149.07 32.414 148.98 32.18C148.8 31.784 148.746 31.334 148.818 30.848C148.836 30.74 148.944 30.614 149.124 30.488C149.304 30.38 149.718 30.272 150.384 30.2C151.032 30.128 151.5 30.128 151.788 30.164ZM157.062 25.268H153.93C153.732 25.268 153.408 25.25 152.958 25.25C152.508 25.25 152.094 25.232 151.734 25.232C151.356 25.232 151.14 25.232 151.068 25.214C150.744 25.196 150.564 25.034 150.564 24.746C150.546 24.602 150.546 24.332 150.564 23.954C150.582 23.576 150.6 23.324 150.6 23.198C150.672 23.198 150.816 23.162 151.014 23.126C151.194 23.09 151.374 23.072 151.518 23.054C151.662 23.036 151.806 23.018 151.95 23.018C152.706 23.018 153.732 23.036 155.046 23.072C155.28 23.09 155.622 23.108 156.072 23.144C156.522 23.18 156.846 23.18 157.062 23.18C157.242 23.198 157.584 23.216 158.124 23.216C158.646 23.234 159.06 23.252 159.348 23.252C159.654 23.288 160.122 23.36 160.752 23.504C160.95 23.54 161.076 23.63 161.13 23.738C161.166 23.864 161.184 24.008 161.166 24.188C161.076 24.764 160.986 25.16 160.914 25.376C160.806 25.628 160.626 25.862 160.356 26.078C160.266 26.15 160.158 26.222 160.05 26.294C159.924 26.366 159.78 26.438 159.636 26.51C159.474 26.6 159.366 26.654 159.294 26.69C160.554 27.5 161.274 27.968 161.472 28.076C161.58 28.148 161.652 28.22 161.67 28.274C161.67 28.328 161.652 28.4 161.58 28.49C161.508 28.598 161.4 28.742 161.274 28.94C161.148 29.156 161.058 29.3 161.004 29.39C160.86 29.57 160.626 29.696 160.302 29.768C159.978 29.84 159.672 29.84 159.384 29.768C159.204 29.732 159.006 29.678 158.808 29.588C158.61 29.516 158.448 29.444 158.322 29.372C158.196 29.3 158.034 29.21 157.818 29.084C157.602 28.958 157.44 28.868 157.35 28.796C157.062 28.652 156.756 28.508 156.432 28.4C156.144 28.31 155.784 28.364 155.352 28.562C154.74 28.85 154.002 29.228 153.174 29.678C153.066 29.732 152.976 29.768 152.886 29.786C152.796 29.822 152.688 29.822 152.58 29.822C152.472 29.822 152.382 29.804 152.328 29.804C152.274 29.804 152.184 29.786 152.04 29.75C151.896 29.732 151.806 29.714 151.77 29.696C151.518 29.66 151.302 29.588 151.122 29.444C150.942 29.3 150.816 29.156 150.744 28.976C150.672 28.814 150.618 28.652 150.582 28.49C150.546 28.346 150.546 28.202 150.546 28.094V27.932C151.41 27.662 152.004 27.464 152.328 27.356C152.544 27.284 152.904 27.176 153.372 27.032C153.84 26.888 154.2 26.78 154.434 26.69C154.686 26.618 155.028 26.492 155.478 26.312C155.928 26.132 156.198 26.042 156.27 26.006C156.558 25.898 156.81 25.664 157.062 25.268ZM158.106 37.13C158.394 37.13 158.646 37.022 158.862 36.77C159.078 36.536 159.186 36.248 159.186 35.888C159.186 35.384 158.898 35.078 158.358 34.952C157.764 34.844 156.594 34.772 154.848 34.772H154.83C154.65 34.772 154.506 34.808 154.38 34.862C154.254 34.934 154.146 35.024 154.074 35.15C154.002 35.276 153.948 35.384 153.912 35.474C153.876 35.582 153.84 35.708 153.804 35.888C153.768 35.978 153.768 36.05 153.768 36.122C153.768 36.32 153.822 36.482 153.966 36.59C154.11 36.716 154.272 36.788 154.488 36.824C154.686 36.878 154.956 36.914 155.316 36.95C155.658 36.986 155.964 37.022 156.234 37.022C156.486 37.04 156.828 37.058 157.242 37.076C157.656 37.112 157.926 37.13 158.052 37.13H158.106ZM173.91 38.3C173.604 38.264 172.578 38.21 170.832 38.138C169.068 38.066 168.024 37.994 167.682 37.958C167.574 37.958 167.394 37.958 167.178 37.976C166.944 37.994 166.764 37.994 166.656 37.976C166.566 37.976 166.476 37.94 166.368 37.868C166.26 37.814 166.206 37.76 166.206 37.688C166.098 37.13 166.026 36.446 165.972 35.618C165.954 35.582 165.972 35.528 166.044 35.456C166.116 35.384 166.17 35.348 166.224 35.33C166.62 35.258 167.322 35.15 168.33 35.042C169.32 34.934 170.382 34.844 171.498 34.736C172.614 34.646 173.316 34.574 173.604 34.538C174.18 34.484 175.332 34.43 177.06 34.394C178.788 34.358 179.706 34.34 179.85 34.34C179.958 34.34 180.138 34.322 180.372 34.304C180.606 34.286 180.786 34.268 180.894 34.268C181.002 34.268 181.182 34.268 181.416 34.268C181.992 34.322 182.208 34.628 182.064 35.204C181.866 35.888 181.65 36.608 181.398 37.364C181.344 37.526 181.218 37.652 181.002 37.724C180.714 37.832 180.408 37.904 180.102 37.922C179.634 37.976 178.608 38.048 177.042 38.12C175.458 38.192 174.414 38.264 173.91 38.3ZM173.766 23.234C175.134 23.324 175.872 23.378 175.962 23.378C178.014 23.594 179.616 24.512 180.75 26.096C180.894 26.312 181.002 26.654 181.056 27.086C181.146 27.878 181.02 28.814 180.66 29.876C180.264 31.028 179.472 31.73 178.32 32C177.474 32.198 176.574 32.288 175.602 32.288C175.332 32.288 174.828 32.306 174.09 32.342C173.352 32.378 172.794 32.396 172.398 32.36C170.904 32.288 169.626 31.982 168.582 31.478C167.97 31.19 167.52 30.794 167.25 30.272C166.962 29.768 166.854 29.174 166.926 28.49C167.034 27.338 167.556 26.24 168.51 25.178C168.942 24.692 169.464 24.314 170.04 24.044C170.616 23.774 171.3 23.558 172.092 23.378C172.254 23.342 172.434 23.324 172.632 23.306C172.812 23.288 173.028 23.27 173.262 23.27C173.496 23.27 173.658 23.252 173.766 23.234ZM173.856 29.948C174.846 29.876 175.386 29.822 175.458 29.804C175.764 29.768 176.07 29.624 176.394 29.372C176.7 29.12 176.862 28.868 176.898 28.616C176.97 28.04 176.898 27.554 176.7 27.176C176.502 26.798 176.124 26.528 175.548 26.366C174.324 26.042 173.226 26.006 172.254 26.294C172.218 26.312 172.164 26.33 172.092 26.348C172.02 26.366 171.966 26.384 171.93 26.384C171.894 26.402 171.84 26.42 171.768 26.438C171.696 26.474 171.66 26.492 171.624 26.51C171.588 26.546 171.534 26.564 171.498 26.6C171.462 26.636 171.426 26.654 171.408 26.69C171.138 27.068 170.85 27.608 170.544 28.31C170.31 28.85 170.472 29.21 171.048 29.408C171.462 29.552 171.768 29.66 171.984 29.732C172.182 29.804 172.47 29.858 172.83 29.912C173.19 29.984 173.532 29.984 173.856 29.948ZM199.956 36.302C199.938 36.446 199.938 36.644 199.974 36.86C200.01 37.094 200.01 37.31 200.01 37.508C200.01 37.706 199.956 37.886 199.884 38.048C199.74 38.318 199.596 38.48 199.416 38.516C199.2 38.57 198.948 38.624 198.624 38.66C198.3 38.714 198.012 38.75 197.778 38.768C197.544 38.786 197.436 38.786 197.436 38.768H187.932C187.608 38.786 187.122 38.804 186.474 38.822C185.826 38.84 185.34 38.84 185.016 38.84C184.656 38.858 184.314 38.786 183.99 38.624L183.756 37.238L183.99 36.554C184.062 36.338 184.206 36.23 184.422 36.212L185.862 36.068C187.302 36.068 188.85 36.032 190.488 35.996C190.344 35.852 190.272 35.69 190.272 35.546C190.236 35.33 190.218 35.024 190.218 34.628C190.2 34.232 190.182 33.944 190.182 33.8C190.182 33.656 190.2 33.548 190.254 33.476C190.29 33.404 190.398 33.368 190.56 33.368C190.74 33.386 191.082 33.386 191.55 33.386C192.018 33.386 192.342 33.368 192.54 33.368C192.918 33.386 193.17 33.476 193.314 33.656C193.458 33.836 193.566 34.178 193.656 34.682C193.71 35.06 193.62 35.474 193.386 35.942C195.33 35.906 196.608 35.87 197.184 35.834C197.886 35.816 198.444 35.816 198.84 35.852C198.948 35.852 199.272 35.96 199.812 36.14C199.83 36.158 199.866 36.176 199.902 36.212C199.938 36.248 199.956 36.284 199.956 36.302ZM189.372 30.11C189.3 30.524 189.318 30.776 189.408 30.866C189.498 30.956 189.75 30.956 190.146 30.884C190.524 30.812 191.154 30.758 192.054 30.722C192.468 30.722 193.062 30.704 193.818 30.668C194.574 30.65 195.132 30.632 195.456 30.614C195.456 30.614 195.96 30.578 196.968 30.506C197.166 30.506 197.31 30.542 197.4 30.632C197.49 30.722 197.526 30.866 197.526 31.082C197.526 31.37 197.508 31.604 197.49 31.784C197.454 31.964 197.418 32.162 197.346 32.378C197.274 32.594 197.148 32.774 197.004 32.918C196.842 33.062 196.644 33.17 196.392 33.242C196.248 33.278 196.086 33.314 195.906 33.314C195.726 33.314 195.528 33.314 195.276 33.278C195.024 33.26 194.844 33.242 194.772 33.242C194.25 33.224 193.584 33.188 192.792 33.134C191.136 33.044 189.498 32.936 187.86 32.81C187.788 32.81 187.716 32.792 187.608 32.738C187.212 32.576 186.834 32.198 186.474 31.604C186.096 31.028 185.934 30.542 185.97 30.146C186.024 29.57 186.15 29.012 186.348 28.508C186.456 28.184 186.6 27.986 186.78 27.914C186.942 27.842 187.212 27.824 187.572 27.896C187.662 27.914 187.752 27.932 187.86 27.932C187.968 27.932 188.076 27.932 188.22 27.914C188.364 27.914 188.472 27.896 188.544 27.896C188.562 27.896 188.724 27.896 189.048 27.896C189.354 27.896 189.516 27.896 189.552 27.896C189.624 27.896 189.912 27.914 190.416 27.95C190.92 27.986 191.316 27.986 191.586 27.968C192.414 27.95 193.152 27.878 193.8 27.752C193.962 27.716 194.07 27.644 194.142 27.536C194.196 27.428 194.232 27.266 194.25 27.068C194.25 26.888 194.286 26.744 194.322 26.672C194.322 26.672 194.286 26.636 194.25 26.6C194.196 26.564 194.142 26.528 194.07 26.492C193.998 26.456 193.926 26.42 193.89 26.402C193.638 26.348 193.368 26.312 193.08 26.312C192.756 26.312 192.198 26.312 191.406 26.312C190.614 26.312 190.074 26.312 189.768 26.294C189.588 26.294 189.282 26.294 188.85 26.258C188.4 26.222 188.058 26.204 187.842 26.204C187.302 26.24 186.726 26.312 186.096 26.456C185.952 26.492 185.826 26.492 185.754 26.456C185.682 26.42 185.646 26.33 185.646 26.186C185.664 24.98 185.7 24.188 185.754 23.792C185.79 23.45 185.916 23.198 186.096 23.054C186.276 22.91 186.546 22.838 186.906 22.838C188.67 22.802 190.146 22.928 191.352 23.234C191.46 23.27 191.604 23.288 191.748 23.306C191.892 23.324 192.036 23.342 192.144 23.342C192.252 23.342 192.396 23.342 192.576 23.342C192.756 23.342 192.882 23.36 192.972 23.36C193.098 23.36 193.44 23.378 193.98 23.396C194.52 23.414 194.916 23.432 195.168 23.45C195.402 23.468 195.726 23.504 196.14 23.558C196.536 23.612 196.914 23.684 197.238 23.792C197.526 23.9 197.76 24.062 197.922 24.296C198.3 24.926 198.408 25.79 198.246 26.906C198.21 27.14 198.12 27.482 198.012 27.932C197.886 28.382 197.814 28.724 197.778 28.958C197.706 29.354 197.544 29.642 197.292 29.822C197.04 30.002 196.698 30.11 196.302 30.164C195.366 30.308 194.43 30.38 193.494 30.38H193.188C192.828 30.38 192.45 30.362 192.054 30.326C191.658 30.29 191.19 30.254 190.686 30.2C190.182 30.164 189.804 30.128 189.57 30.092C189.552 30.092 189.48 30.11 189.372 30.11ZM221.887 38.516C221.311 38.516 220.915 38.426 220.699 38.21C220.483 37.994 220.375 37.598 220.339 37.004C220.249 35.33 220.213 34.178 220.213 33.548C220.213 32.666 220.267 29.876 220.393 25.196C220.393 25.07 220.411 24.926 220.447 24.782C220.465 24.638 220.483 24.512 220.519 24.404C220.537 24.296 220.573 24.17 220.627 23.99C220.663 23.81 220.699 23.684 220.735 23.576C220.771 23.432 220.843 23.324 220.969 23.288C221.005 23.288 221.131 23.252 221.329 23.198C221.527 23.144 221.671 23.108 221.743 23.09C221.815 23.072 221.923 23.054 222.103 23.018C222.265 22.982 222.391 22.982 222.499 22.982C222.607 22.982 222.733 23 222.877 23.036C223.021 23.072 223.147 23.108 223.291 23.162C223.633 23.342 223.831 23.666 223.867 24.134C223.867 24.35 223.885 25.07 223.903 26.312C223.903 27.554 223.939 28.328 223.975 28.634C224.011 28.85 224.137 29.084 224.353 29.318C224.461 29.444 224.569 29.57 224.695 29.696C224.821 29.84 224.965 29.984 225.127 30.128C225.271 30.29 225.397 30.416 225.505 30.488C225.649 30.632 225.739 30.794 225.811 30.956C225.883 31.136 225.901 31.334 225.883 31.55C225.865 31.766 225.847 31.928 225.829 32.036C225.793 32.144 225.757 32.342 225.685 32.594C225.577 33.026 225.199 33.26 224.551 33.26C224.209 33.26 223.993 33.314 223.921 33.404C223.831 33.512 223.795 33.746 223.813 34.142C223.813 34.412 223.813 34.898 223.831 35.582C223.849 36.266 223.867 36.734 223.867 36.968C223.867 37.454 223.741 37.778 223.453 37.94C222.733 38.336 222.211 38.534 221.887 38.516ZM209.269 25.808C209.395 25.592 209.593 25.448 209.845 25.394C211.321 25.124 212.455 24.926 213.247 24.818C214.435 24.656 215.533 24.638 216.559 24.782C216.577 24.782 216.631 24.8 216.739 24.8C216.829 24.818 216.901 24.836 216.937 24.836C216.973 24.836 217.045 24.854 217.117 24.872C217.189 24.89 217.243 24.908 217.297 24.944C217.351 24.98 217.405 25.034 217.459 25.07C217.549 25.16 217.639 25.34 217.747 25.61C218.197 26.906 218.395 28.346 218.323 29.966C218.287 30.56 218.197 31.424 218.053 32.576C218.017 32.828 217.981 33.368 217.927 34.232C217.873 35.096 217.783 35.744 217.675 36.194C217.549 36.698 217.387 37.022 217.207 37.202C217.063 37.346 216.631 37.454 215.947 37.49C215.263 37.544 214.633 37.544 214.093 37.508C213.805 37.508 213.661 37.418 213.625 37.238C213.589 37.166 213.589 37.094 213.625 36.986C213.643 36.878 213.679 36.77 213.715 36.644C213.751 36.536 213.769 36.446 213.769 36.392C213.823 36.068 213.877 35.744 213.913 35.402C213.985 34.808 214.021 34.16 214.057 33.458C214.075 32.594 214.057 31.316 214.003 29.606C213.985 29.354 213.949 29.174 213.895 29.066C213.733 28.778 213.355 28.706 212.779 28.832C212.113 28.994 210.925 29.048 209.215 28.976C209.125 28.976 209.071 28.958 209.035 28.922C208.981 28.886 208.963 28.778 208.981 28.634C209.089 26.906 209.179 25.952 209.269 25.808ZM238.699 23.036C239.383 23 239.761 22.982 239.797 22.982C240.193 23 240.571 23.036 240.967 23.09C241.363 23.144 241.705 23.18 242.011 23.198C242.353 23.234 242.533 23.432 242.551 23.774C242.551 24.206 242.587 24.872 242.641 25.754C242.695 26.654 242.731 27.32 242.749 27.77C242.767 28.112 242.767 28.724 242.767 29.588C242.767 30.47 242.767 31.082 242.767 31.406C242.767 31.892 242.767 32.882 242.767 34.394C242.767 35.906 242.767 36.914 242.767 37.4V37.436C242.767 37.688 242.731 37.94 242.659 38.156C242.497 38.606 242.209 38.822 241.795 38.804C241.597 38.804 241.363 38.822 241.111 38.822C240.859 38.822 240.643 38.822 240.463 38.786C240.319 38.786 240.157 38.732 240.013 38.642C239.851 38.57 239.743 38.462 239.707 38.354C239.347 37.49 239.167 36.824 239.149 36.356C239.095 35.312 239.059 33.53 239.041 31.046C239.023 28.562 239.005 26.87 238.969 25.952C238.969 25.664 238.951 25.376 238.915 25.052C238.879 24.728 238.843 24.368 238.807 23.954L238.699 23.036ZM227.269 25.808C227.395 25.592 227.593 25.448 227.845 25.394C229.321 25.124 230.455 24.926 231.247 24.818C232.435 24.656 233.533 24.638 234.559 24.782C234.577 24.782 234.631 24.8 234.739 24.8C234.829 24.818 234.901 24.836 234.937 24.836C234.973 24.836 235.045 24.854 235.117 24.872C235.189 24.89 235.243 24.908 235.297 24.944C235.351 24.98 235.405 25.034 235.459 25.07C235.549 25.16 235.639 25.34 235.747 25.61C236.197 26.906 236.395 28.346 236.323 29.966C236.287 30.56 236.197 31.424 236.053 32.576C236.017 32.828 235.981 33.368 235.927 34.232C235.873 35.096 235.783 35.744 235.675 36.194C235.549 36.698 235.387 37.022 235.207 37.202C235.063 37.346 234.631 37.454 233.947 37.49C233.263 37.544 232.633 37.544 232.093 37.508C231.805 37.508 231.661 37.418 231.625 37.238C231.589 37.166 231.589 37.094 231.625 36.986C231.643 36.878 231.679 36.77 231.715 36.644C231.751 36.536 231.769 36.446 231.769 36.392C231.823 36.068 231.877 35.744 231.913 35.402C231.985 34.808 232.021 34.16 232.057 33.458C232.075 32.594 232.057 31.316 232.003 29.606C231.985 29.354 231.949 29.174 231.895 29.066C231.733 28.778 231.355 28.706 230.779 28.832C230.113 28.994 228.925 29.048 227.215 28.976C227.125 28.976 227.071 28.958 227.035 28.922C226.981 28.886 226.963 28.778 226.981 28.634C227.089 26.906 227.179 25.952 227.269 25.808Z" fill="white"/>
</svg>
