<svg width="312" height="58" viewBox="0 0 312 58" fill="none" xmlns="http://www.w3.org/2000/svg">
<rect width="312" height="58" rx="16" fill="#99C08E"/>
<path d="M109.27 33.453C109.234 33.633 109.18 34.101 109.108 34.839C109.036 35.577 109 36.009 108.982 36.117C108.928 36.387 108.766 36.549 108.514 36.585C108.244 36.639 107.632 36.675 106.66 36.693C106.516 36.693 106.426 36.657 106.354 36.585C106.282 36.513 106.228 36.405 106.228 36.261C106.21 35.955 106.21 35.667 106.228 35.397C106.228 35.145 106.228 34.911 106.228 34.695C106.21 34.479 106.192 34.299 106.156 34.137C106.12 33.993 106.066 33.867 105.976 33.759C105.868 33.669 105.742 33.615 105.58 33.579C105.364 33.543 104.482 33.507 102.934 33.453C101.386 33.417 100.45 33.381 100.126 33.381C99.9096 33.381 99.7476 33.255 99.6396 32.985C99.4056 32.481 99.3876 31.869 99.5856 31.131C99.6036 31.005 99.7656 30.915 100.072 30.843C100.108 30.825 100.468 30.825 101.152 30.825C101.836 30.825 102.196 30.825 102.232 30.825C102.61 30.807 103.726 30.771 105.562 30.735C107.398 30.699 108.46 30.663 108.784 30.645C109.144 30.645 110.152 30.627 111.79 30.609C113.428 30.609 114.346 30.591 114.544 30.591C114.796 30.591 115.012 30.753 115.174 31.113C115.426 31.653 115.48 32.175 115.336 32.679C115.282 32.859 115.138 33.003 114.904 33.093C114.634 33.201 113.698 33.291 112.096 33.327C110.476 33.363 109.648 33.399 109.576 33.399L109.27 33.453ZM105.634 22.041C107.092 21.951 107.902 21.897 108.082 21.879C108.388 21.879 108.73 21.987 109.09 22.167C109.162 22.203 109.234 22.293 109.306 22.401C109.36 22.509 109.396 22.617 109.396 22.689C109.378 23.445 109.486 24.093 109.702 24.669C109.792 24.957 109.99 25.137 110.278 25.209C111.106 25.407 112.168 25.677 113.428 26.037C113.644 26.109 113.788 26.181 113.878 26.271C113.95 26.379 113.95 26.523 113.86 26.721C113.788 26.865 113.734 27.045 113.698 27.297C113.644 27.549 113.608 27.711 113.59 27.783C113.482 28.161 113.266 28.431 112.978 28.593C112.672 28.755 112.276 28.863 111.808 28.917C111.736 28.935 111.502 28.971 111.142 29.043C110.782 29.115 110.494 29.133 110.314 29.133C110.026 29.133 109.756 29.043 109.468 28.827C109.126 28.575 108.82 28.269 108.55 27.909C108.136 27.405 107.632 27.045 107.02 26.793C106.768 26.685 106.498 26.703 106.174 26.829C105.562 27.081 104.806 27.423 103.942 27.855C103.906 27.873 103.852 27.891 103.798 27.909C103.546 28.053 103.348 28.143 103.204 28.197C103.06 28.269 102.862 28.323 102.628 28.377C102.376 28.431 102.16 28.449 101.944 28.431C101.674 28.413 101.494 28.359 101.404 28.287C101.296 28.215 101.242 28.071 101.206 27.837C101.17 27.621 101.116 27.423 101.044 27.207C100.756 26.415 101.026 25.821 101.872 25.443C103.96 24.507 105.04 24.003 105.13 23.967C105.346 23.877 105.508 23.751 105.58 23.589C105.652 23.427 105.706 23.229 105.724 22.977C105.724 22.941 105.688 22.635 105.634 22.041ZM133.354 27.387C133.336 28.143 133.156 28.665 132.814 28.953C132.67 29.061 132.49 29.151 132.274 29.187C132.058 29.223 131.86 29.241 131.698 29.223H131.464L131.068 29.115C130.816 29.061 130.708 28.899 130.708 28.647C130.708 26.631 130.708 25.245 130.672 24.525C130.618 23.733 130.6 22.761 130.6 21.609C130.6 21.375 130.672 21.177 130.852 21.015C131.014 20.871 131.23 20.781 131.482 20.781L132.76 20.907L132.94 21.051C133.012 21.105 133.102 21.213 133.246 21.375C133.372 21.537 133.444 21.699 133.444 21.843V23.625C133.426 23.625 133.408 23.841 133.408 24.255C133.408 24.687 133.39 25.245 133.39 25.929C133.372 26.613 133.354 27.099 133.354 27.387ZM129.394 23.787C129.736 23.859 129.97 23.949 130.096 24.057C130.222 24.165 130.294 24.381 130.33 24.669C130.33 24.813 130.348 25.029 130.348 25.317V25.803C130.348 26.109 130.15 26.325 129.736 26.469C129.448 26.577 129.106 26.649 128.71 26.703C128.242 26.775 127.972 26.613 127.9 26.217C127.72 25.461 127.828 24.705 128.26 23.949C128.296 23.913 128.35 23.877 128.422 23.841C128.494 23.823 128.62 23.805 128.782 23.787C128.926 23.769 129.034 23.751 129.07 23.733C129.07 23.733 129.178 23.751 129.394 23.787ZM122.464 23.391C121.816 23.247 121.006 23.265 120.034 23.445C119.062 23.625 118.378 23.715 118.018 23.697C118.144 22.617 118.234 21.843 118.306 21.375C119.26 21.249 119.764 21.177 119.836 21.177C121.456 21.087 122.5 21.051 123.004 21.069C123.256 21.087 123.508 21.123 123.76 21.159C124.012 21.213 124.336 21.285 124.732 21.375C125.11 21.483 125.362 21.537 125.506 21.555C125.938 21.663 126.1 21.969 125.956 22.455C125.812 22.941 125.704 23.283 125.632 23.499C125.56 23.715 125.416 23.985 125.236 24.345C125.056 24.705 124.84 24.993 124.588 25.227C124.516 25.299 124.426 25.389 124.318 25.497C124.192 25.605 124.102 25.695 124.066 25.731C124.03 25.767 123.976 25.821 123.94 25.893C123.904 25.965 123.886 26.037 123.904 26.073C123.922 26.127 123.958 26.181 124.03 26.253C124.084 26.325 124.174 26.397 124.3 26.469C124.372 26.523 124.48 26.631 124.66 26.775C124.822 26.919 124.93 27.027 124.966 27.081C125.128 27.315 125.344 27.549 125.596 27.801C125.848 28.053 126.046 28.287 126.208 28.521C126.496 28.953 126.442 29.277 126.01 29.493C125.866 29.583 125.668 29.709 125.416 29.889C125.164 30.069 124.984 30.177 124.894 30.231C124.804 30.303 124.732 30.339 124.66 30.357C124.588 30.375 124.498 30.375 124.408 30.339C124.318 30.303 124.264 30.285 124.228 30.267C124.192 30.267 124.12 30.213 123.994 30.123C123.868 30.051 123.796 29.997 123.778 29.979C123.688 29.943 123.634 29.907 123.616 29.871C123.58 29.835 123.562 29.817 123.562 29.799C123.562 29.781 123.526 29.727 123.472 29.655C123.4 29.583 123.31 29.475 123.184 29.349C123.13 29.313 123.04 29.205 122.896 29.007C122.752 28.827 122.608 28.665 122.5 28.557C122.14 28.197 121.744 28.035 121.312 28.035C120.88 28.035 120.358 28.251 119.71 28.683C119.35 28.917 118.972 29.223 118.576 29.601C118.216 29.925 118 29.853 117.892 29.403C117.658 28.467 117.532 27.891 117.496 27.657C117.424 27.261 117.478 26.901 117.658 26.595C117.838 26.307 118.144 26.091 118.558 25.947C119.17 25.767 119.746 25.515 120.268 25.155C120.772 24.795 121.366 24.327 122.05 23.733C122.05 23.733 122.194 23.625 122.464 23.391ZM127.54 35.235C127.828 35.235 128.08 35.127 128.296 34.875C128.512 34.641 128.62 34.353 128.62 33.993C128.62 33.489 128.332 33.183 127.792 33.057C127.198 32.949 126.028 32.877 124.282 32.877H124.264C124.084 32.877 123.94 32.913 123.814 32.967C123.688 33.039 123.58 33.129 123.508 33.255C123.436 33.381 123.382 33.489 123.346 33.579C123.31 33.687 123.274 33.813 123.238 33.993C123.202 34.083 123.202 34.155 123.202 34.227C123.202 34.425 123.256 34.587 123.4 34.695C123.544 34.821 123.706 34.893 123.922 34.929C124.12 34.983 124.39 35.019 124.75 35.055C125.092 35.091 125.398 35.127 125.668 35.127C125.92 35.145 126.262 35.163 126.676 35.181C127.09 35.217 127.36 35.235 127.486 35.235H127.54ZM124.894 31.041C125.578 31.041 126.406 31.113 127.342 31.221C128.278 31.329 129.07 31.473 129.718 31.653C130.816 31.977 131.428 32.553 131.554 33.381C131.59 33.597 131.608 33.795 131.608 33.975C131.608 34.785 131.284 35.433 130.654 35.901C130.222 36.225 129.862 36.495 129.574 36.675C129.286 36.855 128.944 37.035 128.512 37.197C128.08 37.377 127.648 37.467 127.216 37.467C127.036 37.467 126.604 37.503 125.902 37.539C125.2 37.575 124.732 37.593 124.498 37.593C124.156 37.593 123.85 37.575 123.598 37.521C123.526 37.521 123.454 37.521 123.346 37.485C122.842 37.413 122.446 37.341 122.194 37.287C121.924 37.233 121.6 37.125 121.222 36.945C120.844 36.783 120.52 36.567 120.268 36.297C119.782 35.829 119.548 35.397 119.548 34.983C119.548 34.155 119.656 33.525 119.908 33.111C120.574 31.995 121.96 31.311 124.048 31.095C124.318 31.059 124.606 31.041 124.894 31.041ZM148.114 36.621C147.538 36.621 147.142 36.531 146.926 36.315C146.71 36.099 146.602 35.703 146.566 35.109C146.476 33.435 146.44 32.283 146.44 31.653C146.44 30.771 146.494 27.981 146.62 23.301C146.62 23.175 146.638 23.031 146.674 22.887C146.692 22.743 146.71 22.617 146.746 22.509C146.764 22.401 146.8 22.275 146.854 22.095C146.89 21.915 146.926 21.789 146.962 21.681C146.998 21.537 147.07 21.429 147.196 21.393C147.232 21.393 147.358 21.357 147.556 21.303C147.754 21.249 147.898 21.213 147.97 21.195C148.042 21.177 148.15 21.159 148.33 21.123C148.492 21.087 148.618 21.087 148.726 21.087C148.834 21.087 148.96 21.105 149.104 21.141C149.248 21.177 149.374 21.213 149.518 21.267C149.86 21.447 150.058 21.771 150.094 22.239C150.094 22.455 150.112 23.175 150.13 24.417C150.13 25.659 150.166 26.433 150.202 26.739C150.238 26.955 150.364 27.189 150.58 27.423C150.688 27.549 150.796 27.675 150.922 27.801C151.048 27.945 151.192 28.089 151.354 28.233C151.498 28.395 151.624 28.521 151.732 28.593C151.876 28.737 151.966 28.899 152.038 29.061C152.11 29.241 152.128 29.439 152.11 29.655C152.092 29.871 152.074 30.033 152.056 30.141C152.02 30.249 151.984 30.447 151.912 30.699C151.804 31.131 151.426 31.365 150.778 31.365C150.436 31.365 150.22 31.419 150.148 31.509C150.058 31.617 150.022 31.851 150.04 32.247C150.04 32.517 150.04 33.003 150.058 33.687C150.076 34.371 150.094 34.839 150.094 35.073C150.094 35.559 149.968 35.883 149.68 36.045C148.96 36.441 148.438 36.639 148.114 36.621ZM137.566 29.529C137.422 29.511 137.224 29.475 137.008 29.439C136.792 29.403 136.594 29.367 136.432 29.331C136.252 29.295 136.108 29.277 135.964 29.241C135.64 29.205 135.478 29.061 135.46 28.809C135.388 28.161 135.298 27.387 135.19 26.451C135.334 26.451 135.532 26.415 135.784 26.379C136.036 26.343 136.234 26.325 136.396 26.289C136.558 26.271 136.738 26.253 136.954 26.253C137.17 26.253 137.368 26.271 137.548 26.307C137.728 26.343 137.854 26.343 137.962 26.343C138.052 26.343 138.196 26.343 138.376 26.307C138.556 26.289 138.7 26.271 138.808 26.271C138.916 26.271 139.114 26.271 139.384 26.271C139.654 26.271 139.87 26.253 140.014 26.253C140.158 26.253 140.644 26.217 141.49 26.163C142.336 26.127 142.984 26.091 143.452 26.073C143.992 26.073 144.316 26.127 144.442 26.253C144.55 26.397 144.586 26.721 144.532 27.261C144.46 27.873 144.37 28.377 144.244 28.791C144.208 28.845 144.172 28.899 144.118 28.935C144.046 28.989 143.974 29.043 143.866 29.097C143.758 29.151 143.686 29.187 143.65 29.205C143.704 29.421 143.812 29.763 143.992 30.213C144.154 30.663 144.28 31.059 144.37 31.419C144.442 31.779 144.478 32.139 144.442 32.499C144.334 33.849 143.776 34.857 142.804 35.523C142.408 35.811 141.922 35.901 141.31 35.829C140.554 35.757 139.366 35.541 137.782 35.199C136.774 35.001 136.216 34.353 136.09 33.273C135.91 31.887 136.27 30.771 137.188 29.943C137.188 29.943 137.314 29.799 137.566 29.529ZM140.23 33.561C141.202 33.561 141.832 33.183 142.102 32.427C142.174 32.193 142.156 31.923 142.048 31.599C141.94 31.293 141.778 31.131 141.598 31.113C140.824 31.023 140.248 30.987 139.852 31.023C139.402 31.059 139.06 31.221 138.844 31.473C138.628 31.725 138.52 32.085 138.556 32.517C138.556 32.859 138.646 33.057 138.79 33.111C138.934 33.183 139.402 33.327 140.23 33.561ZM141.994 25.011C140.878 25.479 139.798 25.587 138.79 25.353C138.178 25.209 137.674 24.993 137.242 24.705C137.17 24.669 137.134 24.597 137.098 24.489C137.062 24.399 137.026 24.273 137.008 24.111C136.972 23.949 136.954 23.841 136.954 23.769C136.882 23.517 136.828 23.355 136.828 23.247C136.774 23.139 136.756 23.049 136.792 22.977C136.828 22.905 136.918 22.869 137.098 22.869C137.242 22.869 137.44 22.815 137.728 22.743C137.998 22.671 138.196 22.635 138.304 22.617C139.636 22.473 140.608 22.401 141.22 22.383C141.328 22.383 141.436 22.419 141.508 22.491C141.58 22.563 141.634 22.635 141.652 22.689C141.67 22.761 141.688 22.869 141.724 23.013C141.76 23.157 141.778 23.247 141.778 23.265C141.814 23.445 141.832 23.607 141.868 23.787C141.886 23.967 141.904 24.201 141.922 24.453C141.94 24.705 141.958 24.903 141.994 25.011ZM169.12 21.843C169.12 21.861 169.12 21.879 169.156 21.879C169.192 21.915 169.264 21.933 169.372 21.969C169.48 22.005 169.57 22.023 169.642 22.059C169.714 22.095 169.75 22.131 169.768 22.167C169.858 22.509 169.894 22.905 169.876 23.337C169.858 23.481 169.768 24.435 169.624 26.199C169.498 27.531 169.39 28.863 169.282 30.195C169.156 31.491 169.084 32.265 169.084 32.517C169.048 32.733 169.03 33.021 169.012 33.399C168.994 33.777 168.976 34.119 168.958 34.425C168.922 34.731 168.904 35.019 168.868 35.289C168.832 35.541 168.652 35.901 168.364 36.387C168.292 36.513 168.13 36.567 167.878 36.567C167.824 36.585 167.302 36.585 166.294 36.585C166.114 36.585 165.97 36.549 165.862 36.441C165.754 36.333 165.682 36.207 165.682 36.027L165.556 34.137C165.556 34.101 165.538 33.975 165.52 33.759C165.484 33.543 165.484 33.381 165.502 33.273C165.538 32.751 165.61 32.229 165.718 31.707C165.772 31.365 165.754 31.131 165.646 31.023C165.538 30.915 165.322 30.897 164.998 30.969C164.494 31.077 164.08 30.951 163.756 30.627C163.414 30.303 163.288 29.907 163.378 29.403C163.45 28.935 163.648 28.557 163.972 28.269C164.278 27.999 164.674 27.837 165.178 27.801C165.412 27.801 165.628 27.711 165.808 27.549C165.988 27.387 166.096 27.189 166.114 26.973C166.132 26.613 166.168 26.055 166.24 25.263C166.294 24.489 166.33 23.895 166.366 23.481C166.384 23.301 166.438 22.977 166.546 22.545C166.636 22.149 166.888 21.969 167.302 21.969C167.77 21.987 168.22 21.987 168.634 21.987C168.634 21.987 168.796 21.951 169.12 21.843ZM157.636 30.699C157.636 30.735 157.618 30.879 157.618 31.131C157.618 31.383 157.6 31.563 157.6 31.653C158.752 31.527 160.066 31.563 161.524 31.779C161.704 31.815 161.848 31.905 161.938 32.031C162.01 32.175 162.046 32.337 162.028 32.553C162.01 32.769 161.974 32.967 161.938 33.129C161.902 33.309 161.83 33.525 161.758 33.777C161.668 34.029 161.614 34.209 161.614 34.281C161.506 34.623 161.236 34.839 160.84 34.947C160.732 34.983 160.462 35.055 160.012 35.181C159.562 35.307 159.256 35.379 159.112 35.415C158.968 35.451 158.698 35.487 158.32 35.559C157.924 35.631 157.618 35.685 157.402 35.685C157.186 35.685 156.916 35.685 156.61 35.649C156.286 35.613 155.998 35.559 155.728 35.469C155.584 35.433 155.332 35.325 154.936 35.181C154.54 35.037 154.252 34.929 154.036 34.821C153.676 34.677 153.496 34.335 153.532 33.813C153.532 33.309 153.604 32.643 153.73 31.815C153.838 30.987 153.91 30.321 153.928 29.799C153.892 28.647 154.216 28.053 154.918 28.053C155.224 28.053 155.656 28.071 156.196 28.125C156.736 28.179 157.222 28.197 157.672 28.179C158.104 28.161 158.518 28.071 158.914 27.909C158.914 27.909 158.914 27.765 158.878 27.495C158.842 27.243 158.806 26.973 158.77 26.685C158.734 26.397 158.716 26.253 158.716 26.235C158.716 26.217 158.698 26.181 158.662 26.145C158.626 26.109 158.59 26.073 158.572 26.073C157.672 25.893 157.096 25.803 156.88 25.785C156.736 25.785 156.52 25.785 156.268 25.821C156.016 25.857 155.836 25.875 155.728 25.875C155.206 25.875 154.54 25.857 153.73 25.821C153.658 25.821 153.586 25.803 153.55 25.767C153.496 25.731 153.46 25.695 153.424 25.623C153.388 25.551 153.37 25.497 153.37 25.443C153.37 25.407 153.352 25.335 153.352 25.245C153.334 25.155 153.334 25.083 153.334 25.047C153.298 24.921 153.28 24.795 153.28 24.687C153.28 24.579 153.28 24.453 153.316 24.345C153.334 24.237 153.352 24.165 153.37 24.093C153.37 24.021 153.406 23.931 153.46 23.805C153.496 23.697 153.532 23.607 153.568 23.553C153.586 23.517 153.64 23.409 153.73 23.265C153.802 23.121 153.856 23.031 153.892 22.959C153.928 22.905 154.09 22.851 154.396 22.797C155.692 22.581 156.484 22.473 156.772 22.437C156.97 22.437 157.258 22.455 157.636 22.509C157.996 22.563 158.248 22.581 158.392 22.581C158.572 22.599 158.824 22.599 159.184 22.581C159.544 22.563 159.814 22.563 159.994 22.563C160.372 22.581 160.75 22.671 161.146 22.815C161.524 22.959 161.866 23.193 162.154 23.517C162.442 23.841 162.568 24.201 162.568 24.615C162.55 24.975 162.568 25.641 162.622 26.577C162.658 27.513 162.676 28.179 162.676 28.539C162.676 28.701 162.658 28.845 162.622 28.953C162.586 29.079 162.568 29.169 162.55 29.223C162.514 29.277 162.478 29.367 162.406 29.493C162.334 29.637 162.262 29.745 162.226 29.817C162.154 29.961 162.01 30.087 161.812 30.159C160.732 30.591 159.85 30.735 159.166 30.591C158.932 30.573 158.77 30.573 158.662 30.573C158.554 30.573 158.392 30.609 158.158 30.645C157.906 30.681 157.744 30.699 157.636 30.699ZM191.321 36.621C190.745 36.621 190.349 36.531 190.133 36.315C189.917 36.099 189.809 35.703 189.773 35.109C189.683 33.435 189.647 32.283 189.647 31.653C189.647 30.771 189.701 27.981 189.827 23.301C189.827 23.175 189.845 23.031 189.881 22.887C189.899 22.743 189.917 22.617 189.953 22.509C189.971 22.401 190.007 22.275 190.061 22.095C190.097 21.915 190.133 21.789 190.169 21.681C190.205 21.537 190.277 21.429 190.403 21.393C190.439 21.393 190.565 21.357 190.763 21.303C190.961 21.249 191.105 21.213 191.177 21.195C191.249 21.177 191.357 21.159 191.537 21.123C191.699 21.087 191.825 21.087 191.933 21.087C192.041 21.087 192.167 21.105 192.311 21.141C192.455 21.177 192.581 21.213 192.725 21.267C193.067 21.447 193.265 21.771 193.301 22.239C193.301 22.455 193.319 23.175 193.337 24.417C193.337 25.659 193.373 26.433 193.409 26.739C193.445 26.955 193.571 27.189 193.787 27.423C193.895 27.549 194.003 27.675 194.129 27.801C194.255 27.945 194.399 28.089 194.561 28.233C194.705 28.395 194.831 28.521 194.939 28.593C195.083 28.737 195.173 28.899 195.245 29.061C195.317 29.241 195.335 29.439 195.317 29.655C195.299 29.871 195.281 30.033 195.263 30.141C195.227 30.249 195.191 30.447 195.119 30.699C195.011 31.131 194.633 31.365 193.985 31.365C193.643 31.365 193.427 31.419 193.355 31.509C193.265 31.617 193.229 31.851 193.247 32.247C193.247 32.517 193.247 33.003 193.265 33.687C193.283 34.371 193.301 34.839 193.301 35.073C193.301 35.559 193.175 35.883 192.887 36.045C192.167 36.441 191.645 36.639 191.321 36.621ZM178.703 23.913C178.829 23.697 179.027 23.553 179.279 23.499C180.755 23.229 181.889 23.031 182.681 22.923C183.869 22.761 184.967 22.743 185.993 22.887C186.011 22.887 186.065 22.905 186.173 22.905C186.263 22.923 186.335 22.941 186.371 22.941C186.407 22.941 186.479 22.959 186.551 22.977C186.623 22.995 186.677 23.013 186.731 23.049C186.785 23.085 186.839 23.139 186.893 23.175C186.983 23.265 187.073 23.445 187.181 23.715C187.631 25.011 187.829 26.451 187.757 28.071C187.721 28.665 187.631 29.529 187.487 30.681C187.451 30.933 187.415 31.473 187.361 32.337C187.307 33.201 187.217 33.849 187.109 34.299C186.983 34.803 186.821 35.127 186.641 35.307C186.497 35.451 186.065 35.559 185.381 35.595C184.697 35.649 184.067 35.649 183.527 35.613C183.239 35.613 183.095 35.523 183.059 35.343C183.023 35.271 183.023 35.199 183.059 35.091C183.077 34.983 183.113 34.875 183.149 34.749C183.185 34.641 183.203 34.551 183.203 34.497C183.257 34.173 183.311 33.849 183.347 33.507C183.419 32.913 183.455 32.265 183.491 31.563C183.509 30.699 183.491 29.421 183.437 27.711C183.419 27.459 183.383 27.279 183.329 27.171C183.167 26.883 182.789 26.811 182.213 26.937C181.547 27.099 180.359 27.153 178.649 27.081C178.559 27.081 178.505 27.063 178.469 27.027C178.415 26.991 178.397 26.883 178.415 26.739C178.523 25.011 178.613 24.057 178.703 23.913ZM208.133 21.141C208.817 21.105 209.195 21.087 209.231 21.087C209.627 21.105 210.005 21.141 210.401 21.195C210.797 21.249 211.139 21.285 211.445 21.303C211.787 21.339 211.967 21.537 211.985 21.879C211.985 22.311 212.021 22.977 212.075 23.859C212.129 24.759 212.165 25.425 212.183 25.875C212.201 26.217 212.201 26.829 212.201 27.693C212.201 28.575 212.201 29.187 212.201 29.511C212.201 29.997 212.201 30.987 212.201 32.499C212.201 34.011 212.201 35.019 212.201 35.505V35.541C212.201 35.793 212.165 36.045 212.093 36.261C211.931 36.711 211.643 36.927 211.229 36.909C211.031 36.909 210.797 36.927 210.545 36.927C210.293 36.927 210.077 36.927 209.897 36.891C209.753 36.891 209.591 36.837 209.447 36.747C209.285 36.675 209.177 36.567 209.141 36.459C208.781 35.595 208.601 34.929 208.583 34.461C208.529 33.417 208.493 31.635 208.475 29.151C208.457 26.667 208.439 24.975 208.403 24.057C208.403 23.769 208.385 23.481 208.349 23.157C208.313 22.833 208.277 22.473 208.241 22.059L208.133 21.141ZM196.703 23.913C196.829 23.697 197.027 23.553 197.279 23.499C198.755 23.229 199.889 23.031 200.681 22.923C201.869 22.761 202.967 22.743 203.993 22.887C204.011 22.887 204.065 22.905 204.173 22.905C204.263 22.923 204.335 22.941 204.371 22.941C204.407 22.941 204.479 22.959 204.551 22.977C204.623 22.995 204.677 23.013 204.731 23.049C204.785 23.085 204.839 23.139 204.893 23.175C204.983 23.265 205.073 23.445 205.181 23.715C205.631 25.011 205.829 26.451 205.757 28.071C205.721 28.665 205.631 29.529 205.487 30.681C205.451 30.933 205.415 31.473 205.361 32.337C205.307 33.201 205.217 33.849 205.109 34.299C204.983 34.803 204.821 35.127 204.641 35.307C204.497 35.451 204.065 35.559 203.381 35.595C202.697 35.649 202.067 35.649 201.527 35.613C201.239 35.613 201.095 35.523 201.059 35.343C201.023 35.271 201.023 35.199 201.059 35.091C201.077 34.983 201.113 34.875 201.149 34.749C201.185 34.641 201.203 34.551 201.203 34.497C201.257 34.173 201.311 33.849 201.347 33.507C201.419 32.913 201.455 32.265 201.491 31.563C201.509 30.699 201.491 29.421 201.437 27.711C201.419 27.459 201.383 27.279 201.329 27.171C201.167 26.883 200.789 26.811 200.213 26.937C199.547 27.099 198.359 27.153 196.649 27.081C196.559 27.081 196.505 27.063 196.469 27.027C196.415 26.991 196.397 26.883 196.415 26.739C196.523 25.011 196.613 24.057 196.703 23.913Z" fill="#578246"/>
<path d="M109.232 35.243C109.196 35.423 109.142 35.891 109.07 36.629C108.998 37.367 108.962 37.799 108.944 37.907C108.89 38.177 108.728 38.339 108.476 38.375C108.206 38.429 107.594 38.465 106.622 38.483C106.478 38.483 106.388 38.447 106.316 38.375C106.244 38.303 106.19 38.195 106.19 38.051C106.172 37.745 106.172 37.457 106.19 37.187C106.19 36.935 106.19 36.701 106.19 36.485C106.172 36.269 106.154 36.089 106.118 35.927C106.082 35.783 106.028 35.657 105.938 35.549C105.83 35.459 105.704 35.405 105.542 35.369C105.326 35.333 104.444 35.297 102.896 35.243C101.348 35.207 100.412 35.171 100.088 35.171C99.8725 35.171 99.7105 35.045 99.6025 34.775C99.3685 34.271 99.3505 33.659 99.5485 32.921C99.5665 32.795 99.7285 32.705 100.034 32.633C100.07 32.615 100.43 32.615 101.114 32.615C101.798 32.615 102.158 32.615 102.194 32.615C102.572 32.597 103.688 32.561 105.524 32.525C107.36 32.489 108.422 32.453 108.746 32.435C109.106 32.435 110.114 32.417 111.752 32.399C113.39 32.399 114.308 32.381 114.506 32.381C114.758 32.381 114.974 32.543 115.136 32.903C115.388 33.443 115.442 33.965 115.298 34.469C115.244 34.649 115.1 34.793 114.866 34.883C114.596 34.991 113.66 35.081 112.058 35.117C110.438 35.153 109.61 35.189 109.538 35.189L109.232 35.243ZM105.596 23.831C107.054 23.741 107.864 23.687 108.044 23.669C108.35 23.669 108.692 23.777 109.052 23.957C109.124 23.993 109.196 24.083 109.268 24.191C109.322 24.299 109.358 24.407 109.358 24.479C109.34 25.235 109.448 25.883 109.664 26.459C109.754 26.747 109.952 26.927 110.24 26.999C111.068 27.197 112.13 27.467 113.39 27.827C113.606 27.899 113.75 27.971 113.84 28.061C113.912 28.169 113.912 28.313 113.822 28.511C113.75 28.655 113.696 28.835 113.66 29.087C113.606 29.339 113.57 29.501 113.552 29.573C113.444 29.951 113.228 30.221 112.94 30.383C112.634 30.545 112.238 30.653 111.77 30.707C111.698 30.725 111.464 30.761 111.104 30.833C110.744 30.905 110.456 30.923 110.276 30.923C109.988 30.923 109.718 30.833 109.43 30.617C109.088 30.365 108.782 30.059 108.512 29.699C108.098 29.195 107.594 28.835 106.982 28.583C106.73 28.475 106.46 28.493 106.136 28.619C105.524 28.871 104.768 29.213 103.904 29.645C103.868 29.663 103.814 29.681 103.76 29.699C103.508 29.843 103.31 29.933 103.166 29.987C103.022 30.059 102.824 30.113 102.59 30.167C102.338 30.221 102.122 30.239 101.906 30.221C101.636 30.203 101.456 30.149 101.366 30.077C101.258 30.005 101.204 29.861 101.168 29.627C101.132 29.411 101.078 29.213 101.006 28.997C100.718 28.205 100.988 27.611 101.834 27.233C103.922 26.297 105.002 25.793 105.092 25.757C105.308 25.667 105.47 25.541 105.542 25.379C105.614 25.217 105.668 25.019 105.686 24.767C105.686 24.731 105.65 24.425 105.596 23.831ZM133.316 29.177C133.298 29.933 133.118 30.455 132.776 30.743C132.632 30.851 132.452 30.941 132.236 30.977C132.02 31.013 131.822 31.031 131.66 31.013H131.426L131.03 30.905C130.778 30.851 130.67 30.689 130.67 30.437C130.67 28.421 130.67 27.035 130.634 26.315C130.58 25.523 130.562 24.551 130.562 23.399C130.562 23.165 130.634 22.967 130.814 22.805C130.976 22.661 131.192 22.571 131.444 22.571L132.722 22.697L132.902 22.841C132.974 22.895 133.064 23.003 133.208 23.165C133.334 23.327 133.406 23.489 133.406 23.633V25.415C133.388 25.415 133.37 25.631 133.37 26.045C133.37 26.477 133.352 27.035 133.352 27.719C133.334 28.403 133.316 28.889 133.316 29.177ZM129.356 25.577C129.698 25.649 129.932 25.739 130.058 25.847C130.184 25.955 130.256 26.171 130.292 26.459C130.292 26.603 130.31 26.819 130.31 27.107V27.593C130.31 27.899 130.112 28.115 129.698 28.259C129.41 28.367 129.068 28.439 128.672 28.493C128.204 28.565 127.934 28.403 127.862 28.007C127.682 27.251 127.79 26.495 128.222 25.739C128.258 25.703 128.312 25.667 128.384 25.631C128.456 25.613 128.582 25.595 128.744 25.577C128.888 25.559 128.996 25.541 129.032 25.523C129.032 25.523 129.14 25.541 129.356 25.577ZM122.426 25.181C121.778 25.037 120.968 25.055 119.996 25.235C119.024 25.415 118.34 25.505 117.98 25.487C118.106 24.407 118.196 23.633 118.268 23.165C119.222 23.039 119.726 22.967 119.798 22.967C121.418 22.877 122.462 22.841 122.966 22.859C123.218 22.877 123.47 22.913 123.722 22.949C123.974 23.003 124.298 23.075 124.694 23.165C125.072 23.273 125.324 23.327 125.468 23.345C125.9 23.453 126.062 23.759 125.918 24.245C125.774 24.731 125.666 25.073 125.594 25.289C125.522 25.505 125.378 25.775 125.198 26.135C125.018 26.495 124.802 26.783 124.55 27.017C124.478 27.089 124.388 27.179 124.28 27.287C124.154 27.395 124.064 27.485 124.028 27.521C123.992 27.557 123.938 27.611 123.902 27.683C123.866 27.755 123.848 27.827 123.866 27.863C123.884 27.917 123.92 27.971 123.992 28.043C124.046 28.115 124.136 28.187 124.262 28.259C124.334 28.313 124.442 28.421 124.622 28.565C124.784 28.709 124.892 28.817 124.928 28.871C125.09 29.105 125.306 29.339 125.558 29.591C125.81 29.843 126.008 30.077 126.17 30.311C126.458 30.743 126.404 31.067 125.972 31.283C125.828 31.373 125.63 31.499 125.378 31.679C125.126 31.859 124.946 31.967 124.856 32.021C124.766 32.093 124.694 32.129 124.622 32.147C124.55 32.165 124.46 32.165 124.37 32.129C124.28 32.093 124.226 32.075 124.19 32.057C124.154 32.057 124.082 32.003 123.956 31.913C123.83 31.841 123.758 31.787 123.74 31.769C123.65 31.733 123.596 31.697 123.578 31.661C123.542 31.625 123.524 31.607 123.524 31.589C123.524 31.571 123.488 31.517 123.434 31.445C123.362 31.373 123.272 31.265 123.146 31.139C123.092 31.103 123.002 30.995 122.858 30.797C122.714 30.617 122.57 30.455 122.462 30.347C122.102 29.987 121.706 29.825 121.274 29.825C120.842 29.825 120.32 30.041 119.672 30.473C119.312 30.707 118.934 31.013 118.538 31.391C118.178 31.715 117.962 31.643 117.854 31.193C117.62 30.257 117.494 29.681 117.458 29.447C117.386 29.051 117.44 28.691 117.62 28.385C117.8 28.097 118.106 27.881 118.52 27.737C119.132 27.557 119.708 27.305 120.23 26.945C120.734 26.585 121.328 26.117 122.012 25.523C122.012 25.523 122.156 25.415 122.426 25.181ZM127.502 37.025C127.79 37.025 128.042 36.917 128.258 36.665C128.474 36.431 128.582 36.143 128.582 35.783C128.582 35.279 128.294 34.973 127.754 34.847C127.16 34.739 125.99 34.667 124.244 34.667H124.226C124.046 34.667 123.902 34.703 123.776 34.757C123.65 34.829 123.542 34.919 123.47 35.045C123.398 35.171 123.344 35.279 123.308 35.369C123.272 35.477 123.236 35.603 123.2 35.783C123.164 35.873 123.164 35.945 123.164 36.017C123.164 36.215 123.218 36.377 123.362 36.485C123.506 36.611 123.668 36.683 123.884 36.719C124.082 36.773 124.352 36.809 124.712 36.845C125.054 36.881 125.36 36.917 125.63 36.917C125.882 36.935 126.224 36.953 126.638 36.971C127.052 37.007 127.322 37.025 127.448 37.025H127.502ZM124.856 32.831C125.54 32.831 126.368 32.903 127.304 33.011C128.24 33.119 129.032 33.263 129.68 33.443C130.778 33.767 131.39 34.343 131.516 35.171C131.552 35.387 131.57 35.585 131.57 35.765C131.57 36.575 131.246 37.223 130.616 37.691C130.184 38.015 129.824 38.285 129.536 38.465C129.248 38.645 128.906 38.825 128.474 38.987C128.042 39.167 127.61 39.257 127.178 39.257C126.998 39.257 126.566 39.293 125.864 39.329C125.162 39.365 124.694 39.383 124.46 39.383C124.118 39.383 123.812 39.365 123.56 39.311C123.488 39.311 123.416 39.311 123.308 39.275C122.804 39.203 122.408 39.131 122.156 39.077C121.886 39.023 121.562 38.915 121.184 38.735C120.806 38.573 120.482 38.357 120.23 38.087C119.744 37.619 119.51 37.187 119.51 36.773C119.51 35.945 119.618 35.315 119.87 34.901C120.536 33.785 121.922 33.101 124.01 32.885C124.28 32.849 124.568 32.831 124.856 32.831ZM148.076 38.411C147.5 38.411 147.104 38.321 146.888 38.105C146.672 37.889 146.564 37.493 146.528 36.899C146.438 35.225 146.402 34.073 146.402 33.443C146.402 32.561 146.456 29.771 146.582 25.091C146.582 24.965 146.6 24.821 146.636 24.677C146.654 24.533 146.672 24.407 146.708 24.299C146.726 24.191 146.762 24.065 146.816 23.885C146.852 23.705 146.888 23.579 146.924 23.471C146.96 23.327 147.032 23.219 147.158 23.183C147.194 23.183 147.32 23.147 147.518 23.093C147.716 23.039 147.86 23.003 147.932 22.985C148.004 22.967 148.112 22.949 148.292 22.913C148.454 22.877 148.58 22.877 148.688 22.877C148.796 22.877 148.922 22.895 149.066 22.931C149.21 22.967 149.336 23.003 149.48 23.057C149.822 23.237 150.02 23.561 150.056 24.029C150.056 24.245 150.074 24.965 150.092 26.207C150.092 27.449 150.128 28.223 150.164 28.529C150.2 28.745 150.326 28.979 150.542 29.213C150.65 29.339 150.758 29.465 150.884 29.591C151.01 29.735 151.154 29.879 151.316 30.023C151.46 30.185 151.586 30.311 151.694 30.383C151.838 30.527 151.928 30.689 152 30.851C152.072 31.031 152.09 31.229 152.072 31.445C152.054 31.661 152.036 31.823 152.018 31.931C151.982 32.039 151.946 32.237 151.874 32.489C151.766 32.921 151.388 33.155 150.74 33.155C150.398 33.155 150.182 33.209 150.11 33.299C150.02 33.407 149.984 33.641 150.002 34.037C150.002 34.307 150.002 34.793 150.02 35.477C150.038 36.161 150.056 36.629 150.056 36.863C150.056 37.349 149.93 37.673 149.642 37.835C148.922 38.231 148.4 38.429 148.076 38.411ZM137.528 31.319C137.384 31.301 137.186 31.265 136.97 31.229C136.754 31.193 136.556 31.157 136.394 31.121C136.214 31.085 136.07 31.067 135.926 31.031C135.602 30.995 135.44 30.851 135.422 30.599C135.35 29.951 135.26 29.177 135.152 28.241C135.296 28.241 135.494 28.205 135.746 28.169C135.998 28.133 136.196 28.115 136.358 28.079C136.52 28.061 136.7 28.043 136.916 28.043C137.132 28.043 137.33 28.061 137.51 28.097C137.69 28.133 137.816 28.133 137.924 28.133C138.014 28.133 138.158 28.133 138.338 28.097C138.518 28.079 138.662 28.061 138.77 28.061C138.878 28.061 139.076 28.061 139.346 28.061C139.616 28.061 139.832 28.043 139.976 28.043C140.12 28.043 140.606 28.007 141.452 27.953C142.298 27.917 142.946 27.881 143.414 27.863C143.954 27.863 144.278 27.917 144.404 28.043C144.512 28.187 144.548 28.511 144.494 29.051C144.422 29.663 144.332 30.167 144.206 30.581C144.17 30.635 144.134 30.689 144.08 30.725C144.008 30.779 143.936 30.833 143.828 30.887C143.72 30.941 143.648 30.977 143.612 30.995C143.666 31.211 143.774 31.553 143.954 32.003C144.116 32.453 144.242 32.849 144.332 33.209C144.404 33.569 144.44 33.929 144.404 34.289C144.296 35.639 143.738 36.647 142.766 37.313C142.37 37.601 141.884 37.691 141.272 37.619C140.516 37.547 139.328 37.331 137.744 36.989C136.736 36.791 136.178 36.143 136.052 35.063C135.872 33.677 136.232 32.561 137.15 31.733C137.15 31.733 137.276 31.589 137.528 31.319ZM140.192 35.351C141.164 35.351 141.794 34.973 142.064 34.217C142.136 33.983 142.118 33.713 142.01 33.389C141.902 33.083 141.74 32.921 141.56 32.903C140.786 32.813 140.21 32.777 139.814 32.813C139.364 32.849 139.022 33.011 138.806 33.263C138.59 33.515 138.482 33.875 138.518 34.307C138.518 34.649 138.608 34.847 138.752 34.901C138.896 34.973 139.364 35.117 140.192 35.351ZM141.956 26.801C140.84 27.269 139.76 27.377 138.752 27.143C138.14 26.999 137.636 26.783 137.204 26.495C137.132 26.459 137.096 26.387 137.06 26.279C137.024 26.189 136.988 26.063 136.97 25.901C136.934 25.739 136.916 25.631 136.916 25.559C136.844 25.307 136.79 25.145 136.79 25.037C136.736 24.929 136.718 24.839 136.754 24.767C136.79 24.695 136.88 24.659 137.06 24.659C137.204 24.659 137.402 24.605 137.69 24.533C137.96 24.461 138.158 24.425 138.266 24.407C139.598 24.263 140.57 24.191 141.182 24.173C141.29 24.173 141.398 24.209 141.47 24.281C141.542 24.353 141.596 24.425 141.614 24.479C141.632 24.551 141.65 24.659 141.686 24.803C141.722 24.947 141.74 25.037 141.74 25.055C141.776 25.235 141.794 25.397 141.83 25.577C141.848 25.757 141.866 25.991 141.884 26.243C141.902 26.495 141.92 26.693 141.956 26.801ZM169.082 23.633C169.082 23.651 169.082 23.669 169.118 23.669C169.154 23.705 169.226 23.723 169.334 23.759C169.442 23.795 169.532 23.813 169.604 23.849C169.676 23.885 169.712 23.921 169.73 23.957C169.82 24.299 169.856 24.695 169.838 25.127C169.82 25.271 169.73 26.225 169.586 27.989C169.46 29.321 169.352 30.653 169.244 31.985C169.118 33.281 169.046 34.055 169.046 34.307C169.01 34.523 168.992 34.811 168.974 35.189C168.956 35.567 168.938 35.909 168.92 36.215C168.884 36.521 168.866 36.809 168.83 37.079C168.794 37.331 168.614 37.691 168.326 38.177C168.254 38.303 168.092 38.357 167.84 38.357C167.786 38.375 167.264 38.375 166.256 38.375C166.076 38.375 165.932 38.339 165.824 38.231C165.716 38.123 165.644 37.997 165.644 37.817L165.518 35.927C165.518 35.891 165.5 35.765 165.482 35.549C165.446 35.333 165.446 35.171 165.464 35.063C165.5 34.541 165.572 34.019 165.68 33.497C165.734 33.155 165.716 32.921 165.608 32.813C165.5 32.705 165.284 32.687 164.96 32.759C164.456 32.867 164.042 32.741 163.718 32.417C163.376 32.093 163.25 31.697 163.34 31.193C163.412 30.725 163.61 30.347 163.934 30.059C164.24 29.789 164.636 29.627 165.14 29.591C165.374 29.591 165.59 29.501 165.77 29.339C165.95 29.177 166.058 28.979 166.076 28.763C166.094 28.403 166.13 27.845 166.202 27.053C166.256 26.279 166.292 25.685 166.328 25.271C166.346 25.091 166.4 24.767 166.508 24.335C166.598 23.939 166.85 23.759 167.264 23.759C167.732 23.777 168.182 23.777 168.596 23.777C168.596 23.777 168.758 23.741 169.082 23.633ZM157.598 32.489C157.598 32.525 157.58 32.669 157.58 32.921C157.58 33.173 157.562 33.353 157.562 33.443C158.714 33.317 160.028 33.353 161.486 33.569C161.666 33.605 161.81 33.695 161.9 33.821C161.972 33.965 162.008 34.127 161.99 34.343C161.972 34.559 161.936 34.757 161.9 34.919C161.864 35.099 161.792 35.315 161.72 35.567C161.63 35.819 161.576 35.999 161.576 36.071C161.468 36.413 161.198 36.629 160.802 36.737C160.694 36.773 160.424 36.845 159.974 36.971C159.524 37.097 159.218 37.169 159.074 37.205C158.93 37.241 158.66 37.277 158.282 37.349C157.886 37.421 157.58 37.475 157.364 37.475C157.148 37.475 156.878 37.475 156.572 37.439C156.248 37.403 155.96 37.349 155.69 37.259C155.546 37.223 155.294 37.115 154.898 36.971C154.502 36.827 154.214 36.719 153.998 36.611C153.638 36.467 153.458 36.125 153.494 35.603C153.494 35.099 153.566 34.433 153.692 33.605C153.8 32.777 153.872 32.111 153.89 31.589C153.854 30.437 154.178 29.843 154.88 29.843C155.186 29.843 155.618 29.861 156.158 29.915C156.698 29.969 157.184 29.987 157.634 29.969C158.066 29.951 158.48 29.861 158.876 29.699C158.876 29.699 158.876 29.555 158.84 29.285C158.804 29.033 158.768 28.763 158.732 28.475C158.696 28.187 158.678 28.043 158.678 28.025C158.678 28.007 158.66 27.971 158.624 27.935C158.588 27.899 158.552 27.863 158.534 27.863C157.634 27.683 157.058 27.593 156.842 27.575C156.698 27.575 156.482 27.575 156.23 27.611C155.978 27.647 155.798 27.665 155.69 27.665C155.168 27.665 154.502 27.647 153.692 27.611C153.62 27.611 153.548 27.593 153.512 27.557C153.458 27.521 153.422 27.485 153.386 27.413C153.35 27.341 153.332 27.287 153.332 27.233C153.332 27.197 153.314 27.125 153.314 27.035C153.296 26.945 153.296 26.873 153.296 26.837C153.26 26.711 153.242 26.585 153.242 26.477C153.242 26.369 153.242 26.243 153.278 26.135C153.296 26.027 153.314 25.955 153.332 25.883C153.332 25.811 153.368 25.721 153.422 25.595C153.458 25.487 153.494 25.397 153.53 25.343C153.548 25.307 153.602 25.199 153.692 25.055C153.764 24.911 153.818 24.821 153.854 24.749C153.89 24.695 154.052 24.641 154.358 24.587C155.654 24.371 156.446 24.263 156.734 24.227C156.932 24.227 157.22 24.245 157.598 24.299C157.958 24.353 158.21 24.371 158.354 24.371C158.534 24.389 158.786 24.389 159.146 24.371C159.506 24.353 159.776 24.353 159.956 24.353C160.334 24.371 160.712 24.461 161.108 24.605C161.486 24.749 161.828 24.983 162.116 25.307C162.404 25.631 162.53 25.991 162.53 26.405C162.512 26.765 162.53 27.431 162.584 28.367C162.62 29.303 162.638 29.969 162.638 30.329C162.638 30.491 162.62 30.635 162.584 30.743C162.548 30.869 162.53 30.959 162.512 31.013C162.476 31.067 162.44 31.157 162.368 31.283C162.296 31.427 162.224 31.535 162.188 31.607C162.116 31.751 161.972 31.877 161.774 31.949C160.694 32.381 159.812 32.525 159.128 32.381C158.894 32.363 158.732 32.363 158.624 32.363C158.516 32.363 158.354 32.399 158.12 32.435C157.868 32.471 157.706 32.489 157.598 32.489ZM191.284 38.411C190.708 38.411 190.312 38.321 190.096 38.105C189.88 37.889 189.772 37.493 189.736 36.899C189.646 35.225 189.61 34.073 189.61 33.443C189.61 32.561 189.664 29.771 189.79 25.091C189.79 24.965 189.808 24.821 189.844 24.677C189.862 24.533 189.88 24.407 189.916 24.299C189.934 24.191 189.97 24.065 190.024 23.885C190.06 23.705 190.096 23.579 190.132 23.471C190.168 23.327 190.24 23.219 190.366 23.183C190.402 23.183 190.528 23.147 190.726 23.093C190.924 23.039 191.068 23.003 191.14 22.985C191.212 22.967 191.32 22.949 191.5 22.913C191.662 22.877 191.788 22.877 191.896 22.877C192.004 22.877 192.13 22.895 192.274 22.931C192.418 22.967 192.544 23.003 192.688 23.057C193.03 23.237 193.228 23.561 193.264 24.029C193.264 24.245 193.282 24.965 193.3 26.207C193.3 27.449 193.336 28.223 193.372 28.529C193.408 28.745 193.534 28.979 193.75 29.213C193.858 29.339 193.966 29.465 194.092 29.591C194.218 29.735 194.362 29.879 194.524 30.023C194.668 30.185 194.794 30.311 194.902 30.383C195.046 30.527 195.136 30.689 195.208 30.851C195.28 31.031 195.298 31.229 195.28 31.445C195.262 31.661 195.244 31.823 195.226 31.931C195.19 32.039 195.154 32.237 195.082 32.489C194.974 32.921 194.596 33.155 193.948 33.155C193.606 33.155 193.39 33.209 193.318 33.299C193.228 33.407 193.192 33.641 193.21 34.037C193.21 34.307 193.21 34.793 193.228 35.477C193.246 36.161 193.264 36.629 193.264 36.863C193.264 37.349 193.138 37.673 192.85 37.835C192.13 38.231 191.608 38.429 191.284 38.411ZM178.666 25.703C178.792 25.487 178.99 25.343 179.242 25.289C180.718 25.019 181.852 24.821 182.644 24.713C183.832 24.551 184.93 24.533 185.956 24.677C185.974 24.677 186.028 24.695 186.136 24.695C186.226 24.713 186.298 24.731 186.334 24.731C186.37 24.731 186.442 24.749 186.514 24.767C186.586 24.785 186.64 24.803 186.694 24.839C186.748 24.875 186.802 24.929 186.856 24.965C186.946 25.055 187.036 25.235 187.144 25.505C187.594 26.801 187.792 28.241 187.72 29.861C187.684 30.455 187.594 31.319 187.45 32.471C187.414 32.723 187.378 33.263 187.324 34.127C187.27 34.991 187.18 35.639 187.072 36.089C186.946 36.593 186.784 36.917 186.604 37.097C186.46 37.241 186.028 37.349 185.344 37.385C184.66 37.439 184.03 37.439 183.49 37.403C183.202 37.403 183.058 37.313 183.022 37.133C182.986 37.061 182.986 36.989 183.022 36.881C183.04 36.773 183.076 36.665 183.112 36.539C183.148 36.431 183.166 36.341 183.166 36.287C183.22 35.963 183.274 35.639 183.31 35.297C183.382 34.703 183.418 34.055 183.454 33.353C183.472 32.489 183.454 31.211 183.4 29.501C183.382 29.249 183.346 29.069 183.292 28.961C183.13 28.673 182.752 28.601 182.176 28.727C181.51 28.889 180.322 28.943 178.612 28.871C178.522 28.871 178.468 28.853 178.432 28.817C178.378 28.781 178.36 28.673 178.378 28.529C178.486 26.801 178.576 25.847 178.666 25.703ZM208.096 22.931C208.78 22.895 209.158 22.877 209.194 22.877C209.59 22.895 209.968 22.931 210.364 22.985C210.76 23.039 211.102 23.075 211.408 23.093C211.75 23.129 211.93 23.327 211.948 23.669C211.948 24.101 211.984 24.767 212.038 25.649C212.092 26.549 212.128 27.215 212.146 27.665C212.164 28.007 212.164 28.619 212.164 29.483C212.164 30.365 212.164 30.977 212.164 31.301C212.164 31.787 212.164 32.777 212.164 34.289C212.164 35.801 212.164 36.809 212.164 37.295V37.331C212.164 37.583 212.128 37.835 212.056 38.051C211.894 38.501 211.606 38.717 211.192 38.699C210.994 38.699 210.76 38.717 210.508 38.717C210.256 38.717 210.04 38.717 209.86 38.681C209.716 38.681 209.554 38.627 209.41 38.537C209.248 38.465 209.14 38.357 209.104 38.249C208.744 37.385 208.564 36.719 208.546 36.251C208.492 35.207 208.456 33.425 208.438 30.941C208.42 28.457 208.402 26.765 208.366 25.847C208.366 25.559 208.348 25.271 208.312 24.947C208.276 24.623 208.24 24.263 208.204 23.849L208.096 22.931ZM196.666 25.703C196.792 25.487 196.99 25.343 197.242 25.289C198.718 25.019 199.852 24.821 200.644 24.713C201.832 24.551 202.93 24.533 203.956 24.677C203.974 24.677 204.028 24.695 204.136 24.695C204.226 24.713 204.298 24.731 204.334 24.731C204.37 24.731 204.442 24.749 204.514 24.767C204.586 24.785 204.64 24.803 204.694 24.839C204.748 24.875 204.802 24.929 204.856 24.965C204.946 25.055 205.036 25.235 205.144 25.505C205.594 26.801 205.792 28.241 205.72 29.861C205.684 30.455 205.594 31.319 205.45 32.471C205.414 32.723 205.378 33.263 205.324 34.127C205.27 34.991 205.18 35.639 205.072 36.089C204.946 36.593 204.784 36.917 204.604 37.097C204.46 37.241 204.028 37.349 203.344 37.385C202.66 37.439 202.03 37.439 201.49 37.403C201.202 37.403 201.058 37.313 201.022 37.133C200.986 37.061 200.986 36.989 201.022 36.881C201.04 36.773 201.076 36.665 201.112 36.539C201.148 36.431 201.166 36.341 201.166 36.287C201.22 35.963 201.274 35.639 201.31 35.297C201.382 34.703 201.418 34.055 201.454 33.353C201.472 32.489 201.454 31.211 201.4 29.501C201.382 29.249 201.346 29.069 201.292 28.961C201.13 28.673 200.752 28.601 200.176 28.727C199.51 28.889 198.322 28.943 196.612 28.871C196.522 28.871 196.468 28.853 196.432 28.817C196.378 28.781 196.36 28.673 196.378 28.529C196.486 26.801 196.576 25.847 196.666 25.703Z" fill="white"/>
</svg>
