<svg width="288" height="58" viewBox="0 0 288 58" fill="none" xmlns="http://www.w3.org/2000/svg">
<g clip-path="url(#clip0_1_38119)">
<path d="M11.1108 3.08256C11.8304 3.11919 276.752 3.05204 277.805 3.08256C280.046 3.16193 285.355 3.04593 286.408 12.0024C287.638 22.4607 286.644 44.7082 286.173 48.408C285.706 52.1078 284.887 57.9933 280.635 57.9933H6.59538C5.89285 57.9933 0.510579 57.4072 -0.427069 46.3078C-1.36472 35.2085 -0.894477 19.9148 -0.786832 16.5935C-0.679186 13.2784 -0.387411 4.10825 4.83906 3.43056C8.08542 3.0154 9.81058 3.0154 11.1108 3.08256Z" fill="#578246"/>
<path d="M11.1108 0.0301907C11.8303 0.0668223 276.751 -0.000335593 277.805 0.036296C280.046 0.115664 285.354 -0.00033474 286.408 8.95609C287.638 19.4144 286.643 41.662 286.173 45.3618C285.706 49.0616 284.887 54.947 280.635 54.947H6.59538C5.89285 54.947 0.510578 54.3609 -0.42707 43.2616C-1.36472 32.1622 -0.894477 16.8624 -0.786832 13.5411C-0.679187 10.226 -0.387411 1.05587 4.83906 0.384296C8.08825 -0.0369672 9.81341 -0.0308619 11.1108 0.0301907Z" fill="#99C08E"/>
<path d="M140.316 19.592C140.352 19.844 140.388 20.222 140.406 20.762C140.406 21.302 140.406 21.68 140.37 21.878C140.37 21.968 140.388 22.076 140.424 22.22C140.46 22.364 140.496 22.436 140.496 22.436C140.514 22.526 140.694 22.634 141.018 22.76C141.09 22.796 141.234 22.85 141.414 22.886C141.594 22.922 141.72 22.958 141.792 22.976C141.99 23.048 142.116 23.138 142.17 23.246C142.206 23.354 142.206 23.516 142.17 23.714C142.008 24.344 141.63 24.722 141.036 24.866C140.928 24.902 140.82 24.902 140.73 24.884C140.622 24.866 140.568 24.848 140.55 24.812C140.514 24.794 140.496 24.794 140.46 24.812C140.424 24.848 140.442 24.92 140.496 25.028C140.676 26.342 140.676 27.152 140.496 27.476C140.334 27.728 140.208 27.89 140.1 27.962C139.542 28.268 139.002 28.304 138.498 28.07C138.354 28.016 138.264 27.89 138.246 27.71C138.21 27.53 138.228 27.368 138.264 27.188C138.264 26.99 138.228 26.576 138.156 25.928C138.084 25.298 138.048 24.884 138.048 24.704C138.066 22.256 138.12 20.582 138.21 19.646C138.246 19.286 138.444 19.088 138.822 19.07C139.038 19.07 139.272 19.052 139.506 19.016C139.83 18.98 140.028 18.98 140.1 19.016C140.172 19.07 140.208 19.16 140.244 19.304C140.262 19.448 140.28 19.556 140.316 19.592ZM128.58 22.022L126.816 21.878C126.816 21.122 126.816 20.672 126.834 20.528C126.834 20.492 126.888 20.438 126.996 20.384C127.104 20.33 127.194 20.294 127.266 20.294C127.482 20.294 127.824 20.312 128.292 20.33C128.76 20.366 129.12 20.366 129.372 20.366C130.038 20.348 130.848 20.276 131.82 20.15L129.462 20.024C129.426 19.862 129.426 19.646 129.426 19.358C129.426 19.07 129.408 18.836 129.39 18.638C130.182 18.512 130.596 18.44 130.668 18.44C131.136 18.404 131.622 18.368 132.09 18.35C132.486 18.35 132.774 18.422 132.936 18.566C133.08 18.71 133.17 18.998 133.188 19.394C133.224 19.502 133.224 19.574 133.206 19.646C133.17 19.718 133.17 19.754 133.17 19.772C133.17 19.808 133.152 19.826 133.098 19.862C133.044 19.898 132.99 19.916 132.954 19.916C132.918 19.916 132.828 19.952 132.702 19.988C132.576 20.024 132.45 20.078 132.342 20.132C133.638 20.33 134.358 20.438 134.538 20.456C134.772 20.492 134.916 20.6 134.97 20.798C135.15 21.464 134.916 21.914 134.304 22.148C134.286 22.166 134.142 22.22 133.854 22.328L134.106 22.49C134.646 22.778 134.934 23.156 134.97 23.588C135.006 24.02 134.79 24.434 134.322 24.812C133.836 25.208 133.224 25.424 132.468 25.442H132.378C132.63 25.55 133.242 25.64 134.178 25.676C135.114 25.712 135.618 25.748 135.708 25.766C135.96 25.838 136.086 25.892 136.122 25.892C136.374 25.982 136.536 26.072 136.608 26.18C136.68 26.288 136.716 26.486 136.716 26.738C136.77 27.206 136.77 27.512 136.698 27.638C136.626 27.782 136.464 27.836 136.212 27.836C135.294 27.944 133.26 27.962 130.092 27.89C129.75 27.89 128.634 27.926 126.744 27.962C126.366 27.98 126.096 27.872 125.916 27.62C125.736 27.386 125.7 27.062 125.772 26.666C125.772 26.576 125.79 26.468 125.808 26.36C125.808 26.288 125.808 26.252 125.826 26.216C125.844 26.198 125.916 26.162 126.024 26.09C126.06 26.054 126.114 26.036 126.15 26.018L129.606 25.604C129.642 25.514 129.678 25.406 129.732 25.262C129.444 25.208 129.156 25.118 128.904 25.01C128.4 24.83 127.986 24.542 127.698 24.182C127.428 23.894 127.338 23.57 127.428 23.192C127.5 22.814 127.752 22.49 128.166 22.238L128.58 22.022ZM130.236 23.174C130.218 23.426 130.254 23.606 130.326 23.696C130.398 23.804 130.56 23.858 130.812 23.894C131.136 23.966 131.424 23.966 131.694 23.894C131.766 23.894 131.838 23.84 131.91 23.768C131.982 23.696 132.036 23.606 132.054 23.534C132.054 23.498 132.036 23.426 131.982 23.336C131.91 23.264 131.856 23.192 131.784 23.156C131.532 23.048 131.37 22.976 131.262 22.94C131.154 22.904 130.992 22.886 130.794 22.904C130.578 22.922 130.398 23.012 130.236 23.174ZM128.634 29.24C128.724 29.15 129.228 29.096 130.164 29.096C130.272 29.096 130.38 29.114 130.506 29.132C130.65 29.168 130.812 29.186 131.01 29.186C131.1 29.186 131.244 29.186 131.424 29.168C131.604 29.168 131.73 29.15 131.82 29.15C131.91 29.15 132.036 29.168 132.216 29.168C132.396 29.186 132.522 29.186 132.612 29.186C132.918 29.186 133.242 29.168 133.584 29.132C133.908 29.096 134.286 29.024 134.682 28.952C135.078 28.88 135.402 28.844 135.618 28.808C135.87 28.772 136.14 28.754 136.446 28.754C136.716 28.754 137.184 28.79 137.832 28.826C138.48 28.862 138.894 28.88 139.074 28.88C139.128 28.88 139.164 28.916 139.2 28.952C139.344 29.24 139.434 29.456 139.488 29.618C139.524 29.798 139.56 30.014 139.596 30.302C139.614 30.608 139.632 30.842 139.632 31.004C139.632 31.292 139.614 31.562 139.596 31.814C139.578 32.084 139.56 32.39 139.524 32.75C139.488 33.11 139.47 33.38 139.47 33.542C139.434 33.74 139.308 34.082 139.056 34.568C138.984 34.712 138.876 34.838 138.75 34.91C138.606 34.982 138.498 35.036 138.408 35.036L138.012 35.09C137.796 35.108 137.634 35.126 137.544 35.144C137.418 35.18 137.238 35.198 136.986 35.234C136.734 35.27 136.572 35.288 136.464 35.306C136.392 35.324 136.32 35.324 136.284 35.324C136.032 35.324 135.906 35.18 135.906 34.874C135.87 33.614 135.852 32.732 135.852 32.21C135.834 31.814 135.654 31.616 135.33 31.616C135.294 31.616 135.258 31.634 135.222 31.634C135.042 31.652 134.772 31.688 134.448 31.76C134.124 31.832 133.908 31.868 133.818 31.868C133.728 31.886 133.548 31.922 133.26 31.958C132.972 32.012 132.738 32.048 132.54 32.066C132.342 32.102 132.144 32.102 131.964 32.102C131.496 32.102 130.542 32.048 129.12 31.922C129.048 31.922 128.958 31.886 128.868 31.832C128.778 31.778 128.742 31.724 128.742 31.67C128.688 31.454 128.634 31.184 128.598 30.86C128.562 30.536 128.526 30.212 128.526 29.852C128.508 29.51 128.544 29.312 128.634 29.24ZM149.568 28.214C148.218 28.25 146.994 27.962 145.878 27.314C145.194 26.936 144.726 26.306 144.51 25.406C144.222 24.326 144.186 23.462 144.402 22.778C144.51 22.418 144.69 22.076 144.924 21.752C145.374 21.14 145.77 20.672 146.112 20.348C146.616 19.88 147.282 19.7 148.074 19.79C149.1 19.934 150.198 20.348 151.35 21.032C151.998 21.428 152.394 22.004 152.538 22.796C152.736 24.056 152.754 25.082 152.574 25.856C152.394 26.63 152.052 27.224 151.53 27.656C151.008 28.088 150.36 28.286 149.568 28.214ZM147.606 24.362C147.822 25.082 147.966 25.496 148.02 25.568C148.056 25.64 148.11 25.73 148.2 25.802C148.29 25.874 148.362 25.91 148.434 25.892C148.83 25.856 149.172 25.766 149.442 25.586C149.694 25.406 149.874 25.172 149.946 24.866C150.018 24.56 149.946 24.2 149.73 23.768C149.406 23.12 148.902 22.904 148.218 23.102C147.822 23.228 147.624 23.642 147.606 24.362ZM159.594 18.71C159.594 18.872 159.594 19.178 159.594 19.61C159.576 20.042 159.576 20.33 159.612 20.474C159.72 21.302 159.63 23.174 159.36 26.072C159.324 26.288 159.288 26.81 159.234 27.62C159.162 28.448 159.126 28.988 159.108 29.24C159.072 29.528 158.91 29.672 158.622 29.672C158.478 29.672 158.082 29.672 157.398 29.672C156.714 29.672 156.264 29.654 156.066 29.654C155.85 29.654 155.724 29.492 155.67 29.168C155.526 28.448 155.526 27.26 155.67 25.604C155.688 25.442 155.724 24.254 155.76 22.04V20.69V19.322C155.76 19.142 155.868 18.998 156.084 18.89C156.21 18.836 156.372 18.782 156.57 18.746C156.768 18.71 157.002 18.674 157.29 18.638C157.578 18.62 157.794 18.602 157.938 18.602C158.082 18.602 158.334 18.584 158.676 18.566L159.18 18.548C159.216 18.548 159.288 18.584 159.414 18.62C159.522 18.656 159.594 18.692 159.594 18.71ZM151.116 31.634C153.564 31.49 154.95 31.418 155.256 31.382C155.562 31.364 155.922 31.328 156.354 31.292C156.786 31.256 157.146 31.22 157.434 31.184C157.722 31.148 157.974 31.13 158.154 31.13C158.388 31.13 158.568 31.436 158.676 32.012C158.694 32.138 158.712 32.39 158.712 32.75C158.712 33.164 158.604 33.578 158.388 34.01C158.316 34.136 158.154 34.226 157.902 34.262C157.65 34.298 156.804 34.352 155.364 34.424C153.924 34.496 153.078 34.55 152.808 34.586C152.736 34.604 152.682 34.604 152.61 34.604C152.304 34.604 151.656 34.622 150.666 34.64C149.676 34.658 148.956 34.676 148.506 34.694C148.398 34.694 148.2 34.712 147.948 34.73C147.696 34.748 147.498 34.748 147.372 34.748C146.958 34.748 146.616 34.676 146.364 34.514C146.274 34.478 146.202 34.388 146.13 34.28C146.058 34.172 146.04 34.082 146.04 33.974C145.986 33.452 145.95 32.714 145.914 31.742C145.878 30.77 145.842 30.104 145.824 29.726L145.806 29.474C145.806 29.294 145.806 29.132 145.806 28.952L145.788 28.7C145.824 28.7 145.914 28.682 146.076 28.646C146.238 28.61 146.346 28.574 146.4 28.556C146.526 28.538 146.814 28.52 147.264 28.52C147.786 28.52 148.11 28.556 148.254 28.592C148.398 28.646 148.47 28.736 148.47 28.862C148.47 28.916 148.488 29.042 148.524 29.222C148.56 29.402 148.596 29.528 148.596 29.582C148.596 29.78 148.632 30.14 148.74 30.68C148.74 30.752 148.758 30.914 148.794 31.148C148.812 31.382 148.848 31.58 148.902 31.76L151.116 31.634Z" fill="#578246"/>
<path d="M140.282 21.382C140.318 21.634 140.354 22.012 140.372 22.552C140.372 23.092 140.372 23.47 140.336 23.668C140.336 23.758 140.354 23.866 140.39 24.01C140.426 24.154 140.462 24.226 140.462 24.226C140.48 24.316 140.66 24.424 140.984 24.55C141.056 24.586 141.2 24.64 141.38 24.676C141.56 24.712 141.686 24.748 141.758 24.766C141.956 24.838 142.082 24.928 142.136 25.036C142.172 25.144 142.172 25.306 142.136 25.504C141.974 26.134 141.596 26.512 141.002 26.656C140.894 26.692 140.786 26.692 140.696 26.674C140.588 26.656 140.534 26.638 140.516 26.602C140.48 26.584 140.462 26.584 140.426 26.602C140.39 26.638 140.408 26.71 140.462 26.818C140.642 28.132 140.642 28.942 140.462 29.266C140.3 29.518 140.174 29.68 140.066 29.752C139.508 30.058 138.968 30.094 138.464 29.86C138.32 29.806 138.23 29.68 138.212 29.5C138.176 29.32 138.194 29.158 138.23 28.978C138.23 28.78 138.194 28.366 138.122 27.718C138.05 27.088 138.014 26.674 138.014 26.494C138.032 24.046 138.086 22.372 138.176 21.436C138.212 21.076 138.41 20.878 138.788 20.86C139.004 20.86 139.238 20.842 139.472 20.806C139.796 20.77 139.994 20.77 140.066 20.806C140.138 20.86 140.174 20.95 140.21 21.094C140.228 21.238 140.246 21.346 140.282 21.382ZM128.546 23.812L126.782 23.668C126.782 22.912 126.782 22.462 126.8 22.318C126.8 22.282 126.854 22.228 126.962 22.174C127.07 22.12 127.16 22.084 127.232 22.084C127.448 22.084 127.79 22.102 128.258 22.12C128.726 22.156 129.086 22.156 129.338 22.156C130.004 22.138 130.814 22.066 131.786 21.94L129.428 21.814C129.392 21.652 129.392 21.436 129.392 21.148C129.392 20.86 129.374 20.626 129.356 20.428C130.148 20.302 130.562 20.23 130.634 20.23C131.102 20.194 131.588 20.158 132.056 20.14C132.452 20.14 132.74 20.212 132.902 20.356C133.046 20.5 133.136 20.788 133.154 21.184C133.19 21.292 133.19 21.364 133.172 21.436C133.136 21.508 133.136 21.544 133.136 21.562C133.136 21.598 133.118 21.616 133.064 21.652C133.01 21.688 132.956 21.706 132.92 21.706C132.884 21.706 132.794 21.742 132.668 21.778C132.542 21.814 132.416 21.868 132.308 21.922C133.604 22.12 134.324 22.228 134.504 22.246C134.738 22.282 134.882 22.39 134.936 22.588C135.116 23.254 134.882 23.704 134.27 23.938C134.252 23.956 134.108 24.01 133.82 24.118L134.072 24.28C134.612 24.568 134.9 24.946 134.936 25.378C134.972 25.81 134.756 26.224 134.288 26.602C133.802 26.998 133.19 27.214 132.434 27.232H132.344C132.596 27.34 133.208 27.43 134.144 27.466C135.08 27.502 135.584 27.538 135.674 27.556C135.926 27.628 136.052 27.682 136.088 27.682C136.34 27.772 136.502 27.862 136.574 27.97C136.646 28.078 136.682 28.276 136.682 28.528C136.736 28.996 136.736 29.302 136.664 29.428C136.592 29.572 136.43 29.626 136.178 29.626C135.26 29.734 133.226 29.752 130.058 29.68C129.716 29.68 128.6 29.716 126.71 29.752C126.332 29.77 126.062 29.662 125.882 29.41C125.702 29.176 125.666 28.852 125.738 28.456C125.738 28.366 125.756 28.258 125.774 28.15C125.774 28.078 125.774 28.042 125.792 28.006C125.81 27.988 125.882 27.952 125.99 27.88C126.026 27.844 126.08 27.826 126.116 27.808L129.572 27.394C129.608 27.304 129.644 27.196 129.698 27.052C129.41 26.998 129.122 26.908 128.87 26.8C128.366 26.62 127.952 26.332 127.664 25.972C127.394 25.684 127.304 25.36 127.394 24.982C127.466 24.604 127.718 24.28 128.132 24.028L128.546 23.812ZM130.202 24.964C130.184 25.216 130.22 25.396 130.292 25.486C130.364 25.594 130.526 25.648 130.778 25.684C131.102 25.756 131.39 25.756 131.66 25.684C131.732 25.684 131.804 25.63 131.876 25.558C131.948 25.486 132.002 25.396 132.02 25.324C132.02 25.288 132.002 25.216 131.948 25.126C131.876 25.054 131.822 24.982 131.75 24.946C131.498 24.838 131.336 24.766 131.228 24.73C131.12 24.694 130.958 24.676 130.76 24.694C130.544 24.712 130.364 24.802 130.202 24.964ZM128.6 31.03C128.69 30.94 129.194 30.886 130.13 30.886C130.238 30.886 130.346 30.904 130.472 30.922C130.616 30.958 130.778 30.976 130.976 30.976C131.066 30.976 131.21 30.976 131.39 30.958C131.57 30.958 131.696 30.94 131.786 30.94C131.876 30.94 132.002 30.958 132.182 30.958C132.362 30.976 132.488 30.976 132.578 30.976C132.884 30.976 133.208 30.958 133.55 30.922C133.874 30.886 134.252 30.814 134.648 30.742C135.044 30.67 135.368 30.634 135.584 30.598C135.836 30.562 136.106 30.544 136.412 30.544C136.682 30.544 137.15 30.58 137.798 30.616C138.446 30.652 138.86 30.67 139.04 30.67C139.094 30.67 139.13 30.706 139.166 30.742C139.31 31.03 139.4 31.246 139.454 31.408C139.49 31.588 139.526 31.804 139.562 32.092C139.58 32.398 139.598 32.632 139.598 32.794C139.598 33.082 139.58 33.352 139.562 33.604C139.544 33.874 139.526 34.18 139.49 34.54C139.454 34.9 139.436 35.17 139.436 35.332C139.4 35.53 139.274 35.872 139.022 36.358C138.95 36.502 138.842 36.628 138.716 36.7C138.572 36.772 138.464 36.826 138.374 36.826L137.978 36.88C137.762 36.898 137.6 36.916 137.51 36.934C137.384 36.97 137.204 36.988 136.952 37.024C136.7 37.06 136.538 37.078 136.43 37.096C136.358 37.114 136.286 37.114 136.25 37.114C135.998 37.114 135.872 36.97 135.872 36.664C135.836 35.404 135.818 34.522 135.818 34C135.8 33.604 135.62 33.406 135.296 33.406C135.26 33.406 135.224 33.424 135.188 33.424C135.008 33.442 134.738 33.478 134.414 33.55C134.09 33.622 133.874 33.658 133.784 33.658C133.694 33.676 133.514 33.712 133.226 33.748C132.938 33.802 132.704 33.838 132.506 33.856C132.308 33.892 132.11 33.892 131.93 33.892C131.462 33.892 130.508 33.838 129.086 33.712C129.014 33.712 128.924 33.676 128.834 33.622C128.744 33.568 128.708 33.514 128.708 33.46C128.654 33.244 128.6 32.974 128.564 32.65C128.528 32.326 128.492 32.002 128.492 31.642C128.474 31.3 128.51 31.102 128.6 31.03ZM149.534 30.004C148.184 30.04 146.96 29.752 145.844 29.104C145.16 28.726 144.692 28.096 144.476 27.196C144.188 26.116 144.152 25.252 144.368 24.568C144.476 24.208 144.656 23.866 144.89 23.542C145.34 22.93 145.736 22.462 146.078 22.138C146.582 21.67 147.248 21.49 148.04 21.58C149.066 21.724 150.164 22.138 151.316 22.822C151.964 23.218 152.36 23.794 152.504 24.586C152.702 25.846 152.72 26.872 152.54 27.646C152.36 28.42 152.018 29.014 151.496 29.446C150.974 29.878 150.326 30.076 149.534 30.004ZM147.572 26.152C147.788 26.872 147.932 27.286 147.986 27.358C148.022 27.43 148.076 27.52 148.166 27.592C148.256 27.664 148.328 27.7 148.4 27.682C148.796 27.646 149.138 27.556 149.408 27.376C149.66 27.196 149.84 26.962 149.912 26.656C149.984 26.35 149.912 25.99 149.696 25.558C149.372 24.91 148.868 24.694 148.184 24.892C147.788 25.018 147.59 25.432 147.572 26.152ZM159.56 20.5C159.56 20.662 159.56 20.968 159.56 21.4C159.542 21.832 159.542 22.12 159.578 22.264C159.686 23.092 159.596 24.964 159.326 27.862C159.29 28.078 159.254 28.6 159.2 29.41C159.128 30.238 159.092 30.778 159.074 31.03C159.038 31.318 158.876 31.462 158.588 31.462C158.444 31.462 158.048 31.462 157.364 31.462C156.68 31.462 156.23 31.444 156.032 31.444C155.816 31.444 155.69 31.282 155.636 30.958C155.492 30.238 155.492 29.05 155.636 27.394C155.654 27.232 155.69 26.044 155.726 23.83V22.48V21.112C155.726 20.932 155.834 20.788 156.05 20.68C156.176 20.626 156.338 20.572 156.536 20.536C156.734 20.5 156.968 20.464 157.256 20.428C157.544 20.41 157.76 20.392 157.904 20.392C158.048 20.392 158.3 20.374 158.642 20.356L159.146 20.338C159.182 20.338 159.254 20.374 159.38 20.41C159.488 20.446 159.56 20.482 159.56 20.5ZM151.082 33.424C153.53 33.28 154.916 33.208 155.222 33.172C155.528 33.154 155.888 33.118 156.32 33.082C156.752 33.046 157.112 33.01 157.4 32.974C157.688 32.938 157.94 32.92 158.12 32.92C158.354 32.92 158.534 33.226 158.642 33.802C158.66 33.928 158.678 34.18 158.678 34.54C158.678 34.954 158.57 35.368 158.354 35.8C158.282 35.926 158.12 36.016 157.868 36.052C157.616 36.088 156.77 36.142 155.33 36.214C153.89 36.286 153.044 36.34 152.774 36.376C152.702 36.394 152.648 36.394 152.576 36.394C152.27 36.394 151.622 36.412 150.632 36.43C149.642 36.448 148.922 36.466 148.472 36.484C148.364 36.484 148.166 36.502 147.914 36.52C147.662 36.538 147.464 36.538 147.338 36.538C146.924 36.538 146.582 36.466 146.33 36.304C146.24 36.268 146.168 36.178 146.096 36.07C146.024 35.962 146.006 35.872 146.006 35.764C145.952 35.242 145.916 34.504 145.88 33.532C145.844 32.56 145.808 31.894 145.79 31.516L145.772 31.264C145.772 31.084 145.772 30.922 145.772 30.742L145.754 30.49C145.79 30.49 145.88 30.472 146.042 30.436C146.204 30.4 146.312 30.364 146.366 30.346C146.492 30.328 146.78 30.31 147.23 30.31C147.752 30.31 148.076 30.346 148.22 30.382C148.364 30.436 148.436 30.526 148.436 30.652C148.436 30.706 148.454 30.832 148.49 31.012C148.526 31.192 148.562 31.318 148.562 31.372C148.562 31.57 148.598 31.93 148.706 32.47C148.706 32.542 148.724 32.704 148.76 32.938C148.778 33.172 148.814 33.37 148.868 33.55L151.082 33.424Z" fill="white"/>
</g>
<defs>
<clipPath id="clip0_1_38119">
<rect width="288" height="58" fill="white"/>
</clipPath>
</defs>
</svg>
