<svg width="600" height="58" viewBox="0 0 600 58" fill="none" xmlns="http://www.w3.org/2000/svg">
<rect width="600" height="58" rx="16" fill="#99C08E"/>
<path d="M297.43 21.985C297.466 22.237 297.502 22.615 297.52 23.155C297.52 23.695 297.52 24.073 297.484 24.271C297.484 24.361 297.502 24.469 297.538 24.613C297.574 24.757 297.61 24.829 297.61 24.829C297.628 24.919 297.808 25.027 298.132 25.153C298.204 25.189 298.348 25.243 298.528 25.279C298.708 25.315 298.834 25.351 298.906 25.369C299.104 25.441 299.23 25.531 299.284 25.639C299.32 25.747 299.32 25.909 299.284 26.107C299.122 26.737 298.744 27.115 298.15 27.259C298.042 27.295 297.934 27.295 297.844 27.277C297.736 27.259 297.682 27.241 297.664 27.205C297.628 27.187 297.61 27.187 297.574 27.205C297.538 27.241 297.556 27.313 297.61 27.421C297.79 28.735 297.79 29.545 297.61 29.869C297.448 30.121 297.322 30.283 297.214 30.355C296.656 30.661 296.116 30.697 295.612 30.463C295.468 30.409 295.378 30.283 295.36 30.103C295.324 29.923 295.342 29.761 295.378 29.581C295.378 29.383 295.342 28.969 295.27 28.321C295.198 27.691 295.162 27.277 295.162 27.097C295.18 24.649 295.234 22.975 295.324 22.039C295.36 21.679 295.558 21.481 295.936 21.463C296.152 21.463 296.386 21.445 296.62 21.409C296.944 21.373 297.142 21.373 297.214 21.409C297.286 21.463 297.322 21.553 297.358 21.697C297.376 21.841 297.394 21.949 297.43 21.985ZM285.694 24.415L283.93 24.271C283.93 23.515 283.93 23.065 283.948 22.921C283.948 22.885 284.002 22.831 284.11 22.777C284.218 22.723 284.308 22.687 284.38 22.687C284.596 22.687 284.938 22.705 285.406 22.723C285.874 22.759 286.234 22.759 286.486 22.759C287.152 22.741 287.962 22.669 288.934 22.543L286.576 22.417C286.54 22.255 286.54 22.039 286.54 21.751C286.54 21.463 286.522 21.229 286.504 21.031C287.296 20.905 287.71 20.833 287.782 20.833C288.25 20.797 288.736 20.761 289.204 20.743C289.6 20.743 289.888 20.815 290.05 20.959C290.194 21.103 290.284 21.391 290.302 21.787C290.338 21.895 290.338 21.967 290.32 22.039C290.284 22.111 290.284 22.147 290.284 22.165C290.284 22.201 290.266 22.219 290.212 22.255C290.158 22.291 290.104 22.309 290.068 22.309C290.032 22.309 289.942 22.345 289.816 22.381C289.69 22.417 289.564 22.471 289.456 22.525C290.752 22.723 291.472 22.831 291.652 22.849C291.886 22.885 292.03 22.993 292.084 23.191C292.264 23.857 292.03 24.307 291.418 24.541C291.4 24.559 291.256 24.613 290.968 24.721L291.22 24.883C291.76 25.171 292.048 25.549 292.084 25.981C292.12 26.413 291.904 26.827 291.436 27.205C290.95 27.601 290.338 27.817 289.582 27.835H289.492C289.744 27.943 290.356 28.033 291.292 28.069C292.228 28.105 292.732 28.141 292.822 28.159C293.074 28.231 293.2 28.285 293.236 28.285C293.488 28.375 293.65 28.465 293.722 28.573C293.794 28.681 293.83 28.879 293.83 29.131C293.884 29.599 293.884 29.905 293.812 30.031C293.74 30.175 293.578 30.229 293.326 30.229C292.408 30.337 290.374 30.355 287.206 30.283C286.864 30.283 285.748 30.319 283.858 30.355C283.48 30.373 283.21 30.265 283.03 30.013C282.85 29.779 282.814 29.455 282.886 29.059C282.886 28.969 282.904 28.861 282.922 28.753C282.922 28.681 282.922 28.645 282.94 28.609C282.958 28.591 283.03 28.555 283.138 28.483C283.174 28.447 283.228 28.429 283.264 28.411L286.72 27.997C286.756 27.907 286.792 27.799 286.846 27.655C286.558 27.601 286.27 27.511 286.018 27.403C285.514 27.223 285.1 26.935 284.812 26.575C284.542 26.287 284.452 25.963 284.542 25.585C284.614 25.207 284.866 24.883 285.28 24.631L285.694 24.415ZM287.35 25.567C287.332 25.819 287.368 25.999 287.44 26.089C287.512 26.197 287.674 26.251 287.926 26.287C288.25 26.359 288.538 26.359 288.808 26.287C288.88 26.287 288.952 26.233 289.024 26.161C289.096 26.089 289.15 25.999 289.168 25.927C289.168 25.891 289.15 25.819 289.096 25.729C289.024 25.657 288.97 25.585 288.898 25.549C288.646 25.441 288.484 25.369 288.376 25.333C288.268 25.297 288.106 25.279 287.908 25.297C287.692 25.315 287.512 25.405 287.35 25.567ZM285.748 31.633C285.838 31.543 286.342 31.489 287.278 31.489C287.386 31.489 287.494 31.507 287.62 31.525C287.764 31.561 287.926 31.579 288.124 31.579C288.214 31.579 288.358 31.579 288.538 31.561C288.718 31.561 288.844 31.543 288.934 31.543C289.024 31.543 289.15 31.561 289.33 31.561C289.51 31.579 289.636 31.579 289.726 31.579C290.032 31.579 290.356 31.561 290.698 31.525C291.022 31.489 291.4 31.417 291.796 31.345C292.192 31.273 292.516 31.237 292.732 31.201C292.984 31.165 293.254 31.147 293.56 31.147C293.83 31.147 294.298 31.183 294.946 31.219C295.594 31.255 296.008 31.273 296.188 31.273C296.242 31.273 296.278 31.309 296.314 31.345C296.458 31.633 296.548 31.849 296.602 32.011C296.638 32.191 296.674 32.407 296.71 32.695C296.728 33.001 296.746 33.235 296.746 33.397C296.746 33.685 296.728 33.955 296.71 34.207C296.692 34.477 296.674 34.783 296.638 35.143C296.602 35.503 296.584 35.773 296.584 35.935C296.548 36.133 296.422 36.475 296.17 36.961C296.098 37.105 295.99 37.231 295.864 37.303C295.72 37.375 295.612 37.429 295.522 37.429L295.126 37.483C294.91 37.501 294.748 37.519 294.658 37.537C294.532 37.573 294.352 37.591 294.1 37.627C293.848 37.663 293.686 37.681 293.578 37.699C293.506 37.717 293.434 37.717 293.398 37.717C293.146 37.717 293.02 37.573 293.02 37.267C292.984 36.007 292.966 35.125 292.966 34.603C292.948 34.207 292.768 34.009 292.444 34.009C292.408 34.009 292.372 34.027 292.336 34.027C292.156 34.045 291.886 34.081 291.562 34.153C291.238 34.225 291.022 34.261 290.932 34.261C290.842 34.279 290.662 34.315 290.374 34.351C290.086 34.405 289.852 34.441 289.654 34.459C289.456 34.495 289.258 34.495 289.078 34.495C288.61 34.495 287.656 34.441 286.234 34.315C286.162 34.315 286.072 34.279 285.982 34.225C285.892 34.171 285.856 34.117 285.856 34.063C285.802 33.847 285.748 33.577 285.712 33.253C285.676 32.929 285.64 32.605 285.64 32.245C285.622 31.903 285.658 31.705 285.748 31.633ZM306.682 30.607C305.332 30.643 304.108 30.355 302.992 29.707C302.308 29.329 301.84 28.699 301.624 27.799C301.336 26.719 301.3 25.855 301.516 25.171C301.624 24.811 301.804 24.469 302.038 24.145C302.488 23.533 302.884 23.065 303.226 22.741C303.73 22.273 304.396 22.093 305.188 22.183C306.214 22.327 307.312 22.741 308.464 23.425C309.112 23.821 309.508 24.397 309.652 25.189C309.85 26.449 309.868 27.475 309.688 28.249C309.508 29.023 309.166 29.617 308.644 30.049C308.122 30.481 307.474 30.679 306.682 30.607ZM304.72 26.755C304.936 27.475 305.08 27.889 305.134 27.961C305.17 28.033 305.224 28.123 305.314 28.195C305.404 28.267 305.476 28.303 305.548 28.285C305.944 28.249 306.286 28.159 306.556 27.979C306.808 27.799 306.988 27.565 307.06 27.259C307.132 26.953 307.06 26.593 306.844 26.161C306.52 25.513 306.016 25.297 305.332 25.495C304.936 25.621 304.738 26.035 304.72 26.755ZM316.708 21.103C316.708 21.265 316.708 21.571 316.708 22.003C316.69 22.435 316.69 22.723 316.726 22.867C316.834 23.695 316.744 25.567 316.474 28.465C316.438 28.681 316.402 29.203 316.348 30.013C316.276 30.841 316.24 31.381 316.222 31.633C316.186 31.921 316.024 32.065 315.736 32.065C315.592 32.065 315.196 32.065 314.512 32.065C313.828 32.065 313.378 32.047 313.18 32.047C312.964 32.047 312.838 31.885 312.784 31.561C312.64 30.841 312.64 29.653 312.784 27.997C312.802 27.835 312.838 26.647 312.874 24.433V23.083V21.715C312.874 21.535 312.982 21.391 313.198 21.283C313.324 21.229 313.486 21.175 313.684 21.139C313.882 21.103 314.116 21.067 314.404 21.031C314.692 21.013 314.908 20.995 315.052 20.995C315.196 20.995 315.448 20.977 315.79 20.959L316.294 20.941C316.33 20.941 316.402 20.977 316.528 21.013C316.636 21.049 316.708 21.085 316.708 21.103ZM308.23 34.027C310.678 33.883 312.064 33.811 312.37 33.775C312.676 33.757 313.036 33.721 313.468 33.685C313.9 33.649 314.26 33.613 314.548 33.577C314.836 33.541 315.088 33.523 315.268 33.523C315.502 33.523 315.682 33.829 315.79 34.405C315.808 34.531 315.826 34.783 315.826 35.143C315.826 35.557 315.718 35.971 315.502 36.403C315.43 36.529 315.268 36.619 315.016 36.655C314.764 36.691 313.918 36.745 312.478 36.817C311.038 36.889 310.192 36.943 309.922 36.979C309.85 36.997 309.796 36.997 309.724 36.997C309.418 36.997 308.77 37.015 307.78 37.033C306.79 37.051 306.07 37.069 305.62 37.087C305.512 37.087 305.314 37.105 305.062 37.123C304.81 37.141 304.612 37.141 304.486 37.141C304.072 37.141 303.73 37.069 303.478 36.907C303.388 36.871 303.316 36.781 303.244 36.673C303.172 36.565 303.154 36.475 303.154 36.367C303.1 35.845 303.064 35.107 303.028 34.135C302.992 33.163 302.956 32.497 302.938 32.119L302.92 31.867C302.92 31.687 302.92 31.525 302.92 31.345L302.902 31.093C302.938 31.093 303.028 31.075 303.19 31.039C303.352 31.003 303.46 30.967 303.514 30.949C303.64 30.931 303.928 30.913 304.378 30.913C304.9 30.913 305.224 30.949 305.368 30.985C305.512 31.039 305.584 31.129 305.584 31.255C305.584 31.309 305.602 31.435 305.638 31.615C305.674 31.795 305.71 31.921 305.71 31.975C305.71 32.173 305.746 32.533 305.854 33.073C305.854 33.145 305.872 33.307 305.908 33.541C305.926 33.775 305.962 33.973 306.016 34.153L308.23 34.027Z" fill="#578246"/>
<path d="M297.282 23.7756C297.318 24.0276 297.354 24.4056 297.372 24.9456C297.372 25.4856 297.372 25.8636 297.336 26.0616C297.336 26.1516 297.354 26.2596 297.39 26.4036C297.426 26.5476 297.462 26.6196 297.462 26.6196C297.48 26.7096 297.66 26.8176 297.984 26.9436C298.056 26.9796 298.2 27.0336 298.38 27.0696C298.56 27.1056 298.686 27.1416 298.758 27.1596C298.956 27.2316 299.082 27.3216 299.136 27.4296C299.172 27.5376 299.172 27.6996 299.136 27.8976C298.974 28.5276 298.596 28.9056 298.002 29.0496C297.894 29.0856 297.786 29.0856 297.696 29.0676C297.588 29.0496 297.534 29.0316 297.516 28.9956C297.48 28.9776 297.462 28.9776 297.426 28.9956C297.39 29.0316 297.408 29.1036 297.462 29.2116C297.642 30.5256 297.642 31.3356 297.462 31.6596C297.3 31.9116 297.174 32.0736 297.066 32.1456C296.508 32.4516 295.968 32.4876 295.464 32.2536C295.32 32.1996 295.23 32.0736 295.212 31.8936C295.176 31.7136 295.194 31.5516 295.23 31.3716C295.23 31.1736 295.194 30.7596 295.122 30.1116C295.05 29.4816 295.014 29.0676 295.014 28.8876C295.032 26.4396 295.086 24.7656 295.176 23.8296C295.212 23.4696 295.41 23.2716 295.788 23.2536C296.004 23.2536 296.238 23.2356 296.472 23.1996C296.796 23.1636 296.994 23.1636 297.066 23.1996C297.138 23.2536 297.174 23.3436 297.21 23.4876C297.228 23.6316 297.246 23.7396 297.282 23.7756ZM285.546 26.2056L283.782 26.0616C283.782 25.3056 283.782 24.8556 283.8 24.7116C283.8 24.6756 283.854 24.6216 283.962 24.5676C284.07 24.5136 284.16 24.4776 284.232 24.4776C284.448 24.4776 284.79 24.4956 285.258 24.5136C285.726 24.5496 286.086 24.5496 286.338 24.5496C287.004 24.5316 287.814 24.4596 288.786 24.3336L286.428 24.2076C286.392 24.0456 286.392 23.8296 286.392 23.5416C286.392 23.2536 286.374 23.0196 286.356 22.8216C287.148 22.6956 287.562 22.6236 287.634 22.6236C288.102 22.5876 288.588 22.5516 289.056 22.5336C289.452 22.5336 289.74 22.6056 289.902 22.7496C290.046 22.8936 290.136 23.1816 290.154 23.5776C290.19 23.6856 290.19 23.7576 290.172 23.8296C290.136 23.9016 290.136 23.9376 290.136 23.9556C290.136 23.9916 290.118 24.0096 290.064 24.0456C290.01 24.0816 289.956 24.0996 289.92 24.0996C289.884 24.0996 289.794 24.1356 289.668 24.1716C289.542 24.2076 289.416 24.2616 289.308 24.3156C290.604 24.5136 291.324 24.6216 291.504 24.6396C291.738 24.6756 291.882 24.7836 291.936 24.9816C292.116 25.6476 291.882 26.0976 291.27 26.3316C291.252 26.3496 291.108 26.4036 290.82 26.5116L291.072 26.6736C291.612 26.9616 291.9 27.3396 291.936 27.7716C291.972 28.2036 291.756 28.6176 291.288 28.9956C290.802 29.3916 290.19 29.6076 289.434 29.6256H289.344C289.596 29.7336 290.208 29.8236 291.144 29.8596C292.08 29.8956 292.584 29.9316 292.674 29.9496C292.926 30.0216 293.052 30.0756 293.088 30.0756C293.34 30.1656 293.502 30.2556 293.574 30.3636C293.646 30.4716 293.682 30.6696 293.682 30.9216C293.736 31.3896 293.736 31.6956 293.664 31.8216C293.592 31.9656 293.43 32.0196 293.178 32.0196C292.26 32.1276 290.226 32.1456 287.058 32.0736C286.716 32.0736 285.6 32.1096 283.71 32.1456C283.332 32.1636 283.062 32.0556 282.882 31.8036C282.702 31.5696 282.666 31.2456 282.738 30.8496C282.738 30.7596 282.756 30.6516 282.774 30.5436C282.774 30.4716 282.774 30.4356 282.792 30.3996C282.81 30.3816 282.882 30.3456 282.99 30.2736C283.026 30.2376 283.08 30.2196 283.116 30.2016L286.572 29.7876C286.608 29.6976 286.644 29.5896 286.698 29.4456C286.41 29.3916 286.122 29.3016 285.87 29.1936C285.366 29.0136 284.952 28.7256 284.664 28.3656C284.394 28.0776 284.304 27.7536 284.394 27.3756C284.466 26.9976 284.718 26.6736 285.132 26.4216L285.546 26.2056ZM287.202 27.3576C287.184 27.6096 287.22 27.7896 287.292 27.8796C287.364 27.9876 287.526 28.0416 287.778 28.0776C288.102 28.1496 288.39 28.1496 288.66 28.0776C288.732 28.0776 288.804 28.0236 288.876 27.9516C288.948 27.8796 289.002 27.7896 289.02 27.7176C289.02 27.6816 289.002 27.6096 288.948 27.5196C288.876 27.4476 288.822 27.3756 288.75 27.3396C288.498 27.2316 288.336 27.1596 288.228 27.1236C288.12 27.0876 287.958 27.0696 287.76 27.0876C287.544 27.1056 287.364 27.1956 287.202 27.3576ZM285.6 33.4236C285.69 33.3336 286.194 33.2796 287.13 33.2796C287.238 33.2796 287.346 33.2976 287.472 33.3156C287.616 33.3516 287.778 33.3696 287.976 33.3696C288.066 33.3696 288.21 33.3696 288.39 33.3516C288.57 33.3516 288.696 33.3336 288.786 33.3336C288.876 33.3336 289.002 33.3516 289.182 33.3516C289.362 33.3696 289.488 33.3696 289.578 33.3696C289.884 33.3696 290.208 33.3516 290.55 33.3156C290.874 33.2796 291.252 33.2076 291.648 33.1356C292.044 33.0636 292.368 33.0276 292.584 32.9916C292.836 32.9556 293.106 32.9376 293.412 32.9376C293.682 32.9376 294.15 32.9736 294.798 33.0096C295.446 33.0456 295.86 33.0636 296.04 33.0636C296.094 33.0636 296.13 33.0996 296.166 33.1356C296.31 33.4236 296.4 33.6396 296.454 33.8016C296.49 33.9816 296.526 34.1976 296.562 34.4856C296.58 34.7916 296.598 35.0256 296.598 35.1876C296.598 35.4756 296.58 35.7456 296.562 35.9976C296.544 36.2676 296.526 36.5736 296.49 36.9336C296.454 37.2936 296.436 37.5636 296.436 37.7256C296.4 37.9236 296.274 38.2656 296.022 38.7516C295.95 38.8956 295.842 39.0216 295.716 39.0936C295.572 39.1656 295.464 39.2196 295.374 39.2196L294.978 39.2736C294.762 39.2916 294.6 39.3096 294.51 39.3276C294.384 39.3636 294.204 39.3816 293.952 39.4176C293.7 39.4536 293.538 39.4716 293.43 39.4896C293.358 39.5076 293.286 39.5076 293.25 39.5076C292.998 39.5076 292.872 39.3636 292.872 39.0576C292.836 37.7976 292.818 36.9156 292.818 36.3936C292.8 35.9976 292.62 35.7996 292.296 35.7996C292.26 35.7996 292.224 35.8176 292.188 35.8176C292.008 35.8356 291.738 35.8716 291.414 35.9436C291.09 36.0156 290.874 36.0516 290.784 36.0516C290.694 36.0696 290.514 36.1056 290.226 36.1416C289.938 36.1956 289.704 36.2316 289.506 36.2496C289.308 36.2856 289.11 36.2856 288.93 36.2856C288.462 36.2856 287.508 36.2316 286.086 36.1056C286.014 36.1056 285.924 36.0696 285.834 36.0156C285.744 35.9616 285.708 35.9076 285.708 35.8536C285.654 35.6376 285.6 35.3676 285.564 35.0436C285.528 34.7196 285.492 34.3956 285.492 34.0356C285.474 33.6936 285.51 33.4956 285.6 33.4236ZM306.534 32.3976C305.184 32.4336 303.96 32.1456 302.844 31.4976C302.16 31.1196 301.692 30.4896 301.476 29.5896C301.188 28.5096 301.152 27.6456 301.368 26.9616C301.476 26.6016 301.656 26.2596 301.89 25.9356C302.34 25.3236 302.736 24.8556 303.078 24.5316C303.582 24.0636 304.248 23.8836 305.04 23.9736C306.066 24.1176 307.164 24.5316 308.316 25.2156C308.964 25.6116 309.36 26.1876 309.504 26.9796C309.702 28.2396 309.72 29.2656 309.54 30.0396C309.36 30.8136 309.018 31.4076 308.496 31.8396C307.974 32.2716 307.326 32.4696 306.534 32.3976ZM304.572 28.5456C304.788 29.2656 304.932 29.6796 304.986 29.7516C305.022 29.8236 305.076 29.9136 305.166 29.9856C305.256 30.0576 305.328 30.0936 305.4 30.0756C305.796 30.0396 306.138 29.9496 306.408 29.7696C306.66 29.5896 306.84 29.3556 306.912 29.0496C306.984 28.7436 306.912 28.3836 306.696 27.9516C306.372 27.3036 305.868 27.0876 305.184 27.2856C304.788 27.4116 304.59 27.8256 304.572 28.5456ZM316.56 22.8936C316.56 23.0556 316.56 23.3616 316.56 23.7936C316.542 24.2256 316.542 24.5136 316.578 24.6576C316.686 25.4856 316.596 27.3576 316.326 30.2556C316.29 30.4716 316.254 30.9936 316.2 31.8036C316.128 32.6316 316.092 33.1716 316.074 33.4236C316.038 33.7116 315.876 33.8556 315.588 33.8556C315.444 33.8556 315.048 33.8556 314.364 33.8556C313.68 33.8556 313.23 33.8376 313.032 33.8376C312.816 33.8376 312.69 33.6756 312.636 33.3516C312.492 32.6316 312.492 31.4436 312.636 29.7876C312.654 29.6256 312.69 28.4376 312.726 26.2236V24.8736V23.5056C312.726 23.3256 312.834 23.1816 313.05 23.0736C313.176 23.0196 313.338 22.9656 313.536 22.9296C313.734 22.8936 313.968 22.8576 314.256 22.8216C314.544 22.8036 314.76 22.7856 314.904 22.7856C315.048 22.7856 315.3 22.7676 315.642 22.7496L316.146 22.7316C316.182 22.7316 316.254 22.7676 316.38 22.8036C316.488 22.8396 316.56 22.8756 316.56 22.8936ZM308.082 35.8176C310.53 35.6736 311.916 35.6016 312.222 35.5656C312.528 35.5476 312.888 35.5116 313.32 35.4756C313.752 35.4396 314.112 35.4036 314.4 35.3676C314.688 35.3316 314.94 35.3136 315.12 35.3136C315.354 35.3136 315.534 35.6196 315.642 36.1956C315.66 36.3216 315.678 36.5736 315.678 36.9336C315.678 37.3476 315.57 37.7616 315.354 38.1936C315.282 38.3196 315.12 38.4096 314.868 38.4456C314.616 38.4816 313.77 38.5356 312.33 38.6076C310.89 38.6796 310.044 38.7336 309.774 38.7696C309.702 38.7876 309.648 38.7876 309.576 38.7876C309.27 38.7876 308.622 38.8056 307.632 38.8236C306.642 38.8416 305.922 38.8596 305.472 38.8776C305.364 38.8776 305.166 38.8956 304.914 38.9136C304.662 38.9316 304.464 38.9316 304.338 38.9316C303.924 38.9316 303.582 38.8596 303.33 38.6976C303.24 38.6616 303.168 38.5716 303.096 38.4636C303.024 38.3556 303.006 38.2656 303.006 38.1576C302.952 37.6356 302.916 36.8976 302.88 35.9256C302.844 34.9536 302.808 34.2876 302.79 33.9096L302.772 33.6576C302.772 33.4776 302.772 33.3156 302.772 33.1356L302.754 32.8836C302.79 32.8836 302.88 32.8656 303.042 32.8296C303.204 32.7936 303.312 32.7576 303.366 32.7396C303.492 32.7216 303.78 32.7036 304.23 32.7036C304.752 32.7036 305.076 32.7396 305.22 32.7756C305.364 32.8296 305.436 32.9196 305.436 33.0456C305.436 33.0996 305.454 33.2256 305.49 33.4056C305.526 33.5856 305.562 33.7116 305.562 33.7656C305.562 33.9636 305.598 34.3236 305.706 34.8636C305.706 34.9356 305.724 35.0976 305.76 35.3316C305.778 35.5656 305.814 35.7636 305.868 35.9436L308.082 35.8176Z" fill="white"/>
</svg>
