<svg width="600" height="58" viewBox="0 0 600 58" fill="none" xmlns="http://www.w3.org/2000/svg">
<rect width="600" height="58" rx="16" fill="#99C08E"/>
<path d="M228.749 34.302C228.731 34.446 228.731 34.644 228.767 34.86C228.803 35.094 228.803 35.31 228.803 35.508C228.803 35.706 228.749 35.886 228.677 36.048C228.533 36.318 228.389 36.48 228.209 36.516C227.993 36.57 227.741 36.624 227.417 36.66C227.093 36.714 226.805 36.75 226.571 36.768C226.337 36.786 226.229 36.786 226.229 36.768H216.725C216.401 36.786 215.915 36.804 215.267 36.822C214.619 36.84 214.133 36.84 213.809 36.84C213.449 36.858 213.107 36.786 212.783 36.624L212.549 35.238L212.783 34.554C212.855 34.338 212.999 34.23 213.215 34.212L214.655 34.068C216.095 34.068 217.643 34.032 219.281 33.996C219.137 33.852 219.065 33.69 219.065 33.546C219.029 33.33 219.011 33.024 219.011 32.628C218.993 32.232 218.975 31.944 218.975 31.8C218.975 31.656 218.993 31.548 219.047 31.476C219.083 31.404 219.191 31.368 219.353 31.368C219.533 31.386 219.875 31.386 220.343 31.386C220.811 31.386 221.135 31.368 221.333 31.368C221.711 31.386 221.963 31.476 222.107 31.656C222.251 31.836 222.359 32.178 222.449 32.682C222.503 33.06 222.413 33.474 222.179 33.942C224.123 33.906 225.401 33.87 225.977 33.834C226.679 33.816 227.237 33.816 227.633 33.852C227.741 33.852 228.065 33.96 228.605 34.14C228.623 34.158 228.659 34.176 228.695 34.212C228.731 34.248 228.749 34.284 228.749 34.302ZM220.559 21.234C221.927 21.324 222.665 21.378 222.755 21.378C224.807 21.594 226.409 22.512 227.543 24.096C227.687 24.312 227.795 24.654 227.849 25.086C227.939 25.878 227.813 26.814 227.453 27.876C227.057 29.028 226.265 29.73 225.113 30C224.267 30.198 223.367 30.288 222.395 30.288C222.125 30.288 221.621 30.306 220.883 30.342C220.145 30.378 219.587 30.396 219.191 30.36C217.697 30.288 216.419 29.982 215.375 29.478C214.763 29.19 214.313 28.794 214.043 28.272C213.755 27.768 213.647 27.174 213.719 26.49C213.827 25.338 214.349 24.24 215.303 23.178C215.735 22.692 216.257 22.314 216.833 22.044C217.409 21.774 218.093 21.558 218.885 21.378C219.047 21.342 219.227 21.324 219.425 21.306C219.605 21.288 219.821 21.27 220.055 21.27C220.289 21.27 220.451 21.252 220.559 21.234ZM220.649 27.948C221.639 27.876 222.179 27.822 222.251 27.804C222.557 27.768 222.863 27.624 223.187 27.372C223.493 27.12 223.655 26.868 223.691 26.616C223.763 26.04 223.691 25.554 223.493 25.176C223.295 24.798 222.917 24.528 222.341 24.366C221.117 24.042 220.019 24.006 219.047 24.294C219.011 24.312 218.957 24.33 218.885 24.348C218.813 24.366 218.759 24.384 218.723 24.384C218.687 24.402 218.633 24.42 218.561 24.438C218.489 24.474 218.453 24.492 218.417 24.51C218.381 24.546 218.327 24.564 218.291 24.6C218.255 24.636 218.219 24.654 218.201 24.69C217.931 25.068 217.643 25.608 217.337 26.31C217.103 26.85 217.265 27.21 217.841 27.408C218.255 27.552 218.561 27.66 218.777 27.732C218.975 27.804 219.263 27.858 219.623 27.912C219.983 27.984 220.325 27.984 220.649 27.948ZM239.243 29.55C237.767 29.622 236.975 29.64 236.831 29.64C233.915 29.64 232.277 29.604 231.881 29.496C231.521 29.406 231.323 29.226 231.269 28.974C231.215 28.722 231.251 28.344 231.395 27.84C231.449 27.768 231.485 27.678 231.503 27.552C231.521 27.426 231.575 27.318 231.665 27.246C231.701 27.21 231.791 27.174 231.917 27.174H234.941H237.965C238.055 27.174 238.289 27.192 238.685 27.228C239.081 27.264 239.297 27.3 239.351 27.3C239.459 27.3 240.449 27.318 242.285 27.354C244.121 27.39 245.183 27.408 245.471 27.444C245.525 27.444 245.597 27.498 245.669 27.57C245.741 27.642 245.795 27.714 245.813 27.786C245.885 28.254 245.885 28.614 245.813 28.848C245.705 29.244 245.363 29.46 244.787 29.496C244.607 29.514 243.671 29.532 241.997 29.55C240.305 29.568 239.387 29.568 239.243 29.568V29.55ZM236.381 21.396C236.381 21.126 236.291 20.928 236.111 20.802C235.913 20.694 235.589 20.64 235.157 20.64C235.013 20.64 234.833 20.658 234.581 20.694C234.329 20.73 234.167 20.766 234.059 20.766C233.699 20.784 233.465 20.838 233.375 20.91C233.267 20.982 233.231 21.162 233.249 21.414C233.249 21.846 233.285 22.314 233.321 22.782C233.357 23.268 233.393 23.646 233.429 23.934C233.429 24.186 233.501 24.51 233.609 24.906C233.609 24.942 233.645 24.978 233.717 25.014C233.771 25.05 233.825 25.086 233.879 25.086C234.005 25.104 234.275 25.14 234.707 25.176C235.139 25.212 235.463 25.266 235.697 25.302C236.111 25.374 236.615 25.428 237.209 25.464C237.803 25.5 238.469 25.536 239.189 25.554C239.909 25.572 240.431 25.59 240.737 25.608C241.061 25.626 241.529 25.608 242.141 25.572C242.753 25.536 243.149 25.5 243.365 25.5C243.545 25.5 243.689 25.464 243.779 25.392C243.869 25.338 243.923 25.23 243.959 25.086C244.067 24.564 244.157 24.132 244.247 23.772C244.355 23.322 244.157 23.088 243.653 23.052C242.735 23.016 241.421 22.962 239.693 22.908H236.381C236.399 22.908 236.399 22.71 236.399 22.278C236.381 21.846 236.381 21.558 236.381 21.396ZM234.023 33.078C233.987 33.078 233.897 33.096 233.753 33.096C233.609 33.114 233.501 33.114 233.447 33.114C233.375 33.114 233.303 33.114 233.195 33.096C233.087 33.078 232.997 33.042 232.961 33.006C232.907 32.97 232.853 32.898 232.799 32.826C232.745 32.754 232.709 32.646 232.709 32.52C232.691 32.448 232.673 32.34 232.637 32.16C232.601 31.98 232.583 31.836 232.583 31.71C232.583 31.548 232.601 31.386 232.655 31.206C232.655 31.134 232.709 31.062 232.817 30.99C232.925 30.918 233.033 30.864 233.159 30.864C238.019 30.864 241.403 30.9 243.347 31.008C243.743 31.044 244.049 31.08 244.283 31.152C244.553 31.242 244.715 31.368 244.769 31.512C244.823 31.728 244.859 31.962 244.859 32.196C244.859 32.466 244.805 32.79 244.733 33.168C244.589 33.798 244.229 34.248 243.635 34.5C243.311 34.644 242.717 34.752 241.871 34.824C241.565 34.86 241.133 34.878 240.557 34.878C239.981 34.896 239.585 34.914 239.351 34.914C239.315 34.914 238.667 34.932 237.425 34.95C236.165 34.968 235.481 34.986 235.355 35.022L235.373 35.454C235.589 35.454 236.399 35.454 237.803 35.436C239.207 35.418 240.035 35.4 240.251 35.4C240.737 35.4 241.169 35.4 241.547 35.382C241.799 35.382 242.195 35.364 242.717 35.328C243.221 35.292 243.599 35.274 243.851 35.274H243.887C244.211 35.274 244.391 35.382 244.391 35.598V35.688C244.283 36.192 244.193 36.588 244.121 36.84C244.031 37.092 243.887 37.272 243.689 37.38C243.491 37.488 243.167 37.524 242.699 37.524H242.483C242.015 37.524 241.349 37.488 240.503 37.434C239.657 37.38 239.063 37.344 238.721 37.326C238.181 37.308 237.713 37.308 237.299 37.326C236.885 37.344 236.417 37.344 235.913 37.326C235.409 37.308 234.959 37.254 234.563 37.182C234.023 37.074 233.645 36.894 233.429 36.642C233.213 36.39 233.087 36.066 233.015 35.634C232.997 35.562 232.997 35.364 232.997 35.058C232.997 35.04 232.997 34.914 233.015 34.68C233.015 34.338 233.123 34.104 233.303 33.96C233.483 33.834 233.789 33.762 234.257 33.744C235.985 33.708 238.271 33.636 241.133 33.528C241.493 33.528 241.673 33.402 241.673 33.186L241.655 33.096C241.655 33.042 241.655 32.988 241.655 32.934V32.826C241.655 32.808 241.565 32.79 241.385 32.79C241.205 32.79 240.881 32.79 240.413 32.808C239.945 32.826 239.459 32.844 238.937 32.862C238.415 32.898 237.677 32.934 236.741 32.97C235.805 33.006 234.887 33.042 234.023 33.078ZM260.627 34.374C258.791 34.626 257.801 34.752 257.675 34.77C256.955 34.878 255.605 34.968 253.625 35.022C251.645 35.094 250.295 35.058 249.557 34.95C249.485 34.95 249.395 34.896 249.323 34.824C249.251 34.752 249.215 34.698 249.215 34.626C249.161 33.942 249.161 33.366 249.215 32.934C249.233 32.646 249.359 32.286 249.593 31.872C250.367 31.656 250.907 31.548 251.213 31.512C251.429 31.476 252.455 31.494 254.291 31.566C256.127 31.638 257.153 31.656 257.333 31.656C257.549 31.656 257.891 31.638 258.359 31.638C258.809 31.638 259.151 31.62 259.385 31.602L260.681 31.476C260.753 29.442 260.807 28.308 260.825 28.092L261.113 21.378C261.149 21.342 261.203 21.288 261.293 21.216C261.365 21.162 261.563 21.072 261.851 20.964C262.139 20.856 262.427 20.802 262.751 20.766C262.895 20.766 263.093 20.766 263.345 20.802C263.579 20.838 263.777 20.874 263.957 20.91L264.209 20.964C264.245 21.018 264.317 21.072 264.389 21.144C264.461 21.216 264.551 21.342 264.659 21.54C264.767 21.738 264.785 21.918 264.749 22.08C264.569 22.584 264.443 24.276 264.371 27.138C264.281 30 264.227 31.512 264.209 31.692C264.191 31.836 264.191 32.124 264.191 32.556C264.191 32.988 264.173 33.258 264.137 33.384C264.101 33.528 264.083 33.96 264.101 34.644C264.119 35.346 264.101 35.76 264.065 35.868C263.957 36.21 263.795 36.444 263.615 36.552C263.417 36.678 263.129 36.732 262.769 36.732C262.157 36.732 261.689 36.696 261.401 36.642C260.969 36.57 260.789 36.318 260.843 35.922C260.843 35.832 260.807 35.598 260.735 35.202C260.663 34.806 260.627 34.536 260.627 34.374ZM252.761 21.558C252.869 21.576 253.031 21.594 253.265 21.63C253.481 21.666 253.697 21.702 253.877 21.738C254.057 21.774 254.219 21.81 254.381 21.846C254.417 21.882 254.597 21.936 254.903 22.026C255.209 22.134 255.425 22.188 255.533 22.224C255.641 22.26 255.803 22.332 256.037 22.404C256.271 22.494 256.469 22.584 256.649 22.656C256.811 22.728 256.973 22.818 257.153 22.89C257.765 23.25 258.179 23.718 258.359 24.294C258.539 24.888 258.521 25.518 258.305 26.166C257.999 27.156 257.639 28.074 257.225 28.902C257.117 29.118 256.955 29.298 256.757 29.478C256.559 29.658 256.361 29.784 256.163 29.856C254.705 30.36 253.607 30.648 252.869 30.702C251.717 30.81 250.781 30.522 250.079 29.856C249.647 29.46 249.359 28.83 249.197 27.948C248.783 25.788 249.305 23.952 250.763 22.44C251.303 21.882 251.969 21.594 252.761 21.558ZM255.119 26.166C255.119 25.644 255.011 25.266 254.813 25.032C254.597 24.816 254.273 24.69 253.823 24.69C253.283 24.69 252.815 24.906 252.419 25.32C252.005 25.734 251.789 26.202 251.789 26.742C251.789 27.048 251.969 27.372 252.347 27.696C252.707 28.02 253.067 28.164 253.409 28.128C253.841 28.092 254.237 27.876 254.597 27.516C254.939 27.156 255.119 26.706 255.119 26.166ZM289.29 20.892C289.344 21.936 289.38 22.458 289.398 22.494C289.506 23.394 289.47 24.69 289.326 26.382C289.29 26.67 289.254 27.084 289.182 27.606C289.11 28.128 289.074 28.47 289.074 28.65C289.038 28.938 288.876 29.082 288.588 29.082C288.444 29.082 288.048 29.064 287.364 29.064C286.68 29.064 286.23 29.064 286.032 29.064C285.816 29.064 285.69 28.902 285.636 28.578C285.6 28.506 285.582 28.416 285.582 28.308C285.564 28.218 285.546 28.128 285.546 28.056C285.546 27.984 285.528 27.894 285.528 27.786C285.528 27.678 285.528 27.588 285.528 27.516C285.528 27.462 285.528 27.372 285.528 27.246C285.528 27.12 285.546 27.03 285.546 26.994C285.546 26.958 285.546 26.85 285.564 26.706C285.564 26.562 285.582 26.49 285.582 26.454C285.582 26.436 285.6 26.346 285.618 26.184C285.618 26.022 285.636 25.932 285.636 25.914C285.672 25.554 285.69 24.762 285.726 23.538V22.584V21.612C285.726 21.432 285.834 21.288 286.05 21.18C286.518 20.982 287.544 20.874 289.146 20.838C289.146 20.838 289.2 20.856 289.29 20.892ZM279.03 23.502C278.382 23.358 277.572 23.376 276.6 23.556C275.628 23.736 274.944 23.826 274.584 23.808C274.71 22.728 274.8 21.954 274.872 21.486C275.826 21.36 276.33 21.288 276.402 21.288C278.022 21.198 279.066 21.162 279.57 21.18C279.822 21.198 280.074 21.234 280.326 21.27C280.578 21.324 280.902 21.396 281.298 21.486C281.676 21.594 281.928 21.648 282.072 21.666C282.504 21.774 282.666 22.08 282.522 22.566C282.378 23.052 282.27 23.394 282.198 23.61C282.126 23.826 281.982 24.096 281.802 24.456C281.622 24.816 281.406 25.104 281.154 25.338C281.082 25.41 280.992 25.5 280.884 25.608C280.758 25.716 280.668 25.806 280.632 25.842C280.596 25.878 280.542 25.932 280.506 26.004C280.47 26.076 280.452 26.148 280.47 26.184C280.488 26.238 280.524 26.292 280.596 26.364C280.65 26.436 280.74 26.508 280.866 26.58C280.938 26.634 281.046 26.742 281.226 26.886C281.388 27.03 281.496 27.138 281.532 27.192C281.694 27.426 281.91 27.66 282.162 27.912C282.414 28.164 282.612 28.398 282.774 28.632C283.062 29.064 283.008 29.388 282.576 29.604C282.432 29.694 282.234 29.82 281.982 30C281.73 30.18 281.55 30.288 281.46 30.342C281.37 30.414 281.298 30.45 281.226 30.468C281.154 30.486 281.064 30.486 280.974 30.45C280.884 30.414 280.83 30.396 280.794 30.378C280.758 30.378 280.686 30.324 280.56 30.234C280.434 30.162 280.362 30.108 280.344 30.09C280.254 30.054 280.2 30.018 280.182 29.982C280.146 29.946 280.128 29.928 280.128 29.91C280.128 29.892 280.092 29.838 280.038 29.766C279.966 29.694 279.876 29.586 279.75 29.46C279.696 29.424 279.606 29.316 279.462 29.118C279.318 28.938 279.174 28.776 279.066 28.668C278.706 28.308 278.31 28.146 277.878 28.146C277.446 28.146 276.924 28.362 276.276 28.794C275.916 29.028 275.538 29.334 275.142 29.712C274.782 30.036 274.566 29.964 274.458 29.514C274.224 28.578 274.098 28.002 274.062 27.768C273.99 27.372 274.044 27.012 274.224 26.706C274.404 26.418 274.71 26.202 275.124 26.058C275.736 25.878 276.312 25.626 276.834 25.266C277.338 24.906 277.932 24.438 278.616 23.844C278.616 23.844 278.76 23.736 279.03 23.502ZM282.018 34.698C281.73 34.698 281.478 34.716 281.226 34.716C280.812 34.716 280.398 34.752 280.002 34.824C279.93 34.842 279.84 34.878 279.768 34.95C279.696 35.022 279.66 35.058 279.66 35.094C279.696 35.292 279.786 35.436 279.948 35.508C280.038 35.562 280.182 35.58 280.362 35.58C280.506 35.58 280.686 35.58 280.902 35.544C281.082 35.526 281.226 35.508 281.334 35.508C281.424 35.508 281.514 35.526 281.604 35.526C281.82 35.58 282.054 35.598 282.306 35.598C282.63 35.598 283.08 35.544 283.656 35.418C283.944 35.364 284.106 35.202 284.106 34.95C284.106 34.914 284.088 34.842 284.088 34.77L283.98 34.716H283.35C283.098 34.716 282.846 34.716 282.63 34.716C282.414 34.716 282.198 34.698 282.018 34.698ZM278.886 31.98V32.556V33.114H279.84H280.794C281.28 33.114 281.712 33.114 282.09 33.096C282.306 33.096 282.648 33.096 283.08 33.06C283.512 33.024 283.764 33.006 283.872 33.006C284.304 32.988 284.52 32.772 284.52 32.34V32.232V32.142C284.52 31.872 284.538 31.656 284.574 31.476C284.61 31.296 284.628 31.17 284.646 31.116C284.664 31.08 284.7 31.008 284.754 30.918C284.79 30.846 284.862 30.792 284.952 30.774C285.024 30.756 285.15 30.738 285.312 30.738C285.348 30.738 285.51 30.72 285.834 30.666C286.158 30.63 286.338 30.612 286.392 30.612C286.968 30.774 287.31 30.918 287.436 31.044C287.562 31.188 287.634 31.494 287.634 31.998C287.634 32.862 287.598 33.924 287.526 35.184C287.49 35.67 287.274 36.084 286.878 36.426C286.482 36.786 285.996 36.984 285.438 37.02C285.168 37.056 284.682 37.11 283.998 37.218C283.314 37.326 282.774 37.38 282.396 37.398C282.18 37.416 281.946 37.416 281.694 37.416C281.352 37.416 280.632 37.398 279.516 37.326C279.174 37.308 278.706 37.236 278.094 37.128C277.302 36.984 276.798 36.498 276.564 35.688C276.366 35.076 276.276 34.41 276.276 33.708C276.276 33.006 276.384 32.106 276.6 31.026C276.618 30.936 276.654 30.864 276.726 30.792C276.78 30.738 276.87 30.702 276.996 30.684C277.122 30.666 277.23 30.648 277.338 30.648C277.428 30.648 277.554 30.63 277.734 30.63H277.896C278.04 30.63 278.148 30.648 278.22 30.648C278.292 30.648 278.364 30.666 278.472 30.684C278.58 30.702 278.652 30.738 278.706 30.774C278.742 30.81 278.796 30.882 278.832 30.954C278.868 31.044 278.886 31.152 278.886 31.26V31.98ZM295.788 28.164C295.896 28.164 296.202 28.146 296.688 28.146H298.038H298.938C301.134 28.11 302.412 28.11 302.754 28.11C303.078 28.11 303.816 28.146 304.95 28.2C306.066 28.254 306.66 28.29 306.732 28.29C306.786 28.29 306.894 28.308 307.056 28.344C307.308 28.416 307.47 28.506 307.56 28.614C307.65 28.722 307.686 28.902 307.65 29.154C307.632 29.262 307.614 29.334 307.614 29.406C307.596 29.478 307.578 29.55 307.578 29.604C307.56 29.676 307.542 29.73 307.506 29.766C307.47 29.802 307.434 29.838 307.434 29.874C307.416 29.91 307.38 29.946 307.326 29.982C307.254 30.018 307.218 30.036 307.182 30.054C307.146 30.072 307.092 30.09 307.002 30.108C306.912 30.144 306.84 30.162 306.804 30.162C306.768 30.18 306.678 30.198 306.552 30.234C306.408 30.27 306.318 30.288 306.246 30.306C306.102 30.342 305.346 30.378 303.942 30.414C302.538 30.468 301.764 30.522 301.62 30.558C301.548 30.594 301.53 30.756 301.53 31.062C302.646 31.188 303.564 31.35 304.284 31.548C305.382 31.872 305.994 32.448 306.12 33.276C306.156 33.492 306.174 33.69 306.174 33.87C306.174 34.68 305.85 35.328 305.22 35.796C304.788 36.12 304.428 36.39 304.14 36.57C303.852 36.75 303.51 36.93 303.078 37.092C302.646 37.272 302.214 37.362 301.782 37.362C301.602 37.362 301.17 37.398 300.468 37.434C299.766 37.47 299.298 37.488 299.064 37.488C298.722 37.488 298.416 37.47 298.164 37.416C298.092 37.416 298.02 37.416 297.912 37.38C297.408 37.308 297.012 37.236 296.76 37.182C296.49 37.128 296.166 37.02 295.788 36.84C295.41 36.678 295.086 36.462 294.834 36.192C294.348 35.724 294.114 35.292 294.114 34.878C294.114 34.05 294.222 33.42 294.474 33.006C295.14 31.89 296.526 31.206 298.614 30.99L298.902 30.954C298.866 30.756 298.758 30.648 298.614 30.612C298.434 30.594 297.696 30.576 296.4 30.54C295.104 30.504 294.348 30.504 294.132 30.504C293.844 30.576 293.61 30.594 293.412 30.558C293.214 30.54 293.07 30.414 292.98 30.18C292.8 29.784 292.746 29.334 292.818 28.848C292.836 28.74 292.944 28.614 293.124 28.488C293.304 28.38 293.718 28.272 294.384 28.2C295.032 28.128 295.5 28.128 295.788 28.164ZM301.062 23.268H297.93C297.732 23.268 297.408 23.25 296.958 23.25C296.508 23.25 296.094 23.232 295.734 23.232C295.356 23.232 295.14 23.232 295.068 23.214C294.744 23.196 294.564 23.034 294.564 22.746C294.546 22.602 294.546 22.332 294.564 21.954C294.582 21.576 294.6 21.324 294.6 21.198C294.672 21.198 294.816 21.162 295.014 21.126C295.194 21.09 295.374 21.072 295.518 21.054C295.662 21.036 295.806 21.018 295.95 21.018C296.706 21.018 297.732 21.036 299.046 21.072C299.28 21.09 299.622 21.108 300.072 21.144C300.522 21.18 300.846 21.18 301.062 21.18C301.242 21.198 301.584 21.216 302.124 21.216C302.646 21.234 303.06 21.252 303.348 21.252C303.654 21.288 304.122 21.36 304.752 21.504C304.95 21.54 305.076 21.63 305.13 21.738C305.166 21.864 305.184 22.008 305.166 22.188C305.076 22.764 304.986 23.16 304.914 23.376C304.806 23.628 304.626 23.862 304.356 24.078C304.266 24.15 304.158 24.222 304.05 24.294C303.924 24.366 303.78 24.438 303.636 24.51C303.474 24.6 303.366 24.654 303.294 24.69C304.554 25.5 305.274 25.968 305.472 26.076C305.58 26.148 305.652 26.22 305.67 26.274C305.67 26.328 305.652 26.4 305.58 26.49C305.508 26.598 305.4 26.742 305.274 26.94C305.148 27.156 305.058 27.3 305.004 27.39C304.86 27.57 304.626 27.696 304.302 27.768C303.978 27.84 303.672 27.84 303.384 27.768C303.204 27.732 303.006 27.678 302.808 27.588C302.61 27.516 302.448 27.444 302.322 27.372C302.196 27.3 302.034 27.21 301.818 27.084C301.602 26.958 301.44 26.868 301.35 26.796C301.062 26.652 300.756 26.508 300.432 26.4C300.144 26.31 299.784 26.364 299.352 26.562C298.74 26.85 298.002 27.228 297.174 27.678C297.066 27.732 296.976 27.768 296.886 27.786C296.796 27.822 296.688 27.822 296.58 27.822C296.472 27.822 296.382 27.804 296.328 27.804C296.274 27.804 296.184 27.786 296.04 27.75C295.896 27.732 295.806 27.714 295.77 27.696C295.518 27.66 295.302 27.588 295.122 27.444C294.942 27.3 294.816 27.156 294.744 26.976C294.672 26.814 294.618 26.652 294.582 26.49C294.546 26.346 294.546 26.202 294.546 26.094V25.932C295.41 25.662 296.004 25.464 296.328 25.356C296.544 25.284 296.904 25.176 297.372 25.032C297.84 24.888 298.2 24.78 298.434 24.69C298.686 24.618 299.028 24.492 299.478 24.312C299.928 24.132 300.198 24.042 300.27 24.006C300.558 23.898 300.81 23.664 301.062 23.268ZM302.106 35.13C302.394 35.13 302.646 35.022 302.862 34.77C303.078 34.536 303.186 34.248 303.186 33.888C303.186 33.384 302.898 33.078 302.358 32.952C301.764 32.844 300.594 32.772 298.848 32.772H298.83C298.65 32.772 298.506 32.808 298.38 32.862C298.254 32.934 298.146 33.024 298.074 33.15C298.002 33.276 297.948 33.384 297.912 33.474C297.876 33.582 297.84 33.708 297.804 33.888C297.768 33.978 297.768 34.05 297.768 34.122C297.768 34.32 297.822 34.482 297.966 34.59C298.11 34.716 298.272 34.788 298.488 34.824C298.686 34.878 298.956 34.914 299.316 34.95C299.658 34.986 299.964 35.022 300.234 35.022C300.486 35.04 300.828 35.058 301.242 35.076C301.656 35.112 301.926 35.13 302.052 35.13H302.106ZM317.91 36.3C317.604 36.264 316.578 36.21 314.832 36.138C313.068 36.066 312.024 35.994 311.682 35.958C311.574 35.958 311.394 35.958 311.178 35.976C310.944 35.994 310.764 35.994 310.656 35.976C310.566 35.976 310.476 35.94 310.368 35.868C310.26 35.814 310.206 35.76 310.206 35.688C310.098 35.13 310.026 34.446 309.972 33.618C309.954 33.582 309.972 33.528 310.044 33.456C310.116 33.384 310.17 33.348 310.224 33.33C310.62 33.258 311.322 33.15 312.33 33.042C313.32 32.934 314.382 32.844 315.498 32.736C316.614 32.646 317.316 32.574 317.604 32.538C318.18 32.484 319.332 32.43 321.06 32.394C322.788 32.358 323.706 32.34 323.85 32.34C323.958 32.34 324.138 32.322 324.372 32.304C324.606 32.286 324.786 32.268 324.894 32.268C325.002 32.268 325.182 32.268 325.416 32.268C325.992 32.322 326.208 32.628 326.064 33.204C325.866 33.888 325.65 34.608 325.398 35.364C325.344 35.526 325.218 35.652 325.002 35.724C324.714 35.832 324.408 35.904 324.102 35.922C323.634 35.976 322.608 36.048 321.042 36.12C319.458 36.192 318.414 36.264 317.91 36.3ZM317.766 21.234C319.134 21.324 319.872 21.378 319.962 21.378C322.014 21.594 323.616 22.512 324.75 24.096C324.894 24.312 325.002 24.654 325.056 25.086C325.146 25.878 325.02 26.814 324.66 27.876C324.264 29.028 323.472 29.73 322.32 30C321.474 30.198 320.574 30.288 319.602 30.288C319.332 30.288 318.828 30.306 318.09 30.342C317.352 30.378 316.794 30.396 316.398 30.36C314.904 30.288 313.626 29.982 312.582 29.478C311.97 29.19 311.52 28.794 311.25 28.272C310.962 27.768 310.854 27.174 310.926 26.49C311.034 25.338 311.556 24.24 312.51 23.178C312.942 22.692 313.464 22.314 314.04 22.044C314.616 21.774 315.3 21.558 316.092 21.378C316.254 21.342 316.434 21.324 316.632 21.306C316.812 21.288 317.028 21.27 317.262 21.27C317.496 21.27 317.658 21.252 317.766 21.234ZM317.856 27.948C318.846 27.876 319.386 27.822 319.458 27.804C319.764 27.768 320.07 27.624 320.394 27.372C320.7 27.12 320.862 26.868 320.898 26.616C320.97 26.04 320.898 25.554 320.7 25.176C320.502 24.798 320.124 24.528 319.548 24.366C318.324 24.042 317.226 24.006 316.254 24.294C316.218 24.312 316.164 24.33 316.092 24.348C316.02 24.366 315.966 24.384 315.93 24.384C315.894 24.402 315.84 24.42 315.768 24.438C315.696 24.474 315.66 24.492 315.624 24.51C315.588 24.546 315.534 24.564 315.498 24.6C315.462 24.636 315.426 24.654 315.408 24.69C315.138 25.068 314.85 25.608 314.544 26.31C314.31 26.85 314.472 27.21 315.048 27.408C315.462 27.552 315.768 27.66 315.984 27.732C316.182 27.804 316.47 27.858 316.83 27.912C317.19 27.984 317.532 27.984 317.856 27.948ZM343.956 34.302C343.938 34.446 343.938 34.644 343.974 34.86C344.01 35.094 344.01 35.31 344.01 35.508C344.01 35.706 343.956 35.886 343.884 36.048C343.74 36.318 343.596 36.48 343.416 36.516C343.2 36.57 342.948 36.624 342.624 36.66C342.3 36.714 342.012 36.75 341.778 36.768C341.544 36.786 341.436 36.786 341.436 36.768H331.932C331.608 36.786 331.122 36.804 330.474 36.822C329.826 36.84 329.34 36.84 329.016 36.84C328.656 36.858 328.314 36.786 327.99 36.624L327.756 35.238L327.99 34.554C328.062 34.338 328.206 34.23 328.422 34.212L329.862 34.068C331.302 34.068 332.85 34.032 334.488 33.996C334.344 33.852 334.272 33.69 334.272 33.546C334.236 33.33 334.218 33.024 334.218 32.628C334.2 32.232 334.182 31.944 334.182 31.8C334.182 31.656 334.2 31.548 334.254 31.476C334.29 31.404 334.398 31.368 334.56 31.368C334.74 31.386 335.082 31.386 335.55 31.386C336.018 31.386 336.342 31.368 336.54 31.368C336.918 31.386 337.17 31.476 337.314 31.656C337.458 31.836 337.566 32.178 337.656 32.682C337.71 33.06 337.62 33.474 337.386 33.942C339.33 33.906 340.608 33.87 341.184 33.834C341.886 33.816 342.444 33.816 342.84 33.852C342.948 33.852 343.272 33.96 343.812 34.14C343.83 34.158 343.866 34.176 343.902 34.212C343.938 34.248 343.956 34.284 343.956 34.302ZM333.372 28.11C333.3 28.524 333.318 28.776 333.408 28.866C333.498 28.956 333.75 28.956 334.146 28.884C334.524 28.812 335.154 28.758 336.054 28.722C336.468 28.722 337.062 28.704 337.818 28.668C338.574 28.65 339.132 28.632 339.456 28.614C339.456 28.614 339.96 28.578 340.968 28.506C341.166 28.506 341.31 28.542 341.4 28.632C341.49 28.722 341.526 28.866 341.526 29.082C341.526 29.37 341.508 29.604 341.49 29.784C341.454 29.964 341.418 30.162 341.346 30.378C341.274 30.594 341.148 30.774 341.004 30.918C340.842 31.062 340.644 31.17 340.392 31.242C340.248 31.278 340.086 31.314 339.906 31.314C339.726 31.314 339.528 31.314 339.276 31.278C339.024 31.26 338.844 31.242 338.772 31.242C338.25 31.224 337.584 31.188 336.792 31.134C335.136 31.044 333.498 30.936 331.86 30.81C331.788 30.81 331.716 30.792 331.608 30.738C331.212 30.576 330.834 30.198 330.474 29.604C330.096 29.028 329.934 28.542 329.97 28.146C330.024 27.57 330.15 27.012 330.348 26.508C330.456 26.184 330.6 25.986 330.78 25.914C330.942 25.842 331.212 25.824 331.572 25.896C331.662 25.914 331.752 25.932 331.86 25.932C331.968 25.932 332.076 25.932 332.22 25.914C332.364 25.914 332.472 25.896 332.544 25.896C332.562 25.896 332.724 25.896 333.048 25.896C333.354 25.896 333.516 25.896 333.552 25.896C333.624 25.896 333.912 25.914 334.416 25.95C334.92 25.986 335.316 25.986 335.586 25.968C336.414 25.95 337.152 25.878 337.8 25.752C337.962 25.716 338.07 25.644 338.142 25.536C338.196 25.428 338.232 25.266 338.25 25.068C338.25 24.888 338.286 24.744 338.322 24.672C338.322 24.672 338.286 24.636 338.25 24.6C338.196 24.564 338.142 24.528 338.07 24.492C337.998 24.456 337.926 24.42 337.89 24.402C337.638 24.348 337.368 24.312 337.08 24.312C336.756 24.312 336.198 24.312 335.406 24.312C334.614 24.312 334.074 24.312 333.768 24.294C333.588 24.294 333.282 24.294 332.85 24.258C332.4 24.222 332.058 24.204 331.842 24.204C331.302 24.24 330.726 24.312 330.096 24.456C329.952 24.492 329.826 24.492 329.754 24.456C329.682 24.42 329.646 24.33 329.646 24.186C329.664 22.98 329.7 22.188 329.754 21.792C329.79 21.45 329.916 21.198 330.096 21.054C330.276 20.91 330.546 20.838 330.906 20.838C332.67 20.802 334.146 20.928 335.352 21.234C335.46 21.27 335.604 21.288 335.748 21.306C335.892 21.324 336.036 21.342 336.144 21.342C336.252 21.342 336.396 21.342 336.576 21.342C336.756 21.342 336.882 21.36 336.972 21.36C337.098 21.36 337.44 21.378 337.98 21.396C338.52 21.414 338.916 21.432 339.168 21.45C339.402 21.468 339.726 21.504 340.14 21.558C340.536 21.612 340.914 21.684 341.238 21.792C341.526 21.9 341.76 22.062 341.922 22.296C342.3 22.926 342.408 23.79 342.246 24.906C342.21 25.14 342.12 25.482 342.012 25.932C341.886 26.382 341.814 26.724 341.778 26.958C341.706 27.354 341.544 27.642 341.292 27.822C341.04 28.002 340.698 28.11 340.302 28.164C339.366 28.308 338.43 28.38 337.494 28.38H337.188C336.828 28.38 336.45 28.362 336.054 28.326C335.658 28.29 335.19 28.254 334.686 28.2C334.182 28.164 333.804 28.128 333.57 28.092C333.552 28.092 333.48 28.11 333.372 28.11ZM365.887 36.516C365.311 36.516 364.915 36.426 364.699 36.21C364.483 35.994 364.375 35.598 364.339 35.004C364.249 33.33 364.213 32.178 364.213 31.548C364.213 30.666 364.267 27.876 364.393 23.196C364.393 23.07 364.411 22.926 364.447 22.782C364.465 22.638 364.483 22.512 364.519 22.404C364.537 22.296 364.573 22.17 364.627 21.99C364.663 21.81 364.699 21.684 364.735 21.576C364.771 21.432 364.843 21.324 364.969 21.288C365.005 21.288 365.131 21.252 365.329 21.198C365.527 21.144 365.671 21.108 365.743 21.09C365.815 21.072 365.923 21.054 366.103 21.018C366.265 20.982 366.391 20.982 366.499 20.982C366.607 20.982 366.733 21 366.877 21.036C367.021 21.072 367.147 21.108 367.291 21.162C367.633 21.342 367.831 21.666 367.867 22.134C367.867 22.35 367.885 23.07 367.903 24.312C367.903 25.554 367.939 26.328 367.975 26.634C368.011 26.85 368.137 27.084 368.353 27.318C368.461 27.444 368.569 27.57 368.695 27.696C368.821 27.84 368.965 27.984 369.127 28.128C369.271 28.29 369.397 28.416 369.505 28.488C369.649 28.632 369.739 28.794 369.811 28.956C369.883 29.136 369.901 29.334 369.883 29.55C369.865 29.766 369.847 29.928 369.829 30.036C369.793 30.144 369.757 30.342 369.685 30.594C369.577 31.026 369.199 31.26 368.551 31.26C368.209 31.26 367.993 31.314 367.921 31.404C367.831 31.512 367.795 31.746 367.813 32.142C367.813 32.412 367.813 32.898 367.831 33.582C367.849 34.266 367.867 34.734 367.867 34.968C367.867 35.454 367.741 35.778 367.453 35.94C366.733 36.336 366.211 36.534 365.887 36.516ZM353.269 23.808C353.395 23.592 353.593 23.448 353.845 23.394C355.321 23.124 356.455 22.926 357.247 22.818C358.435 22.656 359.533 22.638 360.559 22.782C360.577 22.782 360.631 22.8 360.739 22.8C360.829 22.818 360.901 22.836 360.937 22.836C360.973 22.836 361.045 22.854 361.117 22.872C361.189 22.89 361.243 22.908 361.297 22.944C361.351 22.98 361.405 23.034 361.459 23.07C361.549 23.16 361.639 23.34 361.747 23.61C362.197 24.906 362.395 26.346 362.323 27.966C362.287 28.56 362.197 29.424 362.053 30.576C362.017 30.828 361.981 31.368 361.927 32.232C361.873 33.096 361.783 33.744 361.675 34.194C361.549 34.698 361.387 35.022 361.207 35.202C361.063 35.346 360.631 35.454 359.947 35.49C359.263 35.544 358.633 35.544 358.093 35.508C357.805 35.508 357.661 35.418 357.625 35.238C357.589 35.166 357.589 35.094 357.625 34.986C357.643 34.878 357.679 34.77 357.715 34.644C357.751 34.536 357.769 34.446 357.769 34.392C357.823 34.068 357.877 33.744 357.913 33.402C357.985 32.808 358.021 32.16 358.057 31.458C358.075 30.594 358.057 29.316 358.003 27.606C357.985 27.354 357.949 27.174 357.895 27.066C357.733 26.778 357.355 26.706 356.779 26.832C356.113 26.994 354.925 27.048 353.215 26.976C353.125 26.976 353.071 26.958 353.035 26.922C352.981 26.886 352.963 26.778 352.981 26.634C353.089 24.906 353.179 23.952 353.269 23.808ZM382.699 21.036C383.383 21 383.761 20.982 383.797 20.982C384.193 21 384.571 21.036 384.967 21.09C385.363 21.144 385.705 21.18 386.011 21.198C386.353 21.234 386.533 21.432 386.551 21.774C386.551 22.206 386.587 22.872 386.641 23.754C386.695 24.654 386.731 25.32 386.749 25.77C386.767 26.112 386.767 26.724 386.767 27.588C386.767 28.47 386.767 29.082 386.767 29.406C386.767 29.892 386.767 30.882 386.767 32.394C386.767 33.906 386.767 34.914 386.767 35.4V35.436C386.767 35.688 386.731 35.94 386.659 36.156C386.497 36.606 386.209 36.822 385.795 36.804C385.597 36.804 385.363 36.822 385.111 36.822C384.859 36.822 384.643 36.822 384.463 36.786C384.319 36.786 384.157 36.732 384.013 36.642C383.851 36.57 383.743 36.462 383.707 36.354C383.347 35.49 383.167 34.824 383.149 34.356C383.095 33.312 383.059 31.53 383.041 29.046C383.023 26.562 383.005 24.87 382.969 23.952C382.969 23.664 382.951 23.376 382.915 23.052C382.879 22.728 382.843 22.368 382.807 21.954L382.699 21.036ZM371.269 23.808C371.395 23.592 371.593 23.448 371.845 23.394C373.321 23.124 374.455 22.926 375.247 22.818C376.435 22.656 377.533 22.638 378.559 22.782C378.577 22.782 378.631 22.8 378.739 22.8C378.829 22.818 378.901 22.836 378.937 22.836C378.973 22.836 379.045 22.854 379.117 22.872C379.189 22.89 379.243 22.908 379.297 22.944C379.351 22.98 379.405 23.034 379.459 23.07C379.549 23.16 379.639 23.34 379.747 23.61C380.197 24.906 380.395 26.346 380.323 27.966C380.287 28.56 380.197 29.424 380.053 30.576C380.017 30.828 379.981 31.368 379.927 32.232C379.873 33.096 379.783 33.744 379.675 34.194C379.549 34.698 379.387 35.022 379.207 35.202C379.063 35.346 378.631 35.454 377.947 35.49C377.263 35.544 376.633 35.544 376.093 35.508C375.805 35.508 375.661 35.418 375.625 35.238C375.589 35.166 375.589 35.094 375.625 34.986C375.643 34.878 375.679 34.77 375.715 34.644C375.751 34.536 375.769 34.446 375.769 34.392C375.823 34.068 375.877 33.744 375.913 33.402C375.985 32.808 376.021 32.16 376.057 31.458C376.075 30.594 376.057 29.316 376.003 27.606C375.985 27.354 375.949 27.174 375.895 27.066C375.733 26.778 375.355 26.706 374.779 26.832C374.113 26.994 372.925 27.048 371.215 26.976C371.125 26.976 371.071 26.958 371.035 26.922C370.981 26.886 370.963 26.778 370.981 26.634C371.089 24.906 371.179 23.952 371.269 23.808Z" fill="#578246"/>
<path d="M228.749 36.302C228.731 36.446 228.731 36.644 228.767 36.86C228.803 37.094 228.803 37.31 228.803 37.508C228.803 37.706 228.749 37.886 228.677 38.048C228.533 38.318 228.389 38.48 228.209 38.516C227.993 38.57 227.741 38.624 227.417 38.66C227.093 38.714 226.805 38.75 226.571 38.768C226.337 38.786 226.229 38.786 226.229 38.768H216.725C216.401 38.786 215.915 38.804 215.267 38.822C214.619 38.84 214.133 38.84 213.809 38.84C213.449 38.858 213.107 38.786 212.783 38.624L212.549 37.238L212.783 36.554C212.855 36.338 212.999 36.23 213.215 36.212L214.655 36.068C216.095 36.068 217.643 36.032 219.281 35.996C219.137 35.852 219.065 35.69 219.065 35.546C219.029 35.33 219.011 35.024 219.011 34.628C218.993 34.232 218.975 33.944 218.975 33.8C218.975 33.656 218.993 33.548 219.047 33.476C219.083 33.404 219.191 33.368 219.353 33.368C219.533 33.386 219.875 33.386 220.343 33.386C220.811 33.386 221.135 33.368 221.333 33.368C221.711 33.386 221.963 33.476 222.107 33.656C222.251 33.836 222.359 34.178 222.449 34.682C222.503 35.06 222.413 35.474 222.179 35.942C224.123 35.906 225.401 35.87 225.977 35.834C226.679 35.816 227.237 35.816 227.633 35.852C227.741 35.852 228.065 35.96 228.605 36.14C228.623 36.158 228.659 36.176 228.695 36.212C228.731 36.248 228.749 36.284 228.749 36.302ZM220.559 23.234C221.927 23.324 222.665 23.378 222.755 23.378C224.807 23.594 226.409 24.512 227.543 26.096C227.687 26.312 227.795 26.654 227.849 27.086C227.939 27.878 227.813 28.814 227.453 29.876C227.057 31.028 226.265 31.73 225.113 32C224.267 32.198 223.367 32.288 222.395 32.288C222.125 32.288 221.621 32.306 220.883 32.342C220.145 32.378 219.587 32.396 219.191 32.36C217.697 32.288 216.419 31.982 215.375 31.478C214.763 31.19 214.313 30.794 214.043 30.272C213.755 29.768 213.647 29.174 213.719 28.49C213.827 27.338 214.349 26.24 215.303 25.178C215.735 24.692 216.257 24.314 216.833 24.044C217.409 23.774 218.093 23.558 218.885 23.378C219.047 23.342 219.227 23.324 219.425 23.306C219.605 23.288 219.821 23.27 220.055 23.27C220.289 23.27 220.451 23.252 220.559 23.234ZM220.649 29.948C221.639 29.876 222.179 29.822 222.251 29.804C222.557 29.768 222.863 29.624 223.187 29.372C223.493 29.12 223.655 28.868 223.691 28.616C223.763 28.04 223.691 27.554 223.493 27.176C223.295 26.798 222.917 26.528 222.341 26.366C221.117 26.042 220.019 26.006 219.047 26.294C219.011 26.312 218.957 26.33 218.885 26.348C218.813 26.366 218.759 26.384 218.723 26.384C218.687 26.402 218.633 26.42 218.561 26.438C218.489 26.474 218.453 26.492 218.417 26.51C218.381 26.546 218.327 26.564 218.291 26.6C218.255 26.636 218.219 26.654 218.201 26.69C217.931 27.068 217.643 27.608 217.337 28.31C217.103 28.85 217.265 29.21 217.841 29.408C218.255 29.552 218.561 29.66 218.777 29.732C218.975 29.804 219.263 29.858 219.623 29.912C219.983 29.984 220.325 29.984 220.649 29.948ZM239.243 31.55C237.767 31.622 236.975 31.64 236.831 31.64C233.915 31.64 232.277 31.604 231.881 31.496C231.521 31.406 231.323 31.226 231.269 30.974C231.215 30.722 231.251 30.344 231.395 29.84C231.449 29.768 231.485 29.678 231.503 29.552C231.521 29.426 231.575 29.318 231.665 29.246C231.701 29.21 231.791 29.174 231.917 29.174H234.941H237.965C238.055 29.174 238.289 29.192 238.685 29.228C239.081 29.264 239.297 29.3 239.351 29.3C239.459 29.3 240.449 29.318 242.285 29.354C244.121 29.39 245.183 29.408 245.471 29.444C245.525 29.444 245.597 29.498 245.669 29.57C245.741 29.642 245.795 29.714 245.813 29.786C245.885 30.254 245.885 30.614 245.813 30.848C245.705 31.244 245.363 31.46 244.787 31.496C244.607 31.514 243.671 31.532 241.997 31.55C240.305 31.568 239.387 31.568 239.243 31.568V31.55ZM236.381 23.396C236.381 23.126 236.291 22.928 236.111 22.802C235.913 22.694 235.589 22.64 235.157 22.64C235.013 22.64 234.833 22.658 234.581 22.694C234.329 22.73 234.167 22.766 234.059 22.766C233.699 22.784 233.465 22.838 233.375 22.91C233.267 22.982 233.231 23.162 233.249 23.414C233.249 23.846 233.285 24.314 233.321 24.782C233.357 25.268 233.393 25.646 233.429 25.934C233.429 26.186 233.501 26.51 233.609 26.906C233.609 26.942 233.645 26.978 233.717 27.014C233.771 27.05 233.825 27.086 233.879 27.086C234.005 27.104 234.275 27.14 234.707 27.176C235.139 27.212 235.463 27.266 235.697 27.302C236.111 27.374 236.615 27.428 237.209 27.464C237.803 27.5 238.469 27.536 239.189 27.554C239.909 27.572 240.431 27.59 240.737 27.608C241.061 27.626 241.529 27.608 242.141 27.572C242.753 27.536 243.149 27.5 243.365 27.5C243.545 27.5 243.689 27.464 243.779 27.392C243.869 27.338 243.923 27.23 243.959 27.086C244.067 26.564 244.157 26.132 244.247 25.772C244.355 25.322 244.157 25.088 243.653 25.052C242.735 25.016 241.421 24.962 239.693 24.908H236.381C236.399 24.908 236.399 24.71 236.399 24.278C236.381 23.846 236.381 23.558 236.381 23.396ZM234.023 35.078C233.987 35.078 233.897 35.096 233.753 35.096C233.609 35.114 233.501 35.114 233.447 35.114C233.375 35.114 233.303 35.114 233.195 35.096C233.087 35.078 232.997 35.042 232.961 35.006C232.907 34.97 232.853 34.898 232.799 34.826C232.745 34.754 232.709 34.646 232.709 34.52C232.691 34.448 232.673 34.34 232.637 34.16C232.601 33.98 232.583 33.836 232.583 33.71C232.583 33.548 232.601 33.386 232.655 33.206C232.655 33.134 232.709 33.062 232.817 32.99C232.925 32.918 233.033 32.864 233.159 32.864C238.019 32.864 241.403 32.9 243.347 33.008C243.743 33.044 244.049 33.08 244.283 33.152C244.553 33.242 244.715 33.368 244.769 33.512C244.823 33.728 244.859 33.962 244.859 34.196C244.859 34.466 244.805 34.79 244.733 35.168C244.589 35.798 244.229 36.248 243.635 36.5C243.311 36.644 242.717 36.752 241.871 36.824C241.565 36.86 241.133 36.878 240.557 36.878C239.981 36.896 239.585 36.914 239.351 36.914C239.315 36.914 238.667 36.932 237.425 36.95C236.165 36.968 235.481 36.986 235.355 37.022L235.373 37.454C235.589 37.454 236.399 37.454 237.803 37.436C239.207 37.418 240.035 37.4 240.251 37.4C240.737 37.4 241.169 37.4 241.547 37.382C241.799 37.382 242.195 37.364 242.717 37.328C243.221 37.292 243.599 37.274 243.851 37.274H243.887C244.211 37.274 244.391 37.382 244.391 37.598V37.688C244.283 38.192 244.193 38.588 244.121 38.84C244.031 39.092 243.887 39.272 243.689 39.38C243.491 39.488 243.167 39.524 242.699 39.524H242.483C242.015 39.524 241.349 39.488 240.503 39.434C239.657 39.38 239.063 39.344 238.721 39.326C238.181 39.308 237.713 39.308 237.299 39.326C236.885 39.344 236.417 39.344 235.913 39.326C235.409 39.308 234.959 39.254 234.563 39.182C234.023 39.074 233.645 38.894 233.429 38.642C233.213 38.39 233.087 38.066 233.015 37.634C232.997 37.562 232.997 37.364 232.997 37.058C232.997 37.04 232.997 36.914 233.015 36.68C233.015 36.338 233.123 36.104 233.303 35.96C233.483 35.834 233.789 35.762 234.257 35.744C235.985 35.708 238.271 35.636 241.133 35.528C241.493 35.528 241.673 35.402 241.673 35.186L241.655 35.096C241.655 35.042 241.655 34.988 241.655 34.934V34.826C241.655 34.808 241.565 34.79 241.385 34.79C241.205 34.79 240.881 34.79 240.413 34.808C239.945 34.826 239.459 34.844 238.937 34.862C238.415 34.898 237.677 34.934 236.741 34.97C235.805 35.006 234.887 35.042 234.023 35.078ZM260.627 36.374C258.791 36.626 257.801 36.752 257.675 36.77C256.955 36.878 255.605 36.968 253.625 37.022C251.645 37.094 250.295 37.058 249.557 36.95C249.485 36.95 249.395 36.896 249.323 36.824C249.251 36.752 249.215 36.698 249.215 36.626C249.161 35.942 249.161 35.366 249.215 34.934C249.233 34.646 249.359 34.286 249.593 33.872C250.367 33.656 250.907 33.548 251.213 33.512C251.429 33.476 252.455 33.494 254.291 33.566C256.127 33.638 257.153 33.656 257.333 33.656C257.549 33.656 257.891 33.638 258.359 33.638C258.809 33.638 259.151 33.62 259.385 33.602L260.681 33.476C260.753 31.442 260.807 30.308 260.825 30.092L261.113 23.378C261.149 23.342 261.203 23.288 261.293 23.216C261.365 23.162 261.563 23.072 261.851 22.964C262.139 22.856 262.427 22.802 262.751 22.766C262.895 22.766 263.093 22.766 263.345 22.802C263.579 22.838 263.777 22.874 263.957 22.91L264.209 22.964C264.245 23.018 264.317 23.072 264.389 23.144C264.461 23.216 264.551 23.342 264.659 23.54C264.767 23.738 264.785 23.918 264.749 24.08C264.569 24.584 264.443 26.276 264.371 29.138C264.281 32 264.227 33.512 264.209 33.692C264.191 33.836 264.191 34.124 264.191 34.556C264.191 34.988 264.173 35.258 264.137 35.384C264.101 35.528 264.083 35.96 264.101 36.644C264.119 37.346 264.101 37.76 264.065 37.868C263.957 38.21 263.795 38.444 263.615 38.552C263.417 38.678 263.129 38.732 262.769 38.732C262.157 38.732 261.689 38.696 261.401 38.642C260.969 38.57 260.789 38.318 260.843 37.922C260.843 37.832 260.807 37.598 260.735 37.202C260.663 36.806 260.627 36.536 260.627 36.374ZM252.761 23.558C252.869 23.576 253.031 23.594 253.265 23.63C253.481 23.666 253.697 23.702 253.877 23.738C254.057 23.774 254.219 23.81 254.381 23.846C254.417 23.882 254.597 23.936 254.903 24.026C255.209 24.134 255.425 24.188 255.533 24.224C255.641 24.26 255.803 24.332 256.037 24.404C256.271 24.494 256.469 24.584 256.649 24.656C256.811 24.728 256.973 24.818 257.153 24.89C257.765 25.25 258.179 25.718 258.359 26.294C258.539 26.888 258.521 27.518 258.305 28.166C257.999 29.156 257.639 30.074 257.225 30.902C257.117 31.118 256.955 31.298 256.757 31.478C256.559 31.658 256.361 31.784 256.163 31.856C254.705 32.36 253.607 32.648 252.869 32.702C251.717 32.81 250.781 32.522 250.079 31.856C249.647 31.46 249.359 30.83 249.197 29.948C248.783 27.788 249.305 25.952 250.763 24.44C251.303 23.882 251.969 23.594 252.761 23.558ZM255.119 28.166C255.119 27.644 255.011 27.266 254.813 27.032C254.597 26.816 254.273 26.69 253.823 26.69C253.283 26.69 252.815 26.906 252.419 27.32C252.005 27.734 251.789 28.202 251.789 28.742C251.789 29.048 251.969 29.372 252.347 29.696C252.707 30.02 253.067 30.164 253.409 30.128C253.841 30.092 254.237 29.876 254.597 29.516C254.939 29.156 255.119 28.706 255.119 28.166ZM289.29 22.892C289.344 23.936 289.38 24.458 289.398 24.494C289.506 25.394 289.47 26.69 289.326 28.382C289.29 28.67 289.254 29.084 289.182 29.606C289.11 30.128 289.074 30.47 289.074 30.65C289.038 30.938 288.876 31.082 288.588 31.082C288.444 31.082 288.048 31.064 287.364 31.064C286.68 31.064 286.23 31.064 286.032 31.064C285.816 31.064 285.69 30.902 285.636 30.578C285.6 30.506 285.582 30.416 285.582 30.308C285.564 30.218 285.546 30.128 285.546 30.056C285.546 29.984 285.528 29.894 285.528 29.786C285.528 29.678 285.528 29.588 285.528 29.516C285.528 29.462 285.528 29.372 285.528 29.246C285.528 29.12 285.546 29.03 285.546 28.994C285.546 28.958 285.546 28.85 285.564 28.706C285.564 28.562 285.582 28.49 285.582 28.454C285.582 28.436 285.6 28.346 285.618 28.184C285.618 28.022 285.636 27.932 285.636 27.914C285.672 27.554 285.69 26.762 285.726 25.538V24.584V23.612C285.726 23.432 285.834 23.288 286.05 23.18C286.518 22.982 287.544 22.874 289.146 22.838C289.146 22.838 289.2 22.856 289.29 22.892ZM279.03 25.502C278.382 25.358 277.572 25.376 276.6 25.556C275.628 25.736 274.944 25.826 274.584 25.808C274.71 24.728 274.8 23.954 274.872 23.486C275.826 23.36 276.33 23.288 276.402 23.288C278.022 23.198 279.066 23.162 279.57 23.18C279.822 23.198 280.074 23.234 280.326 23.27C280.578 23.324 280.902 23.396 281.298 23.486C281.676 23.594 281.928 23.648 282.072 23.666C282.504 23.774 282.666 24.08 282.522 24.566C282.378 25.052 282.27 25.394 282.198 25.61C282.126 25.826 281.982 26.096 281.802 26.456C281.622 26.816 281.406 27.104 281.154 27.338C281.082 27.41 280.992 27.5 280.884 27.608C280.758 27.716 280.668 27.806 280.632 27.842C280.596 27.878 280.542 27.932 280.506 28.004C280.47 28.076 280.452 28.148 280.47 28.184C280.488 28.238 280.524 28.292 280.596 28.364C280.65 28.436 280.74 28.508 280.866 28.58C280.938 28.634 281.046 28.742 281.226 28.886C281.388 29.03 281.496 29.138 281.532 29.192C281.694 29.426 281.91 29.66 282.162 29.912C282.414 30.164 282.612 30.398 282.774 30.632C283.062 31.064 283.008 31.388 282.576 31.604C282.432 31.694 282.234 31.82 281.982 32C281.73 32.18 281.55 32.288 281.46 32.342C281.37 32.414 281.298 32.45 281.226 32.468C281.154 32.486 281.064 32.486 280.974 32.45C280.884 32.414 280.83 32.396 280.794 32.378C280.758 32.378 280.686 32.324 280.56 32.234C280.434 32.162 280.362 32.108 280.344 32.09C280.254 32.054 280.2 32.018 280.182 31.982C280.146 31.946 280.128 31.928 280.128 31.91C280.128 31.892 280.092 31.838 280.038 31.766C279.966 31.694 279.876 31.586 279.75 31.46C279.696 31.424 279.606 31.316 279.462 31.118C279.318 30.938 279.174 30.776 279.066 30.668C278.706 30.308 278.31 30.146 277.878 30.146C277.446 30.146 276.924 30.362 276.276 30.794C275.916 31.028 275.538 31.334 275.142 31.712C274.782 32.036 274.566 31.964 274.458 31.514C274.224 30.578 274.098 30.002 274.062 29.768C273.99 29.372 274.044 29.012 274.224 28.706C274.404 28.418 274.71 28.202 275.124 28.058C275.736 27.878 276.312 27.626 276.834 27.266C277.338 26.906 277.932 26.438 278.616 25.844C278.616 25.844 278.76 25.736 279.03 25.502ZM282.018 36.698C281.73 36.698 281.478 36.716 281.226 36.716C280.812 36.716 280.398 36.752 280.002 36.824C279.93 36.842 279.84 36.878 279.768 36.95C279.696 37.022 279.66 37.058 279.66 37.094C279.696 37.292 279.786 37.436 279.948 37.508C280.038 37.562 280.182 37.58 280.362 37.58C280.506 37.58 280.686 37.58 280.902 37.544C281.082 37.526 281.226 37.508 281.334 37.508C281.424 37.508 281.514 37.526 281.604 37.526C281.82 37.58 282.054 37.598 282.306 37.598C282.63 37.598 283.08 37.544 283.656 37.418C283.944 37.364 284.106 37.202 284.106 36.95C284.106 36.914 284.088 36.842 284.088 36.77L283.98 36.716H283.35C283.098 36.716 282.846 36.716 282.63 36.716C282.414 36.716 282.198 36.698 282.018 36.698ZM278.886 33.98V34.556V35.114H279.84H280.794C281.28 35.114 281.712 35.114 282.09 35.096C282.306 35.096 282.648 35.096 283.08 35.06C283.512 35.024 283.764 35.006 283.872 35.006C284.304 34.988 284.52 34.772 284.52 34.34V34.232V34.142C284.52 33.872 284.538 33.656 284.574 33.476C284.61 33.296 284.628 33.17 284.646 33.116C284.664 33.08 284.7 33.008 284.754 32.918C284.79 32.846 284.862 32.792 284.952 32.774C285.024 32.756 285.15 32.738 285.312 32.738C285.348 32.738 285.51 32.72 285.834 32.666C286.158 32.63 286.338 32.612 286.392 32.612C286.968 32.774 287.31 32.918 287.436 33.044C287.562 33.188 287.634 33.494 287.634 33.998C287.634 34.862 287.598 35.924 287.526 37.184C287.49 37.67 287.274 38.084 286.878 38.426C286.482 38.786 285.996 38.984 285.438 39.02C285.168 39.056 284.682 39.11 283.998 39.218C283.314 39.326 282.774 39.38 282.396 39.398C282.18 39.416 281.946 39.416 281.694 39.416C281.352 39.416 280.632 39.398 279.516 39.326C279.174 39.308 278.706 39.236 278.094 39.128C277.302 38.984 276.798 38.498 276.564 37.688C276.366 37.076 276.276 36.41 276.276 35.708C276.276 35.006 276.384 34.106 276.6 33.026C276.618 32.936 276.654 32.864 276.726 32.792C276.78 32.738 276.87 32.702 276.996 32.684C277.122 32.666 277.23 32.648 277.338 32.648C277.428 32.648 277.554 32.63 277.734 32.63H277.896C278.04 32.63 278.148 32.648 278.22 32.648C278.292 32.648 278.364 32.666 278.472 32.684C278.58 32.702 278.652 32.738 278.706 32.774C278.742 32.81 278.796 32.882 278.832 32.954C278.868 33.044 278.886 33.152 278.886 33.26V33.98ZM295.788 30.164C295.896 30.164 296.202 30.146 296.688 30.146H298.038H298.938C301.134 30.11 302.412 30.11 302.754 30.11C303.078 30.11 303.816 30.146 304.95 30.2C306.066 30.254 306.66 30.29 306.732 30.29C306.786 30.29 306.894 30.308 307.056 30.344C307.308 30.416 307.47 30.506 307.56 30.614C307.65 30.722 307.686 30.902 307.65 31.154C307.632 31.262 307.614 31.334 307.614 31.406C307.596 31.478 307.578 31.55 307.578 31.604C307.56 31.676 307.542 31.73 307.506 31.766C307.47 31.802 307.434 31.838 307.434 31.874C307.416 31.91 307.38 31.946 307.326 31.982C307.254 32.018 307.218 32.036 307.182 32.054C307.146 32.072 307.092 32.09 307.002 32.108C306.912 32.144 306.84 32.162 306.804 32.162C306.768 32.18 306.678 32.198 306.552 32.234C306.408 32.27 306.318 32.288 306.246 32.306C306.102 32.342 305.346 32.378 303.942 32.414C302.538 32.468 301.764 32.522 301.62 32.558C301.548 32.594 301.53 32.756 301.53 33.062C302.646 33.188 303.564 33.35 304.284 33.548C305.382 33.872 305.994 34.448 306.12 35.276C306.156 35.492 306.174 35.69 306.174 35.87C306.174 36.68 305.85 37.328 305.22 37.796C304.788 38.12 304.428 38.39 304.14 38.57C303.852 38.75 303.51 38.93 303.078 39.092C302.646 39.272 302.214 39.362 301.782 39.362C301.602 39.362 301.17 39.398 300.468 39.434C299.766 39.47 299.298 39.488 299.064 39.488C298.722 39.488 298.416 39.47 298.164 39.416C298.092 39.416 298.02 39.416 297.912 39.38C297.408 39.308 297.012 39.236 296.76 39.182C296.49 39.128 296.166 39.02 295.788 38.84C295.41 38.678 295.086 38.462 294.834 38.192C294.348 37.724 294.114 37.292 294.114 36.878C294.114 36.05 294.222 35.42 294.474 35.006C295.14 33.89 296.526 33.206 298.614 32.99L298.902 32.954C298.866 32.756 298.758 32.648 298.614 32.612C298.434 32.594 297.696 32.576 296.4 32.54C295.104 32.504 294.348 32.504 294.132 32.504C293.844 32.576 293.61 32.594 293.412 32.558C293.214 32.54 293.07 32.414 292.98 32.18C292.8 31.784 292.746 31.334 292.818 30.848C292.836 30.74 292.944 30.614 293.124 30.488C293.304 30.38 293.718 30.272 294.384 30.2C295.032 30.128 295.5 30.128 295.788 30.164ZM301.062 25.268H297.93C297.732 25.268 297.408 25.25 296.958 25.25C296.508 25.25 296.094 25.232 295.734 25.232C295.356 25.232 295.14 25.232 295.068 25.214C294.744 25.196 294.564 25.034 294.564 24.746C294.546 24.602 294.546 24.332 294.564 23.954C294.582 23.576 294.6 23.324 294.6 23.198C294.672 23.198 294.816 23.162 295.014 23.126C295.194 23.09 295.374 23.072 295.518 23.054C295.662 23.036 295.806 23.018 295.95 23.018C296.706 23.018 297.732 23.036 299.046 23.072C299.28 23.09 299.622 23.108 300.072 23.144C300.522 23.18 300.846 23.18 301.062 23.18C301.242 23.198 301.584 23.216 302.124 23.216C302.646 23.234 303.06 23.252 303.348 23.252C303.654 23.288 304.122 23.36 304.752 23.504C304.95 23.54 305.076 23.63 305.13 23.738C305.166 23.864 305.184 24.008 305.166 24.188C305.076 24.764 304.986 25.16 304.914 25.376C304.806 25.628 304.626 25.862 304.356 26.078C304.266 26.15 304.158 26.222 304.05 26.294C303.924 26.366 303.78 26.438 303.636 26.51C303.474 26.6 303.366 26.654 303.294 26.69C304.554 27.5 305.274 27.968 305.472 28.076C305.58 28.148 305.652 28.22 305.67 28.274C305.67 28.328 305.652 28.4 305.58 28.49C305.508 28.598 305.4 28.742 305.274 28.94C305.148 29.156 305.058 29.3 305.004 29.39C304.86 29.57 304.626 29.696 304.302 29.768C303.978 29.84 303.672 29.84 303.384 29.768C303.204 29.732 303.006 29.678 302.808 29.588C302.61 29.516 302.448 29.444 302.322 29.372C302.196 29.3 302.034 29.21 301.818 29.084C301.602 28.958 301.44 28.868 301.35 28.796C301.062 28.652 300.756 28.508 300.432 28.4C300.144 28.31 299.784 28.364 299.352 28.562C298.74 28.85 298.002 29.228 297.174 29.678C297.066 29.732 296.976 29.768 296.886 29.786C296.796 29.822 296.688 29.822 296.58 29.822C296.472 29.822 296.382 29.804 296.328 29.804C296.274 29.804 296.184 29.786 296.04 29.75C295.896 29.732 295.806 29.714 295.77 29.696C295.518 29.66 295.302 29.588 295.122 29.444C294.942 29.3 294.816 29.156 294.744 28.976C294.672 28.814 294.618 28.652 294.582 28.49C294.546 28.346 294.546 28.202 294.546 28.094V27.932C295.41 27.662 296.004 27.464 296.328 27.356C296.544 27.284 296.904 27.176 297.372 27.032C297.84 26.888 298.2 26.78 298.434 26.69C298.686 26.618 299.028 26.492 299.478 26.312C299.928 26.132 300.198 26.042 300.27 26.006C300.558 25.898 300.81 25.664 301.062 25.268ZM302.106 37.13C302.394 37.13 302.646 37.022 302.862 36.77C303.078 36.536 303.186 36.248 303.186 35.888C303.186 35.384 302.898 35.078 302.358 34.952C301.764 34.844 300.594 34.772 298.848 34.772H298.83C298.65 34.772 298.506 34.808 298.38 34.862C298.254 34.934 298.146 35.024 298.074 35.15C298.002 35.276 297.948 35.384 297.912 35.474C297.876 35.582 297.84 35.708 297.804 35.888C297.768 35.978 297.768 36.05 297.768 36.122C297.768 36.32 297.822 36.482 297.966 36.59C298.11 36.716 298.272 36.788 298.488 36.824C298.686 36.878 298.956 36.914 299.316 36.95C299.658 36.986 299.964 37.022 300.234 37.022C300.486 37.04 300.828 37.058 301.242 37.076C301.656 37.112 301.926 37.13 302.052 37.13H302.106ZM317.91 38.3C317.604 38.264 316.578 38.21 314.832 38.138C313.068 38.066 312.024 37.994 311.682 37.958C311.574 37.958 311.394 37.958 311.178 37.976C310.944 37.994 310.764 37.994 310.656 37.976C310.566 37.976 310.476 37.94 310.368 37.868C310.26 37.814 310.206 37.76 310.206 37.688C310.098 37.13 310.026 36.446 309.972 35.618C309.954 35.582 309.972 35.528 310.044 35.456C310.116 35.384 310.17 35.348 310.224 35.33C310.62 35.258 311.322 35.15 312.33 35.042C313.32 34.934 314.382 34.844 315.498 34.736C316.614 34.646 317.316 34.574 317.604 34.538C318.18 34.484 319.332 34.43 321.06 34.394C322.788 34.358 323.706 34.34 323.85 34.34C323.958 34.34 324.138 34.322 324.372 34.304C324.606 34.286 324.786 34.268 324.894 34.268C325.002 34.268 325.182 34.268 325.416 34.268C325.992 34.322 326.208 34.628 326.064 35.204C325.866 35.888 325.65 36.608 325.398 37.364C325.344 37.526 325.218 37.652 325.002 37.724C324.714 37.832 324.408 37.904 324.102 37.922C323.634 37.976 322.608 38.048 321.042 38.12C319.458 38.192 318.414 38.264 317.91 38.3ZM317.766 23.234C319.134 23.324 319.872 23.378 319.962 23.378C322.014 23.594 323.616 24.512 324.75 26.096C324.894 26.312 325.002 26.654 325.056 27.086C325.146 27.878 325.02 28.814 324.66 29.876C324.264 31.028 323.472 31.73 322.32 32C321.474 32.198 320.574 32.288 319.602 32.288C319.332 32.288 318.828 32.306 318.09 32.342C317.352 32.378 316.794 32.396 316.398 32.36C314.904 32.288 313.626 31.982 312.582 31.478C311.97 31.19 311.52 30.794 311.25 30.272C310.962 29.768 310.854 29.174 310.926 28.49C311.034 27.338 311.556 26.24 312.51 25.178C312.942 24.692 313.464 24.314 314.04 24.044C314.616 23.774 315.3 23.558 316.092 23.378C316.254 23.342 316.434 23.324 316.632 23.306C316.812 23.288 317.028 23.27 317.262 23.27C317.496 23.27 317.658 23.252 317.766 23.234ZM317.856 29.948C318.846 29.876 319.386 29.822 319.458 29.804C319.764 29.768 320.07 29.624 320.394 29.372C320.7 29.12 320.862 28.868 320.898 28.616C320.97 28.04 320.898 27.554 320.7 27.176C320.502 26.798 320.124 26.528 319.548 26.366C318.324 26.042 317.226 26.006 316.254 26.294C316.218 26.312 316.164 26.33 316.092 26.348C316.02 26.366 315.966 26.384 315.93 26.384C315.894 26.402 315.84 26.42 315.768 26.438C315.696 26.474 315.66 26.492 315.624 26.51C315.588 26.546 315.534 26.564 315.498 26.6C315.462 26.636 315.426 26.654 315.408 26.69C315.138 27.068 314.85 27.608 314.544 28.31C314.31 28.85 314.472 29.21 315.048 29.408C315.462 29.552 315.768 29.66 315.984 29.732C316.182 29.804 316.47 29.858 316.83 29.912C317.19 29.984 317.532 29.984 317.856 29.948ZM343.956 36.302C343.938 36.446 343.938 36.644 343.974 36.86C344.01 37.094 344.01 37.31 344.01 37.508C344.01 37.706 343.956 37.886 343.884 38.048C343.74 38.318 343.596 38.48 343.416 38.516C343.2 38.57 342.948 38.624 342.624 38.66C342.3 38.714 342.012 38.75 341.778 38.768C341.544 38.786 341.436 38.786 341.436 38.768H331.932C331.608 38.786 331.122 38.804 330.474 38.822C329.826 38.84 329.34 38.84 329.016 38.84C328.656 38.858 328.314 38.786 327.99 38.624L327.756 37.238L327.99 36.554C328.062 36.338 328.206 36.23 328.422 36.212L329.862 36.068C331.302 36.068 332.85 36.032 334.488 35.996C334.344 35.852 334.272 35.69 334.272 35.546C334.236 35.33 334.218 35.024 334.218 34.628C334.2 34.232 334.182 33.944 334.182 33.8C334.182 33.656 334.2 33.548 334.254 33.476C334.29 33.404 334.398 33.368 334.56 33.368C334.74 33.386 335.082 33.386 335.55 33.386C336.018 33.386 336.342 33.368 336.54 33.368C336.918 33.386 337.17 33.476 337.314 33.656C337.458 33.836 337.566 34.178 337.656 34.682C337.71 35.06 337.62 35.474 337.386 35.942C339.33 35.906 340.608 35.87 341.184 35.834C341.886 35.816 342.444 35.816 342.84 35.852C342.948 35.852 343.272 35.96 343.812 36.14C343.83 36.158 343.866 36.176 343.902 36.212C343.938 36.248 343.956 36.284 343.956 36.302ZM333.372 30.11C333.3 30.524 333.318 30.776 333.408 30.866C333.498 30.956 333.75 30.956 334.146 30.884C334.524 30.812 335.154 30.758 336.054 30.722C336.468 30.722 337.062 30.704 337.818 30.668C338.574 30.65 339.132 30.632 339.456 30.614C339.456 30.614 339.96 30.578 340.968 30.506C341.166 30.506 341.31 30.542 341.4 30.632C341.49 30.722 341.526 30.866 341.526 31.082C341.526 31.37 341.508 31.604 341.49 31.784C341.454 31.964 341.418 32.162 341.346 32.378C341.274 32.594 341.148 32.774 341.004 32.918C340.842 33.062 340.644 33.17 340.392 33.242C340.248 33.278 340.086 33.314 339.906 33.314C339.726 33.314 339.528 33.314 339.276 33.278C339.024 33.26 338.844 33.242 338.772 33.242C338.25 33.224 337.584 33.188 336.792 33.134C335.136 33.044 333.498 32.936 331.86 32.81C331.788 32.81 331.716 32.792 331.608 32.738C331.212 32.576 330.834 32.198 330.474 31.604C330.096 31.028 329.934 30.542 329.97 30.146C330.024 29.57 330.15 29.012 330.348 28.508C330.456 28.184 330.6 27.986 330.78 27.914C330.942 27.842 331.212 27.824 331.572 27.896C331.662 27.914 331.752 27.932 331.86 27.932C331.968 27.932 332.076 27.932 332.22 27.914C332.364 27.914 332.472 27.896 332.544 27.896C332.562 27.896 332.724 27.896 333.048 27.896C333.354 27.896 333.516 27.896 333.552 27.896C333.624 27.896 333.912 27.914 334.416 27.95C334.92 27.986 335.316 27.986 335.586 27.968C336.414 27.95 337.152 27.878 337.8 27.752C337.962 27.716 338.07 27.644 338.142 27.536C338.196 27.428 338.232 27.266 338.25 27.068C338.25 26.888 338.286 26.744 338.322 26.672C338.322 26.672 338.286 26.636 338.25 26.6C338.196 26.564 338.142 26.528 338.07 26.492C337.998 26.456 337.926 26.42 337.89 26.402C337.638 26.348 337.368 26.312 337.08 26.312C336.756 26.312 336.198 26.312 335.406 26.312C334.614 26.312 334.074 26.312 333.768 26.294C333.588 26.294 333.282 26.294 332.85 26.258C332.4 26.222 332.058 26.204 331.842 26.204C331.302 26.24 330.726 26.312 330.096 26.456C329.952 26.492 329.826 26.492 329.754 26.456C329.682 26.42 329.646 26.33 329.646 26.186C329.664 24.98 329.7 24.188 329.754 23.792C329.79 23.45 329.916 23.198 330.096 23.054C330.276 22.91 330.546 22.838 330.906 22.838C332.67 22.802 334.146 22.928 335.352 23.234C335.46 23.27 335.604 23.288 335.748 23.306C335.892 23.324 336.036 23.342 336.144 23.342C336.252 23.342 336.396 23.342 336.576 23.342C336.756 23.342 336.882 23.36 336.972 23.36C337.098 23.36 337.44 23.378 337.98 23.396C338.52 23.414 338.916 23.432 339.168 23.45C339.402 23.468 339.726 23.504 340.14 23.558C340.536 23.612 340.914 23.684 341.238 23.792C341.526 23.9 341.76 24.062 341.922 24.296C342.3 24.926 342.408 25.79 342.246 26.906C342.21 27.14 342.12 27.482 342.012 27.932C341.886 28.382 341.814 28.724 341.778 28.958C341.706 29.354 341.544 29.642 341.292 29.822C341.04 30.002 340.698 30.11 340.302 30.164C339.366 30.308 338.43 30.38 337.494 30.38H337.188C336.828 30.38 336.45 30.362 336.054 30.326C335.658 30.29 335.19 30.254 334.686 30.2C334.182 30.164 333.804 30.128 333.57 30.092C333.552 30.092 333.48 30.11 333.372 30.11ZM365.887 38.516C365.311 38.516 364.915 38.426 364.699 38.21C364.483 37.994 364.375 37.598 364.339 37.004C364.249 35.33 364.213 34.178 364.213 33.548C364.213 32.666 364.267 29.876 364.393 25.196C364.393 25.07 364.411 24.926 364.447 24.782C364.465 24.638 364.483 24.512 364.519 24.404C364.537 24.296 364.573 24.17 364.627 23.99C364.663 23.81 364.699 23.684 364.735 23.576C364.771 23.432 364.843 23.324 364.969 23.288C365.005 23.288 365.131 23.252 365.329 23.198C365.527 23.144 365.671 23.108 365.743 23.09C365.815 23.072 365.923 23.054 366.103 23.018C366.265 22.982 366.391 22.982 366.499 22.982C366.607 22.982 366.733 23 366.877 23.036C367.021 23.072 367.147 23.108 367.291 23.162C367.633 23.342 367.831 23.666 367.867 24.134C367.867 24.35 367.885 25.07 367.903 26.312C367.903 27.554 367.939 28.328 367.975 28.634C368.011 28.85 368.137 29.084 368.353 29.318C368.461 29.444 368.569 29.57 368.695 29.696C368.821 29.84 368.965 29.984 369.127 30.128C369.271 30.29 369.397 30.416 369.505 30.488C369.649 30.632 369.739 30.794 369.811 30.956C369.883 31.136 369.901 31.334 369.883 31.55C369.865 31.766 369.847 31.928 369.829 32.036C369.793 32.144 369.757 32.342 369.685 32.594C369.577 33.026 369.199 33.26 368.551 33.26C368.209 33.26 367.993 33.314 367.921 33.404C367.831 33.512 367.795 33.746 367.813 34.142C367.813 34.412 367.813 34.898 367.831 35.582C367.849 36.266 367.867 36.734 367.867 36.968C367.867 37.454 367.741 37.778 367.453 37.94C366.733 38.336 366.211 38.534 365.887 38.516ZM353.269 25.808C353.395 25.592 353.593 25.448 353.845 25.394C355.321 25.124 356.455 24.926 357.247 24.818C358.435 24.656 359.533 24.638 360.559 24.782C360.577 24.782 360.631 24.8 360.739 24.8C360.829 24.818 360.901 24.836 360.937 24.836C360.973 24.836 361.045 24.854 361.117 24.872C361.189 24.89 361.243 24.908 361.297 24.944C361.351 24.98 361.405 25.034 361.459 25.07C361.549 25.16 361.639 25.34 361.747 25.61C362.197 26.906 362.395 28.346 362.323 29.966C362.287 30.56 362.197 31.424 362.053 32.576C362.017 32.828 361.981 33.368 361.927 34.232C361.873 35.096 361.783 35.744 361.675 36.194C361.549 36.698 361.387 37.022 361.207 37.202C361.063 37.346 360.631 37.454 359.947 37.49C359.263 37.544 358.633 37.544 358.093 37.508C357.805 37.508 357.661 37.418 357.625 37.238C357.589 37.166 357.589 37.094 357.625 36.986C357.643 36.878 357.679 36.77 357.715 36.644C357.751 36.536 357.769 36.446 357.769 36.392C357.823 36.068 357.877 35.744 357.913 35.402C357.985 34.808 358.021 34.16 358.057 33.458C358.075 32.594 358.057 31.316 358.003 29.606C357.985 29.354 357.949 29.174 357.895 29.066C357.733 28.778 357.355 28.706 356.779 28.832C356.113 28.994 354.925 29.048 353.215 28.976C353.125 28.976 353.071 28.958 353.035 28.922C352.981 28.886 352.963 28.778 352.981 28.634C353.089 26.906 353.179 25.952 353.269 25.808ZM382.699 23.036C383.383 23 383.761 22.982 383.797 22.982C384.193 23 384.571 23.036 384.967 23.09C385.363 23.144 385.705 23.18 386.011 23.198C386.353 23.234 386.533 23.432 386.551 23.774C386.551 24.206 386.587 24.872 386.641 25.754C386.695 26.654 386.731 27.32 386.749 27.77C386.767 28.112 386.767 28.724 386.767 29.588C386.767 30.47 386.767 31.082 386.767 31.406C386.767 31.892 386.767 32.882 386.767 34.394C386.767 35.906 386.767 36.914 386.767 37.4V37.436C386.767 37.688 386.731 37.94 386.659 38.156C386.497 38.606 386.209 38.822 385.795 38.804C385.597 38.804 385.363 38.822 385.111 38.822C384.859 38.822 384.643 38.822 384.463 38.786C384.319 38.786 384.157 38.732 384.013 38.642C383.851 38.57 383.743 38.462 383.707 38.354C383.347 37.49 383.167 36.824 383.149 36.356C383.095 35.312 383.059 33.53 383.041 31.046C383.023 28.562 383.005 26.87 382.969 25.952C382.969 25.664 382.951 25.376 382.915 25.052C382.879 24.728 382.843 24.368 382.807 23.954L382.699 23.036ZM371.269 25.808C371.395 25.592 371.593 25.448 371.845 25.394C373.321 25.124 374.455 24.926 375.247 24.818C376.435 24.656 377.533 24.638 378.559 24.782C378.577 24.782 378.631 24.8 378.739 24.8C378.829 24.818 378.901 24.836 378.937 24.836C378.973 24.836 379.045 24.854 379.117 24.872C379.189 24.89 379.243 24.908 379.297 24.944C379.351 24.98 379.405 25.034 379.459 25.07C379.549 25.16 379.639 25.34 379.747 25.61C380.197 26.906 380.395 28.346 380.323 29.966C380.287 30.56 380.197 31.424 380.053 32.576C380.017 32.828 379.981 33.368 379.927 34.232C379.873 35.096 379.783 35.744 379.675 36.194C379.549 36.698 379.387 37.022 379.207 37.202C379.063 37.346 378.631 37.454 377.947 37.49C377.263 37.544 376.633 37.544 376.093 37.508C375.805 37.508 375.661 37.418 375.625 37.238C375.589 37.166 375.589 37.094 375.625 36.986C375.643 36.878 375.679 36.77 375.715 36.644C375.751 36.536 375.769 36.446 375.769 36.392C375.823 36.068 375.877 35.744 375.913 35.402C375.985 34.808 376.021 34.16 376.057 33.458C376.075 32.594 376.057 31.316 376.003 29.606C375.985 29.354 375.949 29.174 375.895 29.066C375.733 28.778 375.355 28.706 374.779 28.832C374.113 28.994 372.925 29.048 371.215 28.976C371.125 28.976 371.071 28.958 371.035 28.922C370.981 28.886 370.963 28.778 370.981 28.634C371.089 26.906 371.179 25.952 371.269 25.808Z" fill="white"/>
</svg>
