<svg width="67" height="31" viewBox="0 0 67 31" fill="none" xmlns="http://www.w3.org/2000/svg">
<rect width="67" height="31" rx="15.5" fill="white" fill-opacity="0.3"/>
<rect x="0.5" y="0.5" width="66" height="30" rx="15" stroke="black" stroke-opacity="0.1"/>
<g clip-path="url(#clip0_1_35368)">
<path d="M20 13.875C20 14.4963 19.6642 15 19.25 15C18.8358 15 18.5 14.4963 18.5 13.875C18.5 13.2537 18.8358 12.75 19.25 12.75C19.6642 12.75 20 13.2537 20 13.875Z" fill="#414141"/>
<path d="M15.5 13.875C15.5 14.4963 15.1642 15 14.75 15C14.3358 15 14 14.4963 14 13.875C14 13.2537 14.3358 12.75 14.75 12.75C15.1642 12.75 15.5 13.2537 15.5 13.875Z" fill="#414141"/>
<path fill-rule="evenodd" clip-rule="evenodd" d="M17 8.0625C13.1685 8.0625 10.0625 11.1685 10.0625 15C10.0625 18.6421 12.8691 21.6288 16.4376 21.915C16.4387 20.799 16.4493 19.9701 16.5427 19.2883C15.7546 19.2043 15.0275 18.9059 14.415 18.4519C14.1655 18.2669 14.1131 17.9146 14.2981 17.665C14.4831 17.4155 14.8354 17.3631 15.085 17.5481C15.5841 17.9181 16.1777 18.1458 16.8177 18.1823C17.4263 16.5832 18.7103 15.3305 20.3303 14.7637C21.1903 14.4627 22.2225 14.4393 23.915 14.4376C23.6288 10.8691 20.6421 8.0625 17 8.0625ZM23.8544 15.5631C22.1625 15.567 21.353 15.5977 20.7018 15.8255C19.3553 16.2967 18.2967 17.3553 17.8255 18.7018C17.5977 19.353 17.567 20.1625 17.5631 21.8544L23.8544 15.5631ZM8.9375 15C8.9375 10.5472 12.5472 6.9375 17 6.9375C21.4528 6.9375 25.0625 10.5472 25.0625 15C25.0625 15.2717 25.049 15.5405 25.0227 15.8056L25.0029 16.0056L18.0056 23.0029L17.8056 23.0227C17.5405 23.049 17.2717 23.0625 17 23.0625C12.5472 23.0625 8.9375 19.4528 8.9375 15Z" fill="#414141"/>
</g>
<path d="M44.2812 16.7656V17.9844H38.625V22.3438H37.1562V17.9844H31.5156V16.7656H44.2812ZM43.0625 10.0156V11.2188H38.6406C38.7266 12.7656 40.8359 14.2734 43.5 14.6094L42.9688 15.7969C40.7188 15.4844 38.8047 14.4297 37.9062 13C36.9922 14.4453 35.0625 15.4844 32.8125 15.7969L32.2656 14.6094C34.9297 14.2734 37.0547 12.7969 37.1562 11.2188H32.7188V10.0156H37.1562V8.32812H38.625V10.0156H43.0625ZM56.25 8.32812V13.9062H58.4219V15.1406H56.25V22.3125H54.7656V8.32812H56.25ZM52.5938 9.79688C52.5781 13.8438 50.7969 17.4531 46.1875 19.7344L45.3594 18.5781C48.8672 16.8281 50.7734 14.2969 51.0781 11.0312H46.0625V9.79688H52.5938Z" fill="#414141"/>
<defs>
<clipPath id="clip0_1_35368">
<rect width="18" height="18" fill="white" transform="translate(8 6)"/>
</clipPath>
</defs>
</svg>
