<svg width="36" height="36" viewBox="0 0 36 36" fill="none" xmlns="http://www.w3.org/2000/svg">
<path fill-rule="evenodd" clip-rule="evenodd" d="M18 36C27.9411 36 36 27.9411 36 18C36 8.05887 27.9411 0 18 0C8.05887 0 0 8.05887 0 18C0 27.9411 8.05887 36 18 36ZM13.0597 12.5388C13.4071 13.9147 14.3896 14.8309 15.2542 14.5851C16.1187 14.3393 16.5378 13.0247 16.1903 11.6487C15.8429 10.2728 14.8604 9.35658 13.9958 9.60237C13.1313 9.84816 12.7122 11.1628 13.0597 12.5388ZM14.2627 20.8487C15.6007 18.1249 16.2696 16.763 17.2325 16.4385C17.7309 16.2705 18.2691 16.2705 18.7675 16.4385C19.7304 16.763 20.3993 18.1249 21.7373 20.8487L22.4787 22.3582L22.4787 22.3582C22.8243 23.0619 22.9971 23.4137 23.0381 23.6534C23.2078 24.6479 22.472 25.5645 21.4808 25.5934C21.2419 25.6004 20.8688 25.4981 20.1225 25.2936L20.1225 25.2936C19.696 25.1767 19.4828 25.1183 19.2696 25.0751C18.4314 24.9055 17.5686 24.9055 16.7304 25.0751C16.5172 25.1183 16.304 25.1767 15.8775 25.2936L15.8775 25.2936C15.1312 25.4981 14.7581 25.6004 14.5192 25.5934C13.528 25.5645 12.7922 24.6479 12.9619 23.6534C13.0029 23.4137 13.1757 23.0618 13.5213 22.3582L14.2627 20.8487ZM20.7458 14.5851C21.6104 14.8309 22.5929 13.9147 22.9403 12.5388C23.2878 11.1628 22.8687 9.84816 22.0042 9.60237C21.1396 9.35658 20.1571 10.2728 19.8097 11.6487C19.4622 13.0247 19.8813 14.3393 20.7458 14.5851ZM9.73265 18.2507C10.1123 19.2674 11.005 19.885 11.7266 19.6301C12.4481 19.3751 12.7252 18.3442 12.3455 17.3274C11.9658 16.3107 11.0731 15.6931 10.3516 15.9481C9.63006 16.203 9.35296 17.2339 9.73265 18.2507ZM24.2735 19.6301C24.995 19.885 25.8877 19.2674 26.2674 18.2507C26.647 17.2339 26.3699 16.203 25.6484 15.9481C24.9269 15.6931 24.0342 16.3107 23.6545 17.3274C23.2748 18.3442 23.5519 19.3751 24.2735 19.6301Z" fill="#E26575"/>
</svg>
